if (_typeface_js && _typeface_js.loadFace) _typeface_js.loadFace({"glyphs":{"S":{"x_min":82.75,"x_max":1117.71875,"ha":1160,"o":"m 1117 238 q 1086 133 1117 173 q 998 69 1055 93 q 878 37 950 48 q 729 21 807 25 q 577 14 652 16 q 453 13 503 13 q 284 16 367 13 q 115 24 200 18 q 107 298 119 162 q 309 293 208 295 q 512 288 411 291 q 592 286 552 287 q 672 284 632 284 q 693 284 679 284 q 721 286 706 284 q 749 290 736 287 q 769 298 762 293 q 775 314 774 303 q 777 332 777 324 q 773 368 777 347 q 760 402 769 389 q 752 405 759 404 q 735 407 744 406 q 717 408 725 408 q 708 409 709 409 q 535 419 621 416 q 362 428 448 421 q 281 436 322 432 q 204 451 240 440 q 147 494 170 461 q 109 570 123 527 q 88 656 94 613 q 82 729 82 699 q 92 822 82 778 q 122 904 101 866 q 176 971 143 942 q 256 1020 208 1001 q 430 1063 337 1051 q 609 1075 523 1075 q 807 1063 709 1075 q 1002 1032 904 1051 q 1000 954 1001 992 q 999 876 999 915 q 1003 796 999 836 q 1011 717 1007 756 q 754 712 883 714 q 496 705 626 710 q 452 704 480 705 q 398 700 424 702 q 354 697 373 698 q 335 695 335 695 q 326 665 328 680 q 325 633 325 649 q 326 613 325 625 q 332 594 326 600 q 355 590 333 592 q 403 584 377 587 q 453 579 430 581 q 482 576 477 576 q 588 566 527 572 q 711 554 648 561 q 832 537 774 548 q 934 514 891 527 q 1007 471 973 500 q 1064 403 1040 442 q 1103 322 1089 364 q 1117 238 1117 279 "},"¦":{"x_min":97.671875,"x_max":264.5,"ha":361,"o":"m 264 598 l 120 610 q 113 814 116 712 q 107 1020 109 916 l 264 1022 q 263 880 264 950 q 261 739 261 809 q 261 668 261 704 q 264 598 261 633 m 250 377 q 243 165 244 271 q 237 -46 242 59 l 97 -39 q 107 168 104 66 q 113 377 109 271 l 250 377 "},"/":{"x_min":-27.125,"x_max":710.78125,"ha":684,"o":"m 710 1021 q 581 784 647 902 q 448 550 516 667 q 290 265 367 408 q 137 -23 214 122 l -27 -36 q 106 231 39 97 q 248 496 173 364 q 400 758 324 628 q 553 1021 476 889 l 710 1021 "},"y":{"x_min":48.828125,"x_max":998.34375,"ha":1082,"o":"m 998 267 q 998 223 998 252 q 996 159 998 195 q 993 84 995 123 q 988 11 991 46 q 981 -49 986 -23 q 971 -86 976 -75 q 928 -143 948 -123 q 885 -170 908 -162 q 833 -179 862 -179 q 765 -180 804 -180 q 505 -170 634 -180 q 248 -146 377 -160 l 248 39 q 301 40 260 39 q 398 42 343 40 q 516 46 454 43 q 633 52 579 48 q 727 62 687 56 q 775 75 766 67 q 795 105 788 85 q 806 146 803 124 q 811 189 809 168 q 812 225 812 211 q 812 250 812 238 q 811 278 812 263 q 756 208 790 231 q 680 176 722 185 q 592 166 638 166 q 504 165 546 165 q 334 172 416 165 q 189 211 252 180 q 87 305 126 242 q 48 480 48 368 q 63 699 48 590 q 101 915 78 808 l 387 912 q 347 739 364 827 q 329 561 329 651 q 336 484 329 514 q 360 436 343 454 q 409 411 378 417 q 488 404 440 404 q 535 406 507 404 q 592 414 562 409 q 647 427 621 419 q 689 447 674 435 q 698 474 694 451 q 705 529 702 497 q 709 598 708 561 q 711 667 710 634 q 712 723 712 699 q 712 754 712 747 q 712 845 712 800 q 709 937 712 891 q 840 925 775 930 q 971 918 904 921 q 982 657 976 786 q 995 397 988 529 q 998 331 998 364 q 998 267 998 298 "},"Ž":{"x_min":62.390625,"x_max":991.5625,"ha":1061,"o":"m 991 674 q 856 564 925 617 q 714 463 788 511 l 386 245 q 673 257 530 250 q 961 264 816 264 l 957 40 q 575 8 766 17 q 338 -6 455 1 q 104 -24 221 -14 q 92 105 96 40 q 73 234 88 169 q 377 518 225 378 q 689 794 529 657 q 541 794 614 793 q 396 794 469 794 q 234 791 314 794 q 73 784 154 788 l 62 994 l 531 994 q 744 992 638 994 q 957 987 850 990 q 978 830 972 908 q 991 674 983 752 m 808 1385 q 677 1246 741 1316 q 543 1111 612 1177 q 406 1255 473 1183 q 271 1401 338 1328 l 413 1398 l 546 1241 l 680 1392 l 808 1385 "},"Á":{"x_min":104.453125,"x_max":980.703125,"ha":1023,"o":"m 980 4 l 774 -27 q 731 110 752 42 q 689 248 709 179 l 355 236 l 313 55 l 104 55 q 143 514 123 286 q 183 971 164 741 q 377 998 280 987 q 573 1009 474 1009 q 815 1005 694 1009 q 857 723 836 864 q 902 442 878 583 q 937 222 918 330 q 980 4 957 113 m 641 432 q 634 478 640 444 q 622 548 629 511 q 607 616 615 585 q 590 652 598 647 q 577 655 587 653 q 555 657 567 656 q 533 659 543 659 q 518 659 522 659 q 499 659 511 659 q 475 658 488 659 q 451 655 462 657 q 435 648 439 652 q 428 630 432 647 q 418 590 424 614 q 406 539 412 567 q 394 488 400 512 q 385 446 389 463 q 381 425 382 428 l 641 432 m 709 1272 q 645 1220 675 1243 q 583 1176 614 1196 q 519 1136 552 1155 q 446 1095 485 1117 l 396 1171 q 443 1220 420 1196 q 487 1272 465 1245 q 548 1341 515 1308 q 613 1406 580 1374 l 709 1272 "},"g":{"x_min":35.265625,"x_max":960.359375,"ha":1043,"o":"m 960 480 q 959 366 960 423 q 959 253 959 310 q 958 192 957 223 q 956 130 959 161 q 948 67 952 100 q 934 1 944 33 q 909 -59 925 -31 q 868 -108 893 -88 q 841 -118 861 -113 q 793 -126 820 -122 q 735 -132 766 -130 q 675 -137 704 -135 q 623 -141 647 -139 q 591 -143 600 -143 q 422 -147 505 -146 q 253 -149 339 -149 l 166 -149 q 161 -101 164 -126 q 158 -52 158 -77 q 153 3 158 -25 q 141 61 147 32 l 230 59 q 276 60 238 59 q 363 61 313 61 q 471 64 413 62 q 577 70 529 66 q 661 80 626 74 q 699 92 695 85 q 713 132 710 109 q 716 174 716 154 q 715 197 716 185 q 713 219 714 208 q 562 210 637 214 q 411 206 488 206 q 366 206 393 206 q 312 207 340 206 q 258 211 284 208 q 215 219 231 214 q 160 238 188 227 q 108 263 132 248 q 65 299 84 278 q 40 349 47 320 q 35 382 36 364 q 35 415 35 400 q 39 511 35 453 q 53 630 43 569 q 80 744 63 690 q 123 824 97 797 q 171 853 138 841 q 246 873 204 865 q 335 887 288 881 q 427 896 382 893 q 509 900 472 899 q 568 902 546 902 q 720 897 644 902 l 729 984 l 957 950 q 959 716 959 832 q 960 480 960 599 m 720 505 q 718 590 720 549 q 714 675 717 632 q 595 697 655 689 q 473 705 535 705 q 440 704 462 705 q 395 699 419 702 q 351 689 371 695 q 322 675 330 683 q 307 644 310 661 q 305 609 305 626 q 308 563 305 594 q 317 500 311 533 q 330 439 322 467 q 347 400 339 411 q 367 383 355 389 q 394 376 379 378 q 422 373 408 374 q 447 373 436 373 q 513 375 474 373 q 590 382 552 377 q 663 398 629 387 q 714 425 697 408 q 718 439 717 427 q 720 465 720 451 q 720 491 720 478 q 720 505 720 503 "},"²":{"x_min":69.171875,"x_max":705.359375,"ha":761,"o":"m 705 647 q 701 569 702 607 q 698 491 701 530 l 123 478 q 110 578 116 529 q 97 676 104 628 q 181 697 135 685 q 274 725 227 709 q 363 759 320 740 q 440 801 406 778 q 463 818 451 808 q 476 845 476 828 q 465 875 476 859 q 439 897 454 891 q 408 901 430 900 q 377 902 386 902 q 350 902 368 902 q 312 901 332 902 q 275 897 293 900 q 250 887 257 893 q 245 874 246 883 q 244 859 244 865 q 244 849 244 854 q 246 836 244 843 l 75 823 q 71 852 73 838 q 69 881 69 866 q 77 934 69 903 q 111 975 86 965 q 174 988 131 983 q 267 995 218 992 q 360 999 316 998 q 428 999 405 999 q 512 999 469 999 q 589 986 554 998 q 646 947 623 975 q 668 865 668 919 q 666 828 668 850 q 652 794 663 805 q 626 773 645 785 q 583 750 606 762 q 539 729 560 739 q 507 716 518 720 q 393 677 448 697 q 280 640 337 657 q 493 642 386 641 q 705 647 599 644 "},"–":{"x_min":42.046875,"x_max":424.5625,"ha":467,"o":"m 424 431 l 42 431 l 47 541 q 299 545 170 545 l 413 545 l 424 431 "},"ë":{"x_min":34.359375,"x_max":991.5625,"ha":1027,"o":"m 991 503 q 637 487 813 493 q 283 474 461 481 q 282 463 282 469 q 282 453 282 458 q 303 382 282 406 q 355 347 324 358 q 424 336 386 337 q 495 335 462 335 q 676 341 585 335 q 859 354 767 347 l 870 138 q 692 131 781 134 q 514 128 603 128 q 444 129 495 128 q 335 133 393 130 q 227 142 278 137 q 161 157 177 147 q 95 219 119 181 q 59 302 71 257 q 41 394 46 347 q 35 484 36 440 q 34 498 33 491 q 35 512 35 505 q 50 646 35 584 q 108 766 66 708 q 192 834 137 807 q 313 876 248 861 q 443 898 378 892 q 556 904 508 904 q 659 897 598 904 q 780 872 720 889 q 889 826 841 854 q 956 758 938 798 q 962 730 959 750 q 969 685 965 710 q 977 632 973 660 q 983 577 980 603 q 988 531 986 552 q 991 503 990 511 m 807 602 q 776 696 798 661 q 720 748 754 731 q 644 769 687 765 q 553 774 602 774 q 512 773 537 774 q 463 769 488 773 q 417 759 439 766 q 383 740 396 752 q 368 718 374 732 q 358 687 362 704 q 352 655 354 671 q 349 629 349 640 q 354 587 349 607 l 807 602 m 827 1120 q 817 1071 827 1094 q 789 1032 806 1049 q 749 1006 771 1015 q 701 996 726 996 q 656 1004 678 996 q 617 1027 634 1012 q 588 1061 599 1041 q 577 1105 577 1082 q 587 1158 577 1133 q 616 1203 598 1183 q 659 1234 634 1223 q 714 1244 684 1244 q 760 1234 739 1244 q 796 1205 781 1223 q 819 1165 811 1187 q 827 1120 827 1143 m 500 1122 q 463 1035 500 1071 q 374 1000 425 1000 q 330 1008 352 1000 q 291 1031 309 1016 q 263 1065 273 1045 q 252 1107 252 1084 q 263 1162 252 1136 q 292 1207 273 1187 q 335 1238 310 1227 q 389 1248 360 1248 q 433 1238 413 1248 q 469 1209 454 1227 q 492 1168 484 1191 q 500 1122 500 1145 "},"Î":{"x_min":35.265625,"x_max":623.96875,"ha":707,"o":"m 623 995 q 618 830 617 912 q 617 667 619 748 l 466 672 q 464 579 465 625 q 463 485 463 533 q 464 373 463 428 q 466 261 465 318 l 604 259 q 602 179 602 219 q 602 97 602 138 q 604 29 602 63 q 613 -36 606 -4 l 126 -44 q 124 86 126 21 q 119 217 123 150 l 207 218 q 191 470 200 345 q 173 721 183 595 l 44 737 q 40 851 42 794 q 35 964 37 907 q 328 977 183 969 q 623 995 474 984 m 586 1155 l 458 1150 l 324 1300 l 191 1143 l 49 1139 q 184 1286 116 1213 q 321 1429 251 1359 q 455 1294 390 1363 q 586 1155 519 1226 "},"e":{"x_min":34.359375,"x_max":991.5625,"ha":1027,"o":"m 991 503 q 637 487 813 493 q 283 474 461 481 q 282 463 282 469 q 282 453 282 458 q 303 382 282 406 q 355 347 324 358 q 424 336 386 337 q 495 335 462 335 q 676 341 585 335 q 859 354 767 347 l 870 138 q 692 131 781 134 q 514 128 603 128 q 444 129 495 128 q 335 133 393 130 q 227 142 278 137 q 161 157 177 147 q 95 219 119 181 q 59 302 71 257 q 41 394 46 347 q 35 484 36 440 q 34 498 33 491 q 35 512 35 505 q 50 646 35 584 q 108 766 66 708 q 192 834 137 807 q 313 876 248 861 q 443 898 378 892 q 556 904 508 904 q 659 897 598 904 q 780 872 720 889 q 889 826 841 854 q 956 758 938 798 q 962 730 959 750 q 969 685 965 710 q 977 632 973 660 q 983 577 980 603 q 988 531 986 552 q 991 503 990 511 m 807 602 q 776 696 798 661 q 720 748 754 731 q 644 769 687 765 q 553 774 602 774 q 512 773 537 774 q 463 769 488 773 q 417 759 439 766 q 383 740 396 752 q 368 718 374 732 q 358 687 362 704 q 352 655 354 671 q 349 629 349 640 q 354 587 349 607 l 807 602 "},"Ã":{"x_min":104.453125,"x_max":980.703125,"ha":1023,"o":"m 980 4 l 774 -27 q 731 110 752 42 q 689 248 709 179 l 355 236 l 313 55 l 104 55 q 143 514 123 286 q 183 971 164 741 q 377 998 280 987 q 573 1009 474 1009 q 815 1005 694 1009 q 857 723 836 864 q 902 442 878 583 q 937 222 918 330 q 980 4 957 113 m 641 432 q 634 478 640 444 q 622 548 629 511 q 607 616 615 585 q 590 652 598 647 q 577 655 587 653 q 555 657 567 656 q 533 659 543 659 q 518 659 522 659 q 499 659 511 659 q 475 658 488 659 q 451 655 462 657 q 435 648 439 652 q 428 630 432 647 q 418 590 424 614 q 406 539 412 567 q 394 488 400 512 q 385 446 389 463 q 381 425 382 428 l 641 432 m 816 1233 q 773 1204 801 1223 q 714 1168 744 1186 q 654 1138 683 1151 q 607 1125 625 1125 q 562 1139 587 1125 q 511 1170 537 1153 q 461 1202 485 1187 q 420 1216 438 1216 q 386 1206 405 1216 q 348 1181 367 1195 q 313 1150 329 1166 q 287 1125 297 1134 l 207 1213 q 248 1241 219 1221 q 307 1281 276 1261 q 367 1317 339 1301 q 406 1332 396 1332 q 451 1320 425 1332 q 505 1292 477 1307 q 559 1264 533 1277 q 604 1251 585 1251 q 636 1259 618 1251 q 673 1278 655 1267 q 708 1302 691 1289 q 735 1323 724 1315 l 816 1233 "},"J":{"x_min":13.5625,"x_max":754.1875,"ha":852,"o":"m 754 467 q 751 389 754 435 q 741 294 748 343 q 723 200 735 245 q 694 126 712 155 q 620 45 664 74 q 525 2 576 16 q 419 -16 474 -12 q 309 -20 363 -20 q 228 -17 263 -20 q 162 -8 193 -14 q 96 12 130 -1 q 23 46 63 25 q 16 172 17 109 q 13 301 16 236 q 89 287 55 294 q 155 275 123 280 q 222 266 188 269 q 299 263 256 263 q 360 266 326 263 q 415 287 393 269 q 436 322 428 298 q 448 375 444 347 q 452 431 451 404 q 453 474 453 458 q 442 678 453 576 q 415 880 431 779 q 402 959 408 919 q 385 1034 397 998 q 415 1033 400 1033 q 448 1033 431 1033 q 583 1037 516 1033 q 717 1049 649 1040 q 738 800 732 923 q 751 552 744 678 q 753 510 752 530 q 754 467 754 489 "},"»":{"x_min":42.046875,"x_max":683.65625,"ha":684,"o":"m 683 237 l 368 -39 l 360 112 l 531 236 l 321 386 l 386 476 l 683 237 m 405 215 l 107 -81 l 82 90 l 252 212 l 42 363 l 107 454 l 405 215 "},"©":{"x_min":42.046875,"x_max":1047.171875,"ha":1089,"o":"m 1047 553 q 1047 526 1047 538 q 1045 501 1047 514 q 1041 427 1043 473 q 1032 336 1039 382 q 1010 251 1025 290 q 967 198 995 212 q 878 170 938 183 q 750 148 817 157 q 621 134 683 139 q 529 128 560 128 q 468 130 505 128 q 387 137 431 132 q 297 149 343 142 q 211 165 250 155 q 143 186 172 174 q 104 211 113 198 q 78 282 89 231 q 58 391 66 333 q 46 503 50 448 q 42 584 42 557 q 48 661 42 613 q 65 758 54 709 q 92 852 75 808 q 127 919 108 896 q 172 951 142 935 q 239 979 202 967 q 320 1001 276 991 q 404 1018 363 1011 q 482 1028 446 1025 q 545 1032 519 1032 l 572 1032 q 640 1024 599 1030 q 727 1006 680 1017 q 822 980 774 995 q 910 948 870 965 q 979 910 950 930 q 1015 868 1007 889 q 1030 802 1024 845 q 1039 712 1036 759 q 1045 622 1043 666 q 1047 553 1047 579 m 931 432 q 930 518 931 461 q 926 637 929 576 q 916 750 923 698 q 900 816 910 801 q 868 840 892 828 q 811 862 843 851 q 742 881 779 872 q 671 895 705 889 q 609 906 637 902 q 565 910 580 910 q 539 910 552 910 q 516 911 527 911 q 454 908 496 911 q 367 900 412 906 q 284 883 322 893 q 230 859 245 873 q 204 804 215 845 q 184 715 192 763 q 170 623 176 667 q 164 558 165 579 q 162 533 162 545 q 161 508 161 520 q 164 455 161 488 q 172 386 166 421 q 189 320 179 351 q 214 275 199 290 q 274 249 229 260 q 373 231 318 238 q 478 222 427 225 q 558 219 530 219 q 638 226 587 219 q 742 245 689 233 q 843 275 796 257 q 910 314 889 293 q 922 339 918 324 q 928 371 926 354 q 931 405 930 389 q 931 432 931 421 m 778 511 q 773 476 777 501 q 764 421 770 450 q 750 369 758 393 q 735 340 743 345 q 695 325 721 332 q 638 314 668 318 q 581 306 609 309 q 537 303 553 303 q 489 307 518 303 q 432 319 461 311 q 379 337 404 326 q 340 359 354 347 q 324 394 330 367 q 315 451 318 420 q 310 512 311 482 q 309 553 309 541 q 311 606 309 572 q 320 674 313 640 q 341 737 328 709 q 377 771 354 765 q 425 785 398 778 q 480 796 453 792 q 535 801 508 800 q 587 800 562 803 q 626 796 599 798 q 679 788 652 793 q 730 777 706 784 q 760 759 754 770 q 769 737 766 752 q 773 706 771 722 q 776 674 775 690 q 777 648 777 657 q 776 627 777 642 q 771 609 775 611 l 766 609 q 682 607 724 609 q 598 602 640 604 l 598 618 q 597 633 598 622 q 595 656 596 644 q 591 678 594 668 q 584 691 588 689 q 549 700 573 698 q 511 702 524 702 q 496 702 505 702 q 477 701 486 702 q 459 696 467 699 q 447 687 451 693 q 439 655 443 680 q 433 602 435 630 q 429 548 431 573 q 428 512 428 522 q 429 493 428 505 q 431 465 430 480 q 435 439 432 451 q 443 421 438 427 q 476 408 454 411 q 512 406 499 406 q 533 407 519 406 q 562 409 548 408 q 591 413 577 411 q 610 417 604 415 q 625 442 621 424 q 629 470 629 459 q 628 490 629 480 q 623 508 626 500 l 778 511 "},"˘":{"x_min":368.953125,"x_max":930.515625,"ha":1298,"o":"m 930 1094 q 839 960 900 1011 q 697 885 778 908 q 654 875 675 878 q 611 872 633 872 q 518 886 562 872 q 441 927 474 900 q 388 994 408 954 q 368 1087 368 1034 l 537 1083 q 533 1056 533 1071 q 543 1020 533 1034 q 569 996 553 1005 q 603 984 584 987 q 641 980 622 980 q 690 988 666 980 q 733 1010 714 995 q 763 1047 752 1025 q 769 1097 773 1068 l 930 1094 "},"ò":{"x_min":55.609375,"x_max":1063.453125,"ha":1134,"o":"m 1063 537 q 1063 516 1063 526 q 1062 495 1063 505 q 1055 432 1060 476 q 1040 342 1049 389 q 1017 256 1030 295 q 987 206 1003 217 q 932 196 979 200 q 818 188 885 192 q 672 181 751 184 q 522 177 594 179 q 398 173 451 174 q 326 172 344 172 q 299 172 318 172 q 257 172 279 172 q 217 174 236 173 q 189 179 198 176 q 151 201 170 185 q 116 236 132 217 q 87 277 100 256 q 69 317 74 298 q 62 362 65 332 q 58 426 59 393 q 56 491 56 459 q 55 538 55 522 q 56 609 55 564 q 65 702 58 655 q 84 791 71 750 q 122 849 97 832 q 162 861 132 855 q 233 870 192 866 q 320 876 274 874 q 410 879 366 878 q 492 880 454 880 q 553 878 530 880 q 611 876 573 877 q 696 874 649 876 q 793 870 743 873 q 887 861 843 866 q 963 847 930 855 q 1007 826 996 838 q 1036 769 1025 807 q 1053 688 1047 731 q 1061 604 1059 645 q 1063 537 1063 562 m 775 508 q 774 546 775 524 q 770 590 773 568 q 762 634 767 613 q 748 668 756 655 q 706 695 737 686 q 638 710 675 705 q 564 716 600 714 q 511 717 529 717 q 477 716 501 717 q 426 714 453 716 q 377 710 400 713 q 347 702 354 706 q 328 677 335 694 q 318 640 321 660 q 314 600 314 619 q 313 568 313 580 q 315 524 313 556 q 320 456 317 492 q 329 390 324 420 q 343 352 335 360 q 379 335 352 341 q 436 323 405 328 q 495 316 466 318 q 535 314 523 314 q 587 316 557 314 q 647 322 617 317 q 705 337 678 328 q 748 363 732 347 q 763 392 758 373 q 771 432 769 411 q 775 475 774 454 q 775 508 775 496 m 682 1060 l 633 984 q 561 1025 594 1006 q 496 1065 528 1044 q 434 1109 465 1085 q 369 1161 403 1132 l 467 1295 q 530 1230 498 1263 q 593 1161 563 1197 q 637 1109 614 1134 q 682 1060 659 1085 "},"^":{"x_min":27.125,"x_max":659.234375,"ha":688,"o":"m 659 508 l 516 484 q 439 653 477 569 q 355 819 401 736 q 319 750 337 784 q 282 680 301 716 q 231 577 253 632 q 185 472 208 523 l 27 476 q 189 758 108 618 q 352 1039 271 897 q 507 774 432 907 q 659 508 581 641 "},"«":{"x_min":0,"x_max":629.390625,"ha":671,"o":"m 629 58 l 556 -25 l 279 237 l 618 485 l 613 333 l 431 226 l 629 58 m 348 59 l 276 -24 l 0 240 l 337 486 l 332 336 l 151 229 l 348 59 "},"D":{"x_min":104.453125,"x_max":1068.875,"ha":1160,"o":"m 1068 486 q 1068 404 1068 447 q 1059 321 1068 360 q 1044 269 1052 291 q 1024 228 1036 246 q 994 194 1011 210 q 950 164 976 179 q 907 149 942 158 q 819 128 872 141 q 703 103 767 116 q 571 76 638 89 q 438 50 504 63 q 319 27 373 37 q 228 10 265 17 q 179 1 191 2 q 135 493 155 249 q 104 987 115 737 q 330 978 218 983 q 558 965 443 973 q 646 959 588 963 q 766 947 704 954 q 883 929 828 940 q 963 902 938 918 q 1018 839 994 878 q 1053 762 1043 800 q 1062 707 1059 744 q 1066 628 1064 670 q 1068 546 1067 585 q 1068 486 1068 507 m 731 469 q 730 501 731 484 q 728 533 729 518 q 720 578 725 554 q 708 624 716 602 q 687 666 699 647 q 657 701 675 686 q 611 714 648 709 q 531 720 575 718 q 450 723 488 722 q 401 724 412 724 l 345 724 q 365 516 356 618 q 381 307 374 413 q 455 315 406 309 q 553 331 503 321 q 647 357 603 341 q 709 394 690 373 q 727 429 724 411 q 731 469 731 447 "},"ł":{"x_min":0,"x_max":523.59375,"ha":482,"o":"m 523 579 l 358 519 q 344 282 351 400 q 330 46 337 165 l 123 35 q 124 234 123 135 q 123 432 124 333 l 33 401 l 0 505 q 60 529 31 518 q 120 553 89 541 q 109 784 118 668 q 94 1014 101 899 l 397 1043 q 380 844 389 944 q 364 644 371 744 l 474 683 l 523 579 "},"ÿ":{"x_min":48.828125,"x_max":998.34375,"ha":1082,"o":"m 998 267 q 998 223 998 252 q 996 159 998 195 q 993 84 995 123 q 988 11 991 46 q 981 -49 986 -23 q 971 -86 976 -75 q 928 -143 948 -123 q 885 -170 908 -162 q 833 -179 862 -179 q 765 -180 804 -180 q 505 -170 634 -180 q 248 -146 377 -160 l 248 39 q 301 40 260 39 q 398 42 343 40 q 516 46 454 43 q 633 52 579 48 q 727 62 687 56 q 775 75 766 67 q 795 105 788 85 q 806 146 803 124 q 811 189 809 168 q 812 225 812 211 q 812 250 812 238 q 811 278 812 263 q 756 208 790 231 q 680 176 722 185 q 592 166 638 166 q 504 165 546 165 q 334 172 416 165 q 189 211 252 180 q 87 305 126 242 q 48 480 48 368 q 63 699 48 590 q 101 915 78 808 l 387 912 q 347 739 364 827 q 329 561 329 651 q 336 484 329 514 q 360 436 343 454 q 409 411 378 417 q 488 404 440 404 q 535 406 507 404 q 592 414 562 409 q 647 427 621 419 q 689 447 674 435 q 698 474 694 451 q 705 529 702 497 q 709 598 708 561 q 711 667 710 634 q 712 723 712 699 q 712 754 712 747 q 712 845 712 800 q 709 937 712 891 q 840 925 775 930 q 971 918 904 921 q 982 657 976 786 q 995 397 988 529 q 998 331 998 364 q 998 267 998 298 m 827 1162 q 817 1113 827 1136 q 789 1074 806 1091 q 749 1048 771 1057 q 701 1038 726 1038 q 656 1046 678 1038 q 617 1069 634 1054 q 588 1103 599 1083 q 577 1147 577 1124 q 587 1200 577 1175 q 616 1245 598 1225 q 659 1276 634 1265 q 714 1286 684 1286 q 760 1276 739 1286 q 796 1247 781 1265 q 819 1207 811 1229 q 827 1162 827 1185 m 500 1164 q 463 1077 500 1113 q 374 1042 425 1042 q 330 1050 352 1042 q 291 1073 309 1058 q 263 1107 273 1087 q 252 1149 252 1126 q 263 1204 252 1178 q 292 1249 273 1229 q 335 1280 310 1269 q 389 1290 360 1290 q 433 1280 413 1290 q 469 1251 454 1269 q 492 1210 484 1233 q 500 1164 500 1187 "},"Ł":{"x_min":20.34375,"x_max":766.390625,"ha":795,"o":"m 543 565 l 402 514 q 398 403 400 458 q 394 293 397 348 q 571 290 484 290 q 747 287 659 290 l 766 33 q 446 10 606 21 q 126 -9 287 0 q 121 200 123 96 q 116 409 119 305 l 54 387 l 20 491 q 67 510 43 501 q 115 529 90 519 q 109 775 112 652 q 101 1021 105 897 q 279 1026 191 1022 q 457 1037 367 1030 q 429 838 443 938 q 409 638 416 739 l 496 670 l 543 565 "},"í":{"x_min":70.53125,"x_max":459.734375,"ha":439,"o":"m 355 676 q 344 534 348 604 q 336 393 340 463 q 318 229 330 310 q 288 66 305 147 l 81 44 q 82 130 81 88 q 82 215 82 172 q 78 438 82 326 q 70 660 74 549 q 212 668 142 663 q 355 676 282 674 m 459 1024 q 395 972 425 995 q 333 928 364 948 q 269 888 302 907 q 196 847 235 869 l 146 923 q 193 972 170 948 q 237 1024 215 997 q 298 1093 265 1060 q 363 1158 330 1126 l 459 1024 "},"ˆ":{"x_min":381.15625,"x_max":918.3125,"ha":1298,"o":"m 918 877 l 790 872 l 656 1022 l 523 865 l 381 861 q 516 1008 448 935 q 653 1151 583 1081 q 787 1016 722 1085 q 918 877 851 948 "},"w":{"x_min":13.5625,"x_max":1204.53125,"ha":1218,"o":"m 1204 925 q 1129 543 1165 733 q 1052 162 1093 354 l 770 160 l 667 526 l 431 160 l 123 137 q 100 325 112 230 q 73 514 88 420 q 43 707 58 611 q 13 899 28 803 l 293 907 l 382 482 q 438 603 409 543 q 495 724 466 663 q 560 853 524 792 l 713 850 q 790 653 752 751 q 870 458 827 554 q 913 579 895 523 q 946 691 931 636 q 975 803 961 746 q 1002 929 988 861 l 1204 925 "},"$":{"x_min":55.609375,"x_max":959,"ha":986,"o":"m 959 335 q 953 282 959 305 q 914 198 944 233 q 845 138 884 162 q 762 99 805 113 q 682 74 718 84 q 620 59 645 65 q 592 48 595 54 q 594 48 594 47 q 594 40 594 48 q 592 6 594 31 q 590 -71 591 -18 l 402 -66 l 406 42 q 248 64 326 52 q 93 99 170 75 q 84 201 90 150 q 74 303 77 252 q 172 282 122 293 q 274 261 222 271 q 377 244 325 250 q 477 238 428 238 q 522 240 491 238 q 587 244 553 241 q 651 253 621 248 q 691 265 680 259 q 721 326 721 284 q 718 354 721 339 q 704 379 714 368 q 659 388 698 383 q 565 399 621 393 q 444 411 510 405 q 320 425 379 417 q 217 441 261 432 q 158 461 172 450 q 120 500 138 476 q 87 554 101 524 q 64 613 73 583 q 55 667 55 642 q 92 765 55 722 q 181 835 128 807 q 291 879 233 864 q 394 899 349 895 l 394 1047 l 590 1025 l 585 899 q 620 900 603 900 q 653 900 637 900 q 773 893 714 900 q 892 872 831 887 q 874 782 884 827 q 857 693 865 737 q 733 699 794 697 q 610 702 671 702 q 560 701 595 702 q 487 699 526 701 q 415 693 448 697 q 367 685 381 690 q 335 632 335 670 q 354 583 335 604 q 400 572 360 576 q 495 564 439 568 q 614 555 550 560 q 735 544 678 550 q 836 529 793 538 q 892 505 878 519 q 942 426 925 472 q 959 335 959 381 "},"\\":{"x_min":-27.125,"x_max":710.78125,"ha":684,"o":"m 710 -36 l 545 -23 q 393 265 469 122 q 234 550 317 408 q 101 784 165 667 q -27 1021 37 902 l 130 1021 q 283 758 207 889 q 435 496 359 628 q 577 231 510 364 q 710 -36 645 97 "},"Ì":{"x_min":35.265625,"x_max":623.96875,"ha":707,"o":"m 623 995 q 618 830 617 912 q 617 667 619 748 l 466 672 q 464 579 465 625 q 463 485 463 533 q 464 373 463 428 q 466 261 465 318 l 604 259 q 602 179 602 219 q 602 97 602 138 q 604 29 602 63 q 613 -36 606 -4 l 126 -44 q 124 86 126 21 q 119 217 123 150 l 207 218 q 191 470 200 345 q 173 721 183 595 l 44 737 q 40 851 42 794 q 35 964 37 907 q 328 977 183 969 q 623 995 474 984 m 446 1185 l 397 1109 q 325 1150 358 1131 q 260 1190 292 1169 q 198 1234 229 1210 q 133 1286 167 1257 l 231 1420 q 294 1355 262 1388 q 357 1286 327 1322 q 401 1234 378 1259 q 446 1185 423 1210 "},"µ":{"x_min":42.046875,"x_max":748.765625,"ha":798,"o":"m 748 48 l 618 43 l 604 155 q 575 99 594 127 q 532 50 557 71 q 477 14 507 28 q 415 1 447 1 q 362 7 389 1 q 311 25 336 13 q 267 55 287 37 q 236 96 248 73 l 242 -214 l 88 -214 q 71 3 80 -104 q 51 221 62 111 q 43 328 44 275 q 42 438 42 382 q 46 561 42 497 l 253 556 q 257 501 253 535 q 267 426 260 466 q 284 345 274 386 q 311 271 295 305 q 351 217 328 238 q 405 196 374 196 l 409 196 q 474 239 448 202 q 512 324 499 276 q 531 420 526 371 q 535 499 535 469 q 535 526 535 512 q 534 556 534 541 l 737 561 q 741 305 741 432 q 748 48 741 177 "},"Ç":{"x_min":42.046875,"x_max":959,"ha":1000,"o":"m 727 -222 q 723 -261 727 -238 q 712 -305 720 -283 q 694 -345 705 -326 q 668 -371 683 -363 q 619 -387 653 -379 q 547 -401 585 -394 q 472 -413 508 -408 q 416 -420 436 -417 l 411 -294 q 447 -288 421 -293 q 501 -278 473 -283 q 552 -267 529 -272 q 581 -257 576 -261 q 600 -240 596 -250 q 604 -214 604 -229 q 576 -158 604 -177 q 546 -152 569 -154 q 495 -149 523 -150 q 442 -149 467 -149 q 405 -150 416 -150 l 405 -27 q 406 10 405 -8 q 406 47 406 28 q 349 50 381 48 q 286 56 317 52 q 231 65 256 59 q 192 78 206 70 q 164 101 177 88 q 139 127 150 113 q 92 204 111 162 q 62 291 73 246 q 46 382 51 336 q 42 473 42 428 q 48 585 42 527 q 67 701 54 644 q 103 811 81 758 q 158 908 126 864 q 183 938 168 921 q 212 964 198 956 q 295 998 249 984 q 389 1019 340 1011 q 486 1030 438 1026 q 575 1033 534 1033 q 729 1024 652 1033 q 880 994 807 1015 q 876 920 877 957 q 874 846 874 883 q 878 668 874 758 q 751 701 817 691 q 619 712 685 712 q 580 710 606 712 q 522 704 554 708 q 455 695 489 701 q 390 682 420 690 q 338 663 360 674 q 309 640 316 652 q 300 609 303 629 q 295 568 297 590 q 292 526 293 546 q 291 493 291 505 q 294 444 291 481 q 301 366 297 408 q 311 291 305 325 q 324 252 317 257 q 346 247 330 248 q 367 246 362 246 q 510 253 434 246 q 663 271 585 260 q 817 296 741 283 q 959 321 893 309 l 957 109 q 834 86 895 97 q 710 67 773 75 q 565 51 640 58 l 565 -69 q 626 -82 599 -73 q 674 -105 653 -90 q 706 -145 694 -120 q 725 -207 718 -170 q 726 -215 725 -211 q 727 -222 727 -218 "},"’":{"x_min":55.609375,"x_max":347.25,"ha":403,"o":"m 347 830 q 324 731 347 778 q 276 641 301 685 l 127 641 q 155 674 141 657 q 183 710 170 691 q 202 748 195 728 q 210 792 210 769 l 210 807 l 81 809 q 64 860 73 828 q 55 914 55 892 q 69 969 55 941 q 101 1018 82 996 l 316 1015 q 339 924 330 971 q 347 830 347 877 "},"-":{"x_min":42.046875,"x_max":564.28125,"ha":605,"o":"m 564 431 l 42 431 l 47 541 q 299 545 170 545 l 553 545 l 564 431 "},"Q":{"x_min":97.671875,"x_max":1223.515625,"ha":1321,"o":"m 1223 698 q 1222 629 1223 675 q 1219 525 1222 583 q 1211 406 1216 467 q 1199 290 1207 344 q 1179 195 1190 236 q 1151 141 1167 154 q 1119 119 1139 130 q 1079 99 1100 108 q 1037 82 1058 89 q 1001 70 1017 74 q 1051 -49 1026 9 q 1100 -169 1075 -108 l 899 -217 q 825 -103 859 -160 q 751 9 790 -46 q 729 8 740 8 q 708 8 718 8 q 639 10 685 8 q 537 18 594 13 q 420 32 481 24 q 307 50 359 40 q 217 71 255 59 q 168 97 179 84 q 136 174 149 120 q 115 289 123 227 q 103 408 107 351 q 99 496 99 466 q 97 563 97 530 q 97 632 97 596 q 98 698 97 657 q 103 782 99 739 q 116 864 107 826 q 145 922 126 902 q 193 946 155 934 q 282 967 230 957 q 393 986 333 978 q 510 1001 453 994 q 615 1011 567 1007 q 690 1015 663 1014 q 769 1018 729 1017 q 847 1018 808 1018 q 956 1016 899 1018 q 1066 999 1014 1014 q 1159 949 1119 983 q 1215 853 1199 915 q 1220 820 1218 841 q 1222 777 1222 800 q 1223 732 1223 754 q 1223 698 1223 710 m 930 619 q 930 637 930 626 q 929 659 930 648 q 924 679 927 670 q 915 694 921 689 q 896 703 908 699 q 870 709 884 708 q 841 711 855 710 q 819 712 827 712 q 760 709 800 712 q 670 701 720 706 q 566 688 621 695 q 466 671 512 680 q 387 651 420 661 q 345 628 354 640 q 339 606 340 619 q 339 581 339 592 q 343 514 339 554 q 354 430 347 473 q 368 345 360 386 q 382 279 375 305 q 440 259 415 267 q 491 248 466 252 q 541 242 515 244 q 603 238 568 240 l 519 374 q 585 408 554 392 q 648 438 617 424 q 712 462 679 451 q 785 482 746 473 l 876 297 q 917 456 904 374 q 930 619 930 538 "},"M":{"x_min":104.453125,"x_max":1249.28125,"ha":1354,"o":"m 1249 -23 q 1199 -18 1223 -21 q 1159 -14 1178 -16 q 1129 -13 1139 -13 q 1024 -15 1077 -13 q 919 -23 971 -17 q 921 88 921 33 q 922 200 922 143 q 918 402 922 302 q 912 603 915 503 l 628 -40 q 494 292 565 128 q 345 618 423 455 l 367 -51 q 337 -50 352 -51 q 305 -50 321 -50 q 204 -54 253 -50 q 104 -62 154 -58 q 118 188 111 63 q 124 439 124 313 q 122 733 124 587 q 119 1028 120 880 q 309 1033 217 1028 q 500 1048 402 1039 q 567 833 533 940 q 641 621 602 727 q 737 817 683 721 q 846 1009 790 914 q 1028 1014 938 1011 q 1211 1018 1119 1017 q 1221 777 1215 896 q 1233 535 1227 657 q 1240 343 1237 439 q 1246 151 1243 246 l 1249 37 l 1249 -23 "},"C":{"x_min":42.046875,"x_max":959,"ha":1000,"o":"m 959 321 l 957 109 q 834 86 895 97 q 710 67 773 75 q 580 52 645 59 q 450 46 515 46 q 394 47 431 46 q 318 52 358 48 q 244 63 279 56 q 192 78 208 69 q 164 101 177 88 q 139 127 150 113 q 92 204 111 162 q 62 291 73 246 q 46 382 51 336 q 42 473 42 428 q 48 585 42 527 q 67 701 54 644 q 103 811 81 758 q 158 908 126 864 q 183 938 168 921 q 212 964 198 956 q 295 998 249 984 q 389 1019 340 1011 q 486 1030 438 1026 q 575 1033 534 1033 q 729 1024 652 1033 q 880 994 807 1015 q 876 920 877 957 q 874 846 874 883 q 878 668 874 758 q 751 701 817 691 q 619 712 685 712 q 580 710 606 712 q 522 704 554 708 q 455 695 489 701 q 390 682 420 690 q 338 663 360 674 q 309 640 316 652 q 300 609 303 629 q 295 568 297 590 q 292 526 293 546 q 291 493 291 505 q 294 444 291 481 q 301 366 297 408 q 311 291 305 325 q 324 252 317 257 q 346 247 330 248 q 367 246 362 246 q 510 253 434 246 q 663 271 585 260 q 817 296 741 283 q 959 321 893 309 "},"œ":{"x_min":55.609375,"x_max":1808.140625,"ha":1843,"o":"m 1808 511 q 1806 451 1808 481 q 1802 393 1805 421 q 1660 388 1732 390 q 1516 383 1589 386 q 1313 370 1414 378 q 1109 355 1211 362 q 1145 269 1110 306 q 1224 217 1180 231 q 1280 208 1246 210 q 1334 207 1314 207 q 1513 219 1424 207 q 1690 248 1601 230 l 1713 12 q 1547 0 1630 5 q 1382 -4 1464 -4 q 1327 -3 1363 -4 q 1254 0 1292 -2 q 1180 7 1215 2 q 1127 18 1144 12 q 1076 44 1098 31 q 1037 72 1053 56 q 1006 109 1020 88 q 983 160 992 130 q 948 93 965 124 q 915 42 933 66 q 883 8 897 17 q 836 -5 870 0 q 758 -15 803 -10 q 663 -23 713 -20 q 566 -29 613 -27 q 483 -32 520 -31 q 428 -33 446 -33 q 376 -33 406 -33 q 314 -30 345 -32 q 253 -24 283 -28 q 204 -12 223 -20 q 142 16 166 1 q 102 54 118 32 q 77 105 86 75 q 63 176 69 135 q 56 242 58 208 q 55 309 55 276 q 59 403 55 341 q 73 530 62 465 q 104 648 84 595 q 160 716 124 701 q 219 731 179 724 q 311 742 260 737 q 418 751 362 747 q 526 757 474 755 q 621 760 579 759 q 689 762 664 762 q 762 760 725 762 q 834 756 798 759 q 866 741 851 754 q 904 699 888 725 q 929 644 919 674 q 946 585 940 615 q 956 530 952 556 q 1001 644 969 591 q 1079 737 1032 697 q 1096 751 1086 744 q 1115 762 1105 758 q 1197 784 1142 775 q 1313 798 1252 793 q 1431 806 1374 804 q 1519 808 1488 808 q 1578 808 1542 808 q 1652 804 1615 808 q 1721 788 1690 800 q 1766 754 1752 777 q 1787 699 1779 729 q 1800 635 1795 668 q 1806 569 1805 602 q 1808 511 1808 537 m 1618 531 q 1591 574 1618 560 q 1527 594 1563 588 q 1454 601 1490 600 q 1401 602 1418 602 q 1364 602 1387 602 q 1316 600 1341 602 q 1268 594 1291 598 q 1234 584 1246 591 q 1201 545 1215 573 q 1184 496 1188 516 l 1614 512 q 1618 531 1618 520 m 731 242 q 720 400 731 321 q 698 557 710 480 q 660 570 683 565 q 611 577 637 575 q 560 581 584 580 q 519 581 535 581 q 483 581 507 581 q 434 578 459 580 q 387 571 409 576 q 356 557 366 565 q 343 518 348 549 q 335 452 337 488 q 333 384 333 416 q 332 340 332 352 q 333 294 332 329 q 336 220 333 259 q 343 148 339 181 q 355 109 347 115 q 373 103 360 105 q 402 99 386 100 q 431 97 417 97 q 453 97 444 97 q 510 99 473 97 q 587 105 548 101 q 661 116 626 109 q 713 134 697 123 q 722 153 718 138 q 728 186 727 168 q 730 221 729 204 q 731 242 731 237 "},"!":{"x_min":82.75,"x_max":398.796875,"ha":441,"o":"m 398 1043 q 395 965 397 1007 q 390 880 393 923 q 383 795 387 836 q 371 718 378 754 q 330 518 351 617 q 288 317 309 419 l 139 303 l 105 645 q 92 830 96 737 q 82 1017 88 923 l 398 1043 m 374 108 q 360 63 374 85 q 324 23 345 40 q 276 -4 302 5 q 229 -14 250 -14 q 186 -7 208 -14 q 145 12 164 0 q 115 44 127 25 q 104 88 104 63 q 120 134 104 113 q 158 170 135 155 q 206 191 180 184 q 256 199 233 199 q 324 181 294 199 q 370 128 355 164 q 373 118 373 123 q 374 108 374 113 "},"ç":{"x_min":35.265625,"x_max":944.09375,"ha":979,"o":"m 727 -124 q 723 -163 727 -141 q 712 -208 720 -185 q 694 -248 705 -230 q 668 -275 683 -267 q 619 -290 653 -283 q 547 -304 585 -298 q 472 -316 508 -310 q 416 -324 436 -321 l 411 -196 q 447 -190 421 -195 q 501 -180 473 -185 q 552 -169 529 -174 q 581 -161 576 -164 q 600 -142 596 -153 q 604 -116 604 -131 q 576 -61 604 -81 q 546 -54 569 -56 q 495 -52 523 -52 q 442 -52 467 -51 q 405 -52 416 -52 l 405 69 q 406 103 405 86 q 406 137 406 120 q 365 136 386 137 q 324 135 344 135 q 304 135 317 135 q 276 136 291 135 q 248 138 261 137 q 229 141 234 139 q 172 159 200 149 q 120 185 145 169 q 78 222 96 200 q 51 275 59 244 q 42 328 46 295 q 37 397 39 362 q 35 466 36 432 q 35 523 35 500 q 36 622 35 576 q 51 707 37 668 q 95 776 65 746 q 183 830 126 807 q 260 847 208 841 q 368 856 311 853 q 476 861 424 859 q 556 862 527 862 q 745 858 651 862 q 934 847 839 854 q 941 780 938 813 q 944 714 944 747 q 927 594 944 652 q 871 590 918 592 q 760 585 824 588 q 621 577 695 581 q 484 566 548 572 q 377 555 421 561 q 328 543 333 549 q 295 497 306 524 q 284 443 284 470 q 288 418 284 427 q 299 398 291 409 q 328 392 303 394 q 382 387 352 389 q 438 385 412 386 q 467 385 463 385 q 663 389 565 385 q 858 400 760 393 l 869 166 q 718 153 793 160 q 565 143 642 147 l 565 27 q 626 14 599 23 q 674 -8 653 6 q 706 -48 694 -24 q 725 -109 718 -73 q 726 -117 725 -113 q 727 -124 727 -120 "},"È":{"x_min":82.75,"x_max":862.703125,"ha":890,"o":"m 862 826 q 598 811 729 819 q 335 793 467 804 l 332 686 l 682 706 q 692 615 689 660 q 695 524 695 571 q 695 485 695 505 q 694 446 694 465 l 368 387 l 389 219 q 594 239 492 226 q 801 261 697 252 q 820 125 811 193 q 847 -8 830 56 q 465 -8 655 -6 q 82 -10 275 -10 q 92 305 86 147 q 97 622 97 462 l 97 648 q 94 832 97 740 q 89 1017 92 923 q 303 1016 196 1015 q 518 1017 409 1017 q 682 1013 600 1017 q 847 1006 765 1010 l 862 826 m 626 1185 l 577 1109 q 505 1150 538 1131 q 440 1190 472 1169 q 378 1234 409 1210 q 313 1286 347 1257 l 411 1420 q 474 1355 442 1388 q 537 1286 507 1322 q 581 1234 558 1259 q 626 1185 603 1210 "},"ﬁ":{"x_min":27.125,"x_max":946.796875,"ha":1017,"o":"m 946 657 q 936 524 941 591 q 929 393 931 458 q 912 229 925 310 q 881 66 899 147 l 674 44 q 675 252 675 149 q 671 462 675 356 l 415 440 q 438 209 425 324 q 457 -21 450 94 q 286 -24 371 -18 q 116 -31 202 -29 l 128 417 l 27 412 l 27 448 q 32 542 27 496 q 40 636 37 588 l 137 638 q 138 692 137 661 q 143 755 139 722 q 155 817 147 788 q 173 868 162 847 q 235 953 199 916 q 325 1009 271 990 q 383 1024 348 1018 q 457 1032 419 1029 q 531 1036 495 1034 q 591 1037 567 1037 q 612 1037 602 1037 q 633 1036 622 1037 q 637 961 637 996 q 634 885 637 922 q 625 808 630 847 q 577 808 604 809 q 523 800 550 807 q 472 784 496 794 q 432 756 448 773 q 403 713 417 739 q 389 663 389 687 q 390 647 389 652 l 661 641 q 805 649 735 644 q 946 657 876 655 "},"{":{"x_min":55.609375,"x_max":552.078125,"ha":537,"o":"m 552 1140 l 541 1001 q 528 1002 534 1002 q 515 1002 522 1002 q 444 985 472 1002 q 400 940 416 968 q 377 878 383 912 q 370 807 370 843 q 376 730 370 767 q 382 655 382 693 q 369 608 382 629 q 337 571 356 587 q 294 543 317 554 q 250 523 271 531 q 290 493 271 511 q 326 455 310 476 q 351 409 341 434 q 360 360 360 385 q 355 313 360 336 q 343 267 349 290 q 332 223 337 245 q 326 179 326 200 q 345 113 326 139 q 394 70 364 86 q 458 46 423 54 q 526 36 493 37 l 541 -120 q 465 -113 505 -119 q 384 -96 424 -108 q 308 -66 344 -85 q 246 -17 272 -47 q 216 45 222 9 q 210 119 210 81 q 219 209 210 165 q 227 298 227 253 q 226 326 227 314 q 214 351 225 339 q 182 378 202 367 q 141 396 162 389 q 96 406 119 402 q 55 412 74 409 l 55 602 q 143 624 99 607 q 215 678 187 641 q 233 711 229 694 q 237 750 237 728 q 230 826 237 789 q 223 900 223 862 q 242 988 223 952 q 299 1055 260 1025 q 419 1117 354 1096 q 552 1140 484 1138 "},"X":{"x_min":-35.265625,"x_max":1087.875,"ha":1032,"o":"m 1087 1017 q 881 761 983 888 q 668 510 778 634 q 831 261 746 383 q 926 133 877 196 q 1025 6 975 70 l 683 -4 q 591 147 638 73 q 499 298 543 221 q 400 147 447 222 q 306 -6 352 71 q 245 0 276 -1 q 183 0 214 0 q 79 -2 131 0 q -24 -6 27 -4 l 330 451 q 269 553 299 503 q 207 653 238 603 q 87 830 149 743 q -35 1006 25 918 q 157 999 62 1001 q 348 992 252 998 q 433 856 389 923 q 520 721 477 789 q 620 864 571 793 q 714 1010 670 935 q 781 1008 748 1007 q 849 1009 815 1009 q 1087 1017 967 1009 "},"ô":{"x_min":55.609375,"x_max":1063.453125,"ha":1134,"o":"m 1063 537 q 1063 516 1063 526 q 1062 495 1063 505 q 1055 432 1060 476 q 1040 342 1049 389 q 1017 256 1030 295 q 987 206 1003 217 q 932 196 979 200 q 818 188 885 192 q 672 181 751 184 q 522 177 594 179 q 398 173 451 174 q 326 172 344 172 q 299 172 318 172 q 257 172 279 172 q 217 174 236 173 q 189 179 198 176 q 151 201 170 185 q 116 236 132 217 q 87 277 100 256 q 69 317 74 298 q 62 362 65 332 q 58 426 59 393 q 56 491 56 459 q 55 538 55 522 q 56 609 55 564 q 65 702 58 655 q 84 791 71 750 q 122 849 97 832 q 162 861 132 855 q 233 870 192 866 q 320 876 274 874 q 410 879 366 878 q 492 880 454 880 q 553 878 530 880 q 611 876 573 877 q 696 874 649 876 q 793 870 743 873 q 887 861 843 866 q 963 847 930 855 q 1007 826 996 838 q 1036 769 1025 807 q 1053 688 1047 731 q 1061 604 1059 645 q 1063 537 1063 562 m 775 508 q 774 546 775 524 q 770 590 773 568 q 762 634 767 613 q 748 668 756 655 q 706 695 737 686 q 638 710 675 705 q 564 716 600 714 q 511 717 529 717 q 477 716 501 717 q 426 714 453 716 q 377 710 400 713 q 347 702 354 706 q 328 677 335 694 q 318 640 321 660 q 314 600 314 619 q 313 568 313 580 q 315 524 313 556 q 320 456 317 492 q 329 390 324 420 q 343 352 335 360 q 379 335 352 341 q 436 323 405 328 q 495 316 466 318 q 535 314 523 314 q 587 316 557 314 q 647 322 617 317 q 705 337 678 328 q 748 363 732 347 q 763 392 758 373 q 771 432 769 411 q 775 475 774 454 q 775 508 775 496 m 850 1030 l 722 1025 l 588 1175 l 455 1018 l 313 1014 q 448 1161 380 1088 q 585 1304 515 1234 q 719 1169 654 1238 q 850 1030 783 1101 "},"¼":{"x_min":27.125,"x_max":1326.609375,"ha":1369,"o":"m 1326 210 l 1224 207 q 1226 102 1224 153 q 1235 0 1228 51 l 990 -8 q 988 94 988 43 q 984 196 987 145 l 645 191 q 653 334 651 263 q 663 474 656 405 l 800 482 q 826 392 815 438 q 849 299 838 345 l 979 301 q 984 344 982 324 q 986 387 986 364 q 984 440 986 413 q 980 493 982 466 q 1023 495 1002 495 q 1066 495 1044 495 q 1150 493 1108 495 q 1235 489 1192 491 l 1237 310 l 1311 311 q 1321 261 1318 288 q 1326 210 1323 233 m 820 971 q 752 836 785 903 q 686 701 718 770 q 640 606 663 653 q 598 510 617 558 q 496 243 546 375 q 394 -23 446 111 l 215 -20 q 293 146 255 63 q 371 311 332 229 q 417 410 394 362 q 459 507 439 458 q 551 739 507 623 q 638 975 595 855 l 820 971 m 349 491 q 84 499 217 499 l 115 846 l 27 851 q 51 912 44 881 q 67 976 58 942 l 302 979 q 328 735 317 855 q 349 491 339 614 "},"#":{"x_min":42.046875,"x_max":940.015625,"ha":940,"o":"m 940 731 l 912 609 l 779 595 l 729 438 l 855 431 l 827 326 l 691 314 l 621 104 l 499 97 l 539 291 l 333 279 l 276 67 l 130 56 l 196 279 l 42 279 l 69 408 l 225 420 l 268 609 l 82 609 q 88 631 84 611 q 100 674 93 651 q 116 731 107 699 q 143 732 131 731 q 164 733 154 732 q 176 733 173 733 q 235 733 206 733 q 295 731 264 732 l 347 976 l 451 953 l 404 718 l 657 725 l 729 941 l 836 918 l 790 743 l 940 731 m 625 625 l 408 614 l 352 402 l 568 408 l 625 625 "},"Ê":{"x_min":82.75,"x_max":862.703125,"ha":890,"o":"m 862 826 q 598 811 729 819 q 335 793 467 804 l 332 686 l 682 706 q 692 615 689 660 q 695 524 695 571 q 695 485 695 505 q 694 446 694 465 l 368 387 l 389 219 q 594 239 492 226 q 801 261 697 252 q 820 125 811 193 q 847 -8 830 56 q 465 -8 655 -6 q 82 -10 275 -10 q 92 305 86 147 q 97 622 97 462 l 97 648 q 94 832 97 740 q 89 1017 92 923 q 303 1016 196 1015 q 518 1017 409 1017 q 682 1013 600 1017 q 847 1006 765 1010 l 862 826 m 753 1169 l 625 1164 l 491 1314 l 358 1157 l 216 1153 q 351 1300 283 1227 q 488 1443 418 1373 q 622 1308 557 1377 q 753 1169 686 1240 "},")":{"x_min":42.046875,"x_max":396.078125,"ha":479,"o":"m 396 504 q 366 331 396 419 q 290 161 337 244 q 184 6 244 78 q 65 -120 124 -66 l 42 -18 q 126 88 92 24 q 182 224 161 151 q 212 371 203 297 q 222 510 222 446 q 214 640 222 567 q 187 789 206 714 q 141 929 169 864 q 71 1037 112 995 l 77 1144 q 201 1018 143 1091 q 302 859 259 944 q 370 682 345 774 q 396 504 396 591 "},"Å":{"x_min":104.453125,"x_max":980.703125,"ha":1023,"o":"m 641 432 q 634 478 640 444 q 622 548 629 511 q 607 616 615 585 q 590 652 598 647 q 577 655 587 653 q 555 657 567 656 q 533 659 543 659 q 518 659 522 659 q 499 659 511 659 q 475 658 488 659 q 451 655 462 657 q 435 648 439 652 q 428 630 432 647 q 418 590 424 614 q 406 539 412 567 q 394 488 400 512 q 385 446 389 463 q 381 425 382 428 l 641 432 m 691 1146 q 663 1062 691 1097 q 595 1009 636 1028 q 815 1005 705 1009 q 857 723 836 864 q 902 442 878 583 q 937 222 918 330 q 980 4 957 113 l 774 -27 q 731 110 752 42 q 689 248 709 179 l 355 236 l 313 55 l 104 55 q 143 514 123 286 q 183 971 164 741 q 299 989 241 982 q 415 1002 356 996 q 332 1047 368 1017 q 295 1120 295 1077 q 297 1131 295 1127 q 324 1197 303 1167 q 373 1245 344 1226 q 436 1276 401 1265 q 507 1287 472 1287 q 571 1278 538 1287 q 631 1252 604 1269 q 674 1207 657 1234 q 691 1146 691 1181 m 599 1127 q 596 1173 599 1155 q 583 1200 592 1190 q 556 1213 573 1209 q 510 1216 538 1216 q 492 1216 503 1216 q 470 1214 481 1215 q 448 1211 458 1214 q 432 1205 438 1209 q 422 1190 425 1201 q 416 1167 419 1180 q 413 1141 413 1154 q 412 1121 412 1128 q 425 1071 412 1081 q 477 1062 438 1062 q 500 1063 484 1062 q 533 1066 516 1064 q 566 1072 550 1068 q 587 1079 581 1075 q 598 1101 596 1086 q 599 1127 599 1116 "},"ø":{"x_min":55.609375,"x_max":1063.453125,"ha":1126,"o":"m 1063 374 q 1063 354 1063 363 q 1062 333 1063 344 q 1055 271 1060 314 q 1040 181 1049 227 q 1017 94 1030 134 q 987 44 1003 55 q 932 34 979 39 q 818 25 885 29 q 672 18 751 21 q 522 14 594 16 q 398 10 451 12 q 326 9 344 9 l 322 9 l 227 -81 l 55 -50 l 149 43 q 100 97 122 66 q 69 155 78 128 q 62 200 65 169 q 58 264 59 230 q 56 329 56 298 q 55 377 55 360 q 56 448 55 402 q 65 541 58 493 q 84 629 71 588 q 122 686 97 670 q 162 698 132 693 q 233 708 192 704 q 320 714 274 712 q 410 716 366 716 q 492 717 454 717 q 553 716 530 717 q 596 715 569 716 q 657 713 623 714 q 730 710 691 712 q 808 706 769 709 l 900 798 l 1063 732 l 999 671 q 1003 667 1002 668 q 1007 663 1005 666 q 1036 606 1025 644 q 1053 525 1047 568 q 1061 441 1059 482 q 1063 374 1063 400 m 775 345 q 774 391 775 364 q 767 444 773 417 l 473 157 q 510 153 493 154 q 535 153 527 153 q 587 154 557 153 q 647 161 617 155 q 705 175 678 166 q 748 200 732 184 q 763 229 758 210 q 771 269 769 248 q 775 312 774 291 q 775 345 775 333 m 649 546 q 569 554 609 553 q 511 556 530 556 q 477 555 501 556 q 426 552 453 554 q 377 547 400 550 q 347 539 354 543 q 328 516 335 533 q 318 478 321 499 q 314 438 314 458 q 313 405 313 419 q 314 375 313 397 q 318 328 316 354 q 323 274 320 302 q 330 226 326 246 l 649 546 "},"â":{"x_min":42.046875,"x_max":1024.109375,"ha":1100,"o":"m 1024 611 q 1015 385 1024 497 q 999 160 1007 272 q 697 137 847 146 q 394 127 546 127 q 344 128 381 127 q 267 130 307 128 q 189 136 226 132 q 141 146 153 139 q 78 208 96 170 q 61 293 61 245 q 62 336 61 309 q 67 393 63 363 q 78 448 71 423 q 94 486 85 474 q 150 514 107 503 q 254 533 193 526 q 384 543 314 539 q 518 550 454 548 q 632 552 581 552 q 704 552 682 552 q 708 610 708 581 q 708 624 708 613 q 706 638 708 636 q 680 652 702 647 q 627 660 659 657 q 558 665 595 663 q 485 667 520 667 q 423 667 450 667 q 383 667 396 667 q 212 663 298 667 q 42 657 127 660 q 50 762 47 709 q 51 866 54 815 q 250 891 150 884 q 451 899 349 899 q 531 898 488 899 q 618 895 575 897 q 704 889 661 893 q 784 878 747 885 q 859 854 822 872 q 929 811 896 836 q 986 752 961 785 q 1021 680 1010 718 q 1023 667 1022 676 q 1024 646 1024 657 q 1024 625 1024 634 q 1024 611 1024 615 m 721 293 l 721 466 q 642 468 682 467 q 564 469 603 469 q 518 468 556 469 q 438 465 481 467 q 360 458 396 462 q 320 446 325 454 q 311 423 313 435 q 309 400 309 412 q 310 374 309 390 q 315 340 311 358 q 322 307 318 322 q 333 286 326 293 q 352 276 339 279 q 379 270 364 272 q 409 267 394 268 q 432 267 424 267 q 502 269 465 267 q 578 276 539 272 q 653 284 617 279 q 721 293 690 288 m 808 1030 l 680 1025 l 546 1175 l 413 1018 l 271 1014 q 406 1161 338 1088 q 543 1304 473 1234 q 677 1169 612 1238 q 808 1030 741 1101 "},"}":{"x_min":0,"x_max":497.8125,"ha":539,"o":"m 497 420 q 434 406 466 416 q 375 378 401 396 q 332 334 348 360 q 316 272 316 307 q 325 193 316 233 q 335 115 335 154 q 316 29 335 65 q 257 -36 297 -5 q 141 -99 206 -77 q 9 -124 77 -120 l 17 14 q 29 13 23 13 q 40 13 35 13 q 111 29 84 13 q 155 73 139 46 q 179 134 172 100 q 185 206 185 169 q 178 285 185 245 q 170 364 170 325 q 183 410 170 389 q 215 447 196 431 q 257 476 234 463 q 299 496 279 488 q 259 524 279 507 q 223 563 240 542 q 197 608 207 584 q 187 656 187 632 q 191 706 187 682 q 202 751 196 729 q 214 794 208 773 q 219 836 219 815 q 200 904 219 877 q 151 946 181 930 q 86 970 122 963 q 17 979 51 978 l 0 1138 q 77 1131 36 1136 q 158 1115 118 1127 q 233 1085 198 1104 q 295 1039 269 1067 q 328 971 322 1009 q 335 893 335 933 q 328 809 335 850 q 321 727 321 769 q 322 697 321 710 q 333 671 322 683 q 365 643 345 655 q 407 625 385 632 q 453 615 430 618 q 495 610 476 611 l 497 420 "},"‰":{"x_min":13.5625,"x_max":1516.5,"ha":1545,"o":"m 1030 180 q 1018 90 1030 123 q 978 38 1005 56 q 913 14 952 20 q 823 9 874 9 q 779 10 807 9 q 722 17 751 12 q 667 31 693 23 q 630 54 641 39 q 617 82 622 65 q 608 118 611 100 q 604 155 604 137 q 603 185 603 173 q 604 227 603 202 q 610 278 606 252 q 621 326 614 303 q 638 360 628 348 q 676 381 649 373 q 733 394 702 389 q 792 400 763 398 q 835 401 820 401 q 870 400 849 401 q 914 396 892 400 q 956 386 937 393 q 986 368 976 379 q 1006 330 998 355 q 1020 278 1014 306 q 1028 224 1025 250 q 1030 180 1030 198 m 824 979 q 746 825 785 902 q 671 671 708 748 q 634 595 652 633 q 602 518 617 557 q 499 251 550 383 q 398 -14 448 119 l 219 -12 q 298 154 259 71 q 377 321 337 237 q 421 417 400 368 q 463 515 443 466 q 555 748 511 632 q 642 983 599 864 l 824 979 m 442 775 q 440 742 442 762 q 436 701 439 722 q 427 661 434 680 q 413 632 421 642 q 371 607 401 617 q 305 592 341 598 q 236 583 269 585 q 185 580 203 580 q 158 581 174 580 q 123 584 141 581 q 90 592 105 587 q 67 604 75 596 q 44 647 54 619 q 27 704 33 674 q 16 763 20 733 q 13 811 13 792 q 21 878 13 843 q 55 935 28 912 q 94 955 69 948 q 147 967 119 963 q 202 972 176 971 q 246 973 229 973 q 284 972 261 973 q 331 967 307 971 q 375 956 355 963 q 406 938 396 949 q 424 905 417 926 q 435 860 431 884 q 440 814 439 836 q 442 775 442 792 m 918 181 q 916 208 918 193 q 911 238 915 223 q 901 267 907 253 q 887 288 895 280 q 859 303 876 299 q 828 306 843 306 q 779 299 807 306 q 736 278 751 293 q 716 241 721 263 q 712 200 712 219 q 717 150 712 169 q 735 120 722 131 q 769 106 748 109 q 817 103 789 103 q 862 105 843 103 q 893 114 881 107 q 912 137 906 122 q 918 181 918 153 m 333 777 q 328 822 333 796 q 309 864 324 849 q 275 877 298 874 q 237 880 252 880 q 215 879 230 880 q 185 876 200 878 q 155 868 169 873 q 137 857 142 864 q 128 832 130 846 q 126 805 126 817 q 128 777 126 793 q 134 744 130 760 q 146 712 139 727 q 162 690 153 698 q 186 678 173 680 q 214 676 199 676 q 267 685 237 676 q 313 709 297 693 q 329 741 325 721 q 333 777 333 760 m 1516 180 q 1503 90 1516 123 q 1464 38 1490 56 q 1399 14 1437 20 q 1310 9 1360 9 q 1265 10 1294 9 q 1207 17 1237 12 q 1152 31 1178 23 q 1116 54 1127 39 q 1102 82 1108 65 q 1094 118 1097 100 q 1091 155 1091 137 q 1090 185 1090 173 q 1091 227 1090 202 q 1097 278 1093 252 q 1107 326 1101 303 q 1124 360 1113 348 q 1163 381 1136 373 q 1219 394 1189 389 q 1277 400 1249 398 q 1322 401 1306 401 q 1356 400 1334 401 q 1400 396 1378 400 q 1442 386 1422 393 q 1471 368 1462 379 q 1492 330 1483 355 q 1505 278 1500 306 q 1513 224 1511 250 q 1516 180 1516 198 m 1403 181 q 1402 208 1403 193 q 1397 238 1401 223 q 1387 267 1393 253 q 1374 288 1382 280 q 1346 303 1361 299 q 1315 306 1330 306 q 1265 299 1292 306 q 1222 278 1238 293 q 1203 241 1207 263 q 1199 200 1199 219 q 1204 150 1199 169 q 1222 120 1209 131 q 1254 106 1234 109 q 1304 103 1275 103 q 1348 105 1330 103 q 1379 114 1367 107 q 1397 137 1391 122 q 1403 181 1403 153 "},"Ä":{"x_min":104.453125,"x_max":980.703125,"ha":1023,"o":"m 980 4 l 774 -27 q 731 110 752 42 q 689 248 709 179 l 355 236 l 313 55 l 104 55 q 143 514 123 286 q 183 971 164 741 q 377 998 280 987 q 573 1009 474 1009 q 815 1005 694 1009 q 857 723 836 864 q 902 442 878 583 q 937 222 918 330 q 980 4 957 113 m 641 432 q 634 478 640 444 q 622 548 629 511 q 607 616 615 585 q 590 652 598 647 q 577 655 587 653 q 555 657 567 656 q 533 659 543 659 q 518 659 522 659 q 499 659 511 659 q 475 658 488 659 q 451 655 462 657 q 435 648 439 652 q 428 630 432 647 q 418 590 424 614 q 406 539 412 567 q 394 488 400 512 q 385 446 389 463 q 381 425 382 428 l 641 432 m 785 1260 q 775 1211 785 1234 q 747 1172 764 1189 q 707 1146 729 1155 q 659 1136 684 1136 q 614 1144 636 1136 q 575 1167 592 1152 q 546 1201 557 1181 q 535 1245 535 1222 q 545 1298 535 1273 q 574 1343 556 1323 q 617 1374 592 1363 q 672 1384 642 1384 q 718 1374 697 1384 q 754 1345 739 1363 q 777 1305 769 1327 q 785 1260 785 1283 m 458 1262 q 421 1175 458 1211 q 332 1140 383 1140 q 288 1148 310 1140 q 249 1171 267 1156 q 221 1205 231 1185 q 210 1247 210 1224 q 221 1302 210 1276 q 250 1347 231 1327 q 293 1378 268 1367 q 347 1388 318 1388 q 391 1378 371 1388 q 427 1349 412 1367 q 450 1308 442 1331 q 458 1262 458 1285 "},"¸":{"x_min":488.328125,"x_max":809.796875,"ha":1298,"o":"m 809 -278 q 806 -316 809 -294 q 795 -360 803 -339 q 777 -400 788 -382 q 751 -427 766 -419 q 703 -442 736 -435 q 631 -457 670 -450 q 556 -468 592 -463 q 500 -476 520 -473 l 495 -349 q 530 -343 504 -348 q 583 -333 556 -339 q 635 -322 611 -328 q 664 -313 659 -317 q 684 -295 679 -306 q 689 -269 689 -284 q 659 -214 689 -233 q 629 -208 652 -210 q 578 -205 606 -206 q 524 -205 550 -204 q 488 -206 499 -206 l 488 -82 q 489 -35 488 -59 q 491 10 489 -12 l 648 43 l 648 -124 q 710 -137 683 -128 q 757 -161 737 -146 q 790 -201 777 -176 q 808 -263 803 -226 q 809 -270 808 -267 q 809 -278 809 -274 "},"a":{"x_min":42.046875,"x_max":1024.109375,"ha":1100,"o":"m 1024 611 q 1015 385 1024 497 q 999 160 1007 272 q 697 137 847 146 q 394 127 546 127 q 344 128 381 127 q 267 130 307 128 q 189 136 226 132 q 141 146 153 139 q 78 208 96 170 q 61 293 61 245 q 62 336 61 309 q 67 393 63 363 q 78 448 71 423 q 94 486 85 474 q 150 514 107 503 q 254 533 193 526 q 384 543 314 539 q 518 550 454 548 q 632 552 581 552 q 704 552 682 552 q 708 610 708 581 q 708 624 708 613 q 706 638 708 636 q 680 652 702 647 q 627 660 659 657 q 558 665 595 663 q 485 667 520 667 q 423 667 450 667 q 383 667 396 667 q 212 663 298 667 q 42 657 127 660 q 50 762 47 709 q 51 866 54 815 q 250 891 150 884 q 451 899 349 899 q 531 898 488 899 q 618 895 575 897 q 704 889 661 893 q 784 878 747 885 q 859 854 822 872 q 929 811 896 836 q 986 752 961 785 q 1021 680 1010 718 q 1023 667 1022 676 q 1024 646 1024 657 q 1024 625 1024 634 q 1024 611 1024 615 m 721 293 l 721 466 q 642 468 682 467 q 564 469 603 469 q 518 468 556 469 q 438 465 481 467 q 360 458 396 462 q 320 446 325 454 q 311 423 313 435 q 309 400 309 412 q 310 374 309 390 q 315 340 311 358 q 322 307 318 322 q 333 286 326 293 q 352 276 339 279 q 379 270 364 272 q 409 267 394 268 q 432 267 424 267 q 502 269 465 267 q 578 276 539 272 q 653 284 617 279 q 721 293 690 288 "},"—":{"x_min":42.046875,"x_max":827.4375,"ha":869,"o":"m 827 431 l 42 431 l 47 541 q 299 545 170 545 l 816 545 l 827 431 "},"=":{"x_min":42.046875,"x_max":573.78125,"ha":616,"o":"m 564 526 l 42 526 l 47 636 q 299 640 170 640 l 553 640 l 564 526 m 573 430 l 569 321 q 316 314 442 314 q 62 311 189 313 l 51 425 l 573 430 "},"N":{"x_min":104.453125,"x_max":1154.328125,"ha":1266,"o":"m 1154 436 q 1153 201 1154 317 q 1151 -33 1152 85 q 984 -29 1067 -29 q 902 -33 944 -29 q 820 -44 861 -37 q 717 178 769 67 q 614 401 666 288 q 542 566 576 484 q 474 733 508 649 q 449 369 462 550 q 428 5 436 188 l 135 13 q 123 531 128 274 q 104 1049 118 789 l 634 1052 q 685 916 661 984 q 731 777 709 847 q 801 564 762 670 q 880 354 841 459 q 874 691 878 523 q 866 1030 869 859 l 1140 998 q 1150 717 1146 857 q 1154 436 1154 577 "},"˚":{"x_min":450.34375,"x_max":847.78125,"ha":1298,"o":"m 847 979 q 830 910 847 940 q 784 861 812 881 q 720 830 755 841 q 651 820 685 820 q 589 829 623 820 q 524 855 554 838 q 472 897 493 872 q 450 953 450 922 q 451 964 450 961 q 478 1030 458 1001 q 528 1079 499 1059 q 592 1109 557 1098 q 663 1120 626 1120 q 727 1111 694 1120 q 786 1085 759 1102 q 830 1042 813 1068 q 847 979 847 1015 m 755 961 q 752 1007 755 990 q 738 1034 748 1025 q 711 1046 728 1043 q 666 1049 694 1049 q 648 1049 659 1049 q 626 1047 637 1048 q 604 1045 614 1047 q 588 1039 594 1043 q 577 1024 581 1034 q 571 1000 573 1013 q 568 975 569 987 q 567 956 567 963 q 579 905 567 915 q 632 895 592 895 q 656 896 640 895 q 689 900 672 897 q 721 905 706 902 q 741 912 736 908 q 753 935 751 919 q 755 961 755 950 "},"ú":{"x_min":62.390625,"x_max":984.78125,"ha":1062,"o":"m 984 69 l 755 59 l 739 196 q 677 137 713 161 q 600 97 641 112 q 514 76 558 82 q 428 70 470 70 q 347 75 396 70 q 250 91 299 81 q 158 118 200 101 q 97 155 116 134 q 75 208 82 172 q 65 284 67 244 q 62 363 62 325 q 62 424 62 401 q 70 625 62 526 q 93 822 78 724 q 174 826 131 826 q 245 821 210 826 q 316 809 280 816 q 317 770 316 803 q 320 693 318 737 q 325 597 322 648 q 331 503 328 546 q 339 429 335 459 q 349 396 344 398 q 394 382 370 383 q 442 381 419 381 q 493 383 458 381 q 564 389 527 385 q 632 402 600 394 q 674 420 663 409 q 680 446 678 424 q 682 493 682 467 q 684 541 683 519 q 685 568 685 564 q 682 689 685 629 q 676 809 679 748 l 940 822 q 954 632 948 727 q 972 443 961 538 q 977 379 976 412 q 979 314 978 347 q 982 192 982 253 q 984 69 983 131 m 751 1050 q 687 998 717 1021 q 625 954 656 974 q 561 914 594 933 q 488 873 527 895 l 438 949 q 485 998 462 974 q 529 1050 507 1023 q 590 1119 557 1086 q 655 1184 622 1152 l 751 1050 "},"⁄":{"x_min":55.609375,"x_max":660.59375,"ha":716,"o":"m 660 986 q 582 832 621 908 q 507 678 543 756 q 471 602 488 640 q 439 524 454 564 q 337 258 387 390 q 234 -9 286 126 l 55 -5 q 134 161 94 78 q 212 328 173 244 q 257 424 236 375 q 299 522 279 473 q 391 754 347 638 q 478 988 435 870 l 660 986 "},"2":{"x_min":62.390625,"x_max":847.78125,"ha":903,"o":"m 847 324 q 843 161 845 242 q 838 -1 842 80 l 128 -27 q 113 178 122 75 q 96 385 104 280 q 207 430 150 405 q 318 486 264 455 q 423 554 373 518 q 512 634 473 591 q 548 680 533 657 q 564 733 564 702 q 535 830 564 807 q 442 854 505 854 q 387 853 415 854 q 335 849 359 853 q 286 823 295 842 q 278 767 278 804 q 278 744 278 756 q 280 720 279 732 l 70 691 q 62 812 62 752 q 64 855 62 827 q 72 914 66 884 q 88 969 78 944 q 113 1005 97 995 q 191 1030 138 1020 q 304 1047 244 1041 q 420 1056 364 1053 q 505 1059 476 1059 q 602 1056 557 1059 q 685 1039 648 1053 q 750 993 722 1025 q 790 904 777 961 q 798 840 797 873 q 800 777 800 808 q 799 744 800 765 q 797 702 798 724 q 792 661 796 680 q 782 630 788 642 q 750 592 774 615 q 698 544 727 568 q 642 499 670 520 q 600 467 615 478 q 552 437 577 451 q 504 408 527 423 q 414 357 459 382 q 322 307 368 332 q 847 324 584 311 "},"ü":{"x_min":62.390625,"x_max":984.78125,"ha":1062,"o":"m 984 69 l 755 59 l 739 196 q 677 137 713 161 q 600 97 641 112 q 514 76 558 82 q 428 70 470 70 q 347 75 396 70 q 250 91 299 81 q 158 118 200 101 q 97 155 116 134 q 75 208 82 172 q 65 284 67 244 q 62 363 62 325 q 62 424 62 401 q 70 625 62 526 q 93 822 78 724 q 174 826 131 826 q 245 821 210 826 q 316 809 280 816 q 317 770 316 803 q 320 693 318 737 q 325 597 322 648 q 331 503 328 546 q 339 429 335 459 q 349 396 344 398 q 394 382 370 383 q 442 381 419 381 q 493 383 458 381 q 564 389 527 385 q 632 402 600 394 q 674 420 663 409 q 680 446 678 424 q 682 493 682 467 q 684 541 683 519 q 685 568 685 564 q 682 689 685 629 q 676 809 679 748 l 940 822 q 954 632 948 727 q 972 443 961 538 q 977 379 976 412 q 979 314 978 347 q 982 192 982 253 q 984 69 983 131 m 800 1080 q 790 1031 800 1054 q 762 992 779 1009 q 722 966 744 975 q 674 956 699 956 q 629 964 651 956 q 590 987 607 972 q 561 1021 572 1001 q 550 1065 550 1042 q 560 1118 550 1093 q 589 1163 571 1143 q 632 1194 607 1183 q 687 1204 657 1204 q 733 1194 712 1204 q 769 1165 754 1183 q 792 1125 784 1147 q 800 1080 800 1103 m 473 1082 q 436 995 473 1031 q 347 960 398 960 q 303 968 325 960 q 264 991 282 976 q 236 1025 246 1005 q 225 1067 225 1044 q 236 1122 225 1096 q 265 1167 246 1147 q 308 1198 283 1187 q 362 1208 333 1208 q 406 1198 386 1208 q 442 1169 427 1187 q 465 1128 457 1151 q 473 1082 473 1105 "},"¯":{"x_min":387.9375,"x_max":910.171875,"ha":1298,"o":"m 910 973 l 387 973 l 393 1083 q 647 1087 519 1087 l 899 1087 l 910 973 "},"Z":{"x_min":62.390625,"x_max":991.5625,"ha":1061,"o":"m 991 674 q 856 564 925 617 q 714 463 788 511 l 386 245 q 673 257 530 250 q 961 264 816 264 l 957 40 q 575 8 766 17 q 338 -6 455 1 q 104 -24 221 -14 q 92 105 96 40 q 73 234 88 169 q 377 518 225 378 q 689 794 529 657 q 541 794 614 793 q 396 794 469 794 q 234 791 314 794 q 73 784 154 788 l 62 994 l 531 994 q 744 992 638 994 q 957 987 850 990 q 978 830 972 908 q 991 674 983 752 "},"u":{"x_min":62.390625,"x_max":984.78125,"ha":1062,"o":"m 984 69 l 755 59 l 739 196 q 677 137 713 161 q 600 97 641 112 q 514 76 558 82 q 428 70 470 70 q 347 75 396 70 q 250 91 299 81 q 158 118 200 101 q 97 155 116 134 q 75 208 82 172 q 65 284 67 244 q 62 363 62 325 q 62 424 62 401 q 70 625 62 526 q 93 822 78 724 q 174 826 131 826 q 245 821 210 826 q 316 809 280 816 q 317 770 316 803 q 320 693 318 737 q 325 597 322 648 q 331 503 328 546 q 339 429 335 459 q 349 396 344 398 q 394 382 370 383 q 442 381 419 381 q 493 383 458 381 q 564 389 527 385 q 632 402 600 394 q 674 420 663 409 q 680 446 678 424 q 682 493 682 467 q 684 541 683 519 q 685 568 685 564 q 682 689 685 629 q 676 809 679 748 l 940 822 q 954 632 948 727 q 972 443 961 538 q 977 379 976 412 q 979 314 978 347 q 982 192 982 253 q 984 69 983 131 "},"˜":{"x_min":344.53125,"x_max":953.578125,"ha":1298,"o":"m 953 1011 q 910 982 938 1001 q 851 946 881 964 q 791 916 820 929 q 744 903 762 903 q 699 917 724 903 q 648 948 674 931 q 598 980 622 965 q 557 994 575 994 q 523 984 542 994 q 485 959 504 973 q 450 928 466 944 q 424 903 434 912 l 344 991 q 385 1019 356 999 q 444 1059 413 1039 q 504 1095 476 1079 q 543 1110 533 1110 q 588 1098 562 1110 q 642 1070 614 1085 q 696 1042 670 1055 q 741 1029 722 1029 q 773 1037 755 1029 q 810 1056 792 1045 q 845 1080 828 1067 q 872 1101 861 1093 l 953 1011 "},"Ó":{"x_min":82.75,"x_max":1214.015625,"ha":1297,"o":"m 1214 579 q 1214 544 1214 561 q 1212 511 1214 527 q 1209 463 1211 497 q 1203 385 1207 430 q 1195 292 1200 341 q 1184 202 1190 244 q 1171 131 1178 161 q 1158 94 1165 101 q 1061 34 1117 54 q 944 8 1005 14 q 822 2 883 1 q 708 4 760 4 q 648 4 690 4 q 552 6 606 5 q 440 11 499 8 q 331 21 382 14 q 243 35 280 27 q 196 58 206 44 q 177 90 185 73 q 162 124 169 108 q 130 220 145 169 q 105 324 115 271 q 88 431 94 378 q 82 531 82 484 q 86 598 82 557 q 97 688 90 640 q 113 786 104 736 q 134 880 123 836 q 160 955 146 923 q 189 998 173 987 q 240 1015 203 1007 q 325 1030 276 1024 q 429 1041 374 1036 q 535 1049 485 1045 q 626 1053 585 1052 q 686 1055 667 1055 q 756 1052 712 1055 q 851 1043 800 1049 q 956 1028 903 1037 q 1054 1007 1009 1020 q 1132 980 1100 995 q 1173 948 1165 965 q 1186 905 1180 933 q 1196 842 1192 877 q 1203 767 1200 807 q 1209 692 1207 728 q 1212 626 1211 656 q 1214 579 1214 596 m 971 534 q 968 592 971 561 q 950 645 965 622 q 898 671 940 661 q 807 685 857 680 q 712 689 758 689 q 647 690 666 690 q 594 687 632 690 q 516 678 557 685 q 439 663 474 672 q 396 642 404 655 q 383 607 387 633 q 375 550 378 580 q 370 491 371 519 q 368 451 368 463 q 369 419 368 440 q 373 374 370 397 q 379 330 375 351 q 389 301 382 310 q 413 288 393 294 q 463 278 434 283 q 524 271 492 274 q 588 266 557 268 q 642 263 618 264 q 675 263 666 263 q 731 265 691 263 q 815 274 771 268 q 897 289 859 280 q 945 310 934 298 q 959 350 953 320 q 967 417 964 381 q 970 486 969 453 q 971 534 971 519 m 903 1328 q 839 1276 869 1299 q 777 1232 808 1252 q 713 1192 746 1211 q 640 1151 679 1173 l 590 1227 q 637 1276 614 1252 q 681 1328 659 1301 q 742 1397 709 1364 q 807 1462 774 1430 l 903 1328 "},"k":{"x_min":55.609375,"x_max":984.78125,"ha":936,"o":"m 984 747 l 636 495 q 652 442 640 478 q 679 368 664 406 q 711 296 694 329 q 743 253 728 263 q 767 242 752 246 q 798 236 782 238 q 829 232 813 233 q 855 231 845 231 q 895 233 874 231 q 934 237 915 234 q 930 201 931 219 q 929 164 929 183 q 930 99 929 131 q 931 35 931 66 q 898 31 922 33 q 844 27 874 29 q 779 23 813 25 q 716 18 746 20 q 666 16 687 16 q 640 18 645 16 q 595 42 617 29 q 558 75 573 54 q 536 127 552 85 q 503 219 520 169 q 472 313 486 269 q 454 368 458 356 l 324 284 l 324 48 l 55 25 q 73 403 63 215 q 82 782 82 591 q 82 897 82 841 q 80 1014 81 954 q 190 1001 135 1003 q 301 992 245 998 l 301 485 q 507 618 406 550 q 704 767 609 686 q 844 755 775 759 q 984 747 912 751 "},"ˇ":{"x_min":381.15625,"x_max":918.3125,"ha":1298,"o":"m 918 1135 q 787 996 851 1066 q 653 861 722 927 q 516 1005 583 933 q 381 1151 448 1078 l 523 1148 l 656 991 l 790 1142 l 918 1135 "},"Ù":{"x_min":104.453125,"x_max":1109.578125,"ha":1207,"o":"m 1109 447 q 1106 294 1109 370 q 1091 141 1102 218 q 1048 110 1070 124 q 1003 80 1026 96 q 962 52 984 67 q 915 21 940 36 q 866 -4 891 6 q 819 -20 841 -16 q 765 -25 798 -25 q 708 -24 731 -24 q 594 -28 651 -27 q 477 -29 537 -29 q 415 -30 450 -29 q 351 -24 379 -31 q 324 -11 343 -23 q 281 16 305 0 q 231 53 257 33 q 182 91 206 73 q 141 124 158 109 q 118 143 124 138 q 107 286 111 215 q 104 430 104 358 q 114 706 104 569 q 137 982 124 843 l 416 988 q 397 805 402 902 q 392 618 392 708 q 393 566 392 603 q 398 486 394 529 q 408 409 402 444 q 424 363 415 374 q 445 356 428 359 q 486 349 462 352 q 537 345 510 347 q 588 343 564 344 q 632 342 613 343 q 659 341 651 341 q 682 341 666 341 q 715 342 698 341 q 747 344 732 343 q 767 349 762 345 q 792 402 784 360 q 804 495 800 444 q 808 591 808 545 q 808 657 808 637 q 809 720 808 689 q 809 782 809 751 q 808 908 809 846 q 804 1033 807 969 q 860 1030 832 1030 q 916 1029 888 1029 q 984 1030 950 1029 q 1049 1039 1017 1032 q 1093 745 1078 893 q 1109 447 1109 596 m 709 1157 l 660 1081 q 588 1122 621 1103 q 523 1162 555 1141 q 461 1206 492 1182 q 396 1258 430 1229 l 494 1392 q 557 1327 525 1360 q 620 1258 590 1294 q 664 1206 641 1231 q 709 1157 686 1182 "},"Ÿ":{"x_min":97.671875,"x_max":1028.1875,"ha":1118,"o":"m 1028 337 q 1013 235 1028 288 q 969 134 998 181 q 900 53 941 88 q 807 8 858 18 q 758 1 786 4 q 701 -2 731 -1 q 642 -5 671 -4 q 592 -6 613 -6 q 359 -12 476 -12 q 124 -13 242 -13 q 114 96 119 42 q 101 207 109 150 q 288 216 195 211 q 474 227 381 221 q 520 229 495 229 q 571 230 545 229 q 623 233 598 231 q 667 240 648 236 q 687 244 675 241 q 708 254 698 248 q 724 268 717 260 q 731 288 731 276 q 725 352 731 317 q 716 413 718 386 q 512 395 614 404 q 306 386 409 386 q 193 426 236 386 q 132 531 151 466 q 125 567 128 546 q 120 611 122 588 q 116 655 118 633 q 113 691 115 676 q 103 868 107 781 q 97 1044 100 954 q 228 1032 162 1037 q 359 1022 294 1026 q 362 887 359 959 q 379 755 366 816 q 405 699 386 722 q 451 659 424 675 q 507 636 477 644 q 569 629 538 629 q 642 636 606 629 q 713 655 679 644 q 704 855 708 756 q 691 1055 701 954 q 773 1058 732 1056 q 854 1060 813 1060 q 983 1048 918 1060 q 985 931 983 990 q 990 815 987 873 q 994 760 992 788 q 998 705 996 732 q 1015 521 1003 613 q 1028 337 1028 430 m 827 1287 q 817 1238 827 1261 q 789 1199 806 1216 q 749 1173 771 1182 q 701 1163 726 1163 q 656 1171 678 1163 q 617 1194 634 1179 q 588 1228 599 1208 q 577 1272 577 1249 q 587 1325 577 1300 q 616 1370 598 1350 q 659 1401 634 1390 q 714 1411 684 1411 q 760 1401 739 1411 q 796 1372 781 1390 q 819 1332 811 1354 q 827 1287 827 1310 m 500 1289 q 463 1202 500 1238 q 374 1167 425 1167 q 330 1175 352 1167 q 291 1198 309 1183 q 263 1232 273 1212 q 252 1274 252 1251 q 263 1329 252 1303 q 292 1374 273 1354 q 335 1405 310 1394 q 389 1415 360 1415 q 433 1405 413 1415 q 469 1376 454 1394 q 492 1335 484 1358 q 500 1289 500 1312 "},"€":{"x_min":27.125,"x_max":1045.8125,"ha":1101,"o":"m 1045 108 q 934 68 986 85 q 831 40 883 51 q 725 22 779 28 q 609 16 671 16 q 541 17 580 16 q 463 24 503 18 q 388 40 424 29 q 329 67 352 50 q 294 109 314 78 q 252 174 274 139 q 214 242 231 210 q 188 291 196 275 l 40 295 l 27 421 l 180 425 l 176 514 l 36 510 l 32 628 l 193 636 q 200 687 195 652 q 214 760 206 722 q 233 830 222 797 q 259 876 245 864 q 324 912 282 897 q 415 937 367 927 q 508 951 462 946 q 585 956 554 956 q 694 952 638 956 q 806 939 750 948 q 916 916 862 930 q 1020 885 971 903 l 1006 706 q 948 733 980 722 q 881 749 915 743 q 811 757 846 755 q 746 759 775 759 q 685 758 722 759 q 607 752 648 756 q 531 740 567 748 q 477 718 495 732 q 449 686 461 708 q 435 645 438 664 l 687 640 l 701 548 l 412 527 q 402 486 401 512 q 404 444 404 461 l 756 448 l 762 360 l 428 322 l 428 313 q 440 271 428 294 q 473 242 453 249 q 497 240 480 240 q 518 240 514 240 q 619 243 568 240 q 720 250 670 246 q 876 265 798 257 q 1033 282 954 274 l 1045 108 "},"¢":{"x_min":27.125,"x_max":725.703125,"ha":773,"o":"m 725 218 q 679 211 702 212 q 633 210 656 210 q 560 214 596 210 q 488 223 523 218 l 495 78 l 314 82 l 314 218 q 267 227 303 219 q 191 243 231 234 q 115 263 150 252 q 74 284 81 274 q 53 331 62 303 q 38 389 44 359 q 29 449 32 420 q 27 500 27 478 q 55 659 27 590 q 143 796 84 729 q 184 821 157 811 q 242 838 211 831 q 301 848 272 845 q 349 853 330 851 l 366 944 l 524 944 l 529 830 l 694 822 q 700 773 697 798 q 704 725 704 748 q 700 682 704 704 q 694 638 697 660 q 604 653 652 645 q 506 669 556 661 q 408 681 457 676 q 316 686 359 686 q 299 685 314 686 q 279 682 283 685 q 261 653 268 675 q 250 607 255 632 q 245 558 246 581 q 244 523 244 535 q 244 502 244 515 q 247 476 245 489 q 252 451 249 463 q 263 432 256 439 q 303 409 276 417 q 360 398 329 401 q 419 394 390 394 q 467 393 448 393 q 592 400 530 393 q 716 423 655 408 q 720 320 716 371 q 725 218 725 269 "},"ß":{"x_min":35.265625,"x_max":1319.828125,"ha":1375,"o":"m 1319 278 q 1317 226 1319 256 q 1306 166 1314 196 q 1287 110 1299 137 q 1257 70 1275 84 q 1190 43 1237 54 q 1092 25 1144 32 q 992 16 1040 18 q 918 13 944 13 q 739 23 828 13 q 560 46 649 33 l 560 305 q 692 286 625 291 q 824 278 759 280 q 902 273 864 275 q 979 271 940 271 q 1011 272 987 271 q 1060 277 1034 274 q 1108 286 1086 280 q 1135 302 1131 293 q 1138 321 1138 313 q 1134 349 1138 330 q 1124 374 1131 367 q 1112 376 1123 375 q 1089 377 1102 377 q 1065 379 1077 378 q 1051 379 1053 379 q 960 381 1009 381 q 862 385 911 382 q 765 392 812 387 q 676 406 717 397 q 628 419 649 412 q 592 436 607 425 q 565 464 576 447 q 550 510 554 481 q 547 533 548 522 q 546 557 546 545 q 550 604 546 577 q 561 656 553 630 q 583 703 569 682 q 618 732 596 724 q 645 738 628 736 q 682 742 663 740 q 717 747 701 744 q 741 754 733 750 q 754 777 754 760 q 753 787 754 781 q 750 796 752 793 q 729 801 747 798 q 690 806 712 804 q 648 809 668 808 q 622 809 628 809 q 525 800 576 809 q 440 756 474 790 q 410 714 424 741 q 396 663 396 686 q 396 655 396 659 q 397 647 397 651 l 463 -21 q 293 -24 378 -18 q 123 -31 208 -29 l 135 417 l 35 412 l 35 448 q 40 542 35 496 q 47 636 44 588 l 143 638 q 145 691 143 660 q 150 754 146 722 q 162 817 154 786 q 180 868 169 847 q 248 958 210 925 q 330 1009 286 991 q 427 1032 375 1026 q 538 1037 480 1037 q 642 1032 587 1037 q 752 1014 697 1026 q 857 981 807 1002 q 944 927 907 960 q 962 900 954 918 q 973 862 969 883 q 980 823 978 842 q 982 792 982 804 q 978 752 982 775 q 967 706 975 729 q 948 663 960 682 q 921 636 937 644 q 889 628 911 632 q 843 623 866 625 q 800 619 820 621 q 778 617 781 618 q 766 598 769 610 q 763 576 763 587 q 769 552 763 561 q 799 545 771 548 q 866 540 827 542 q 952 537 906 538 q 1043 536 999 537 q 1119 534 1086 535 q 1165 531 1152 533 q 1230 515 1200 527 q 1279 472 1260 503 q 1297 428 1289 453 q 1310 377 1304 404 q 1317 325 1315 351 q 1319 278 1319 299 "},"é":{"x_min":34.359375,"x_max":991.5625,"ha":1027,"o":"m 991 503 q 637 487 813 493 q 283 474 461 481 q 282 463 282 469 q 282 453 282 458 q 303 382 282 406 q 355 347 324 358 q 424 336 386 337 q 495 335 462 335 q 676 341 585 335 q 859 354 767 347 l 870 138 q 692 131 781 134 q 514 128 603 128 q 444 129 495 128 q 335 133 393 130 q 227 142 278 137 q 161 157 177 147 q 95 219 119 181 q 59 302 71 257 q 41 394 46 347 q 35 484 36 440 q 34 498 33 491 q 35 512 35 505 q 50 646 35 584 q 108 766 66 708 q 192 834 137 807 q 313 876 248 861 q 443 898 378 892 q 556 904 508 904 q 659 897 598 904 q 780 872 720 889 q 889 826 841 854 q 956 758 938 798 q 962 730 959 750 q 969 685 965 710 q 977 632 973 660 q 983 577 980 603 q 988 531 986 552 q 991 503 990 511 m 807 602 q 776 696 798 661 q 720 748 754 731 q 644 769 687 765 q 553 774 602 774 q 512 773 537 774 q 463 769 488 773 q 417 759 439 766 q 383 740 396 752 q 368 718 374 732 q 358 687 362 704 q 352 655 354 671 q 349 629 349 640 q 354 587 349 607 l 807 602 m 709 1161 q 645 1109 675 1132 q 583 1065 614 1085 q 519 1025 552 1044 q 446 984 485 1006 l 396 1060 q 443 1109 420 1085 q 487 1161 465 1134 q 548 1230 515 1197 q 613 1295 580 1263 l 709 1161 "},"s":{"x_min":42.046875,"x_max":822,"ha":884,"o":"m 822 941 l 813 765 q 729 769 771 767 q 645 770 687 770 q 595 769 628 770 q 522 767 562 769 q 440 763 482 766 q 363 758 398 760 q 303 751 328 755 q 274 743 279 747 q 256 702 256 725 q 264 678 256 687 q 294 671 267 674 q 360 666 321 668 q 446 663 400 664 q 536 662 493 663 q 612 660 579 661 q 659 657 645 659 q 741 628 710 651 q 788 570 771 604 q 809 492 804 535 q 813 404 813 448 q 810 352 813 382 q 800 292 807 322 q 780 237 793 263 q 750 196 767 211 q 684 169 729 180 q 586 151 638 158 q 485 142 534 145 q 411 139 436 139 q 231 149 321 139 q 54 172 142 160 l 54 431 q 225 411 139 413 q 398 401 311 408 q 452 399 416 400 q 524 400 488 398 q 591 409 561 402 q 628 428 621 416 q 630 438 630 432 q 630 447 630 443 q 628 475 630 458 q 619 501 626 492 q 610 503 618 503 q 600 504 602 504 q 448 509 524 508 q 295 516 373 510 q 232 522 264 519 q 169 533 200 526 q 122 545 143 538 q 86 562 101 552 q 59 590 70 573 q 44 636 48 607 q 42 654 42 645 q 42 674 42 663 q 44 729 42 698 q 54 792 47 760 q 73 851 62 823 q 104 896 85 878 q 147 916 116 908 q 219 931 179 925 q 306 941 260 937 q 395 947 352 945 q 472 950 438 949 q 524 950 507 950 q 674 948 600 950 q 822 941 748 945 "},"B":{"x_min":42.046875,"x_max":1115,"ha":1184,"o":"m 1115 671 q 1112 628 1115 648 q 1102 585 1109 607 q 1071 541 1094 562 q 1020 502 1048 520 q 961 471 991 484 q 911 451 931 458 q 938 446 918 450 q 981 438 959 443 q 1022 425 1003 432 q 1047 409 1041 417 q 1062 369 1056 393 q 1071 319 1068 345 q 1075 267 1074 293 q 1077 223 1077 242 q 1077 209 1077 217 q 1075 195 1077 202 q 1056 159 1072 181 q 1018 113 1040 137 q 975 71 996 90 q 944 43 954 51 q 914 24 929 32 q 884 9 900 16 q 832 1 872 4 q 747 -3 792 -1 q 663 -6 702 -5 q 610 -6 623 -6 q 396 -3 501 -6 q 181 5 290 0 q 185 197 184 101 q 187 390 187 293 q 180 609 187 500 q 165 826 173 717 l 61 835 q 50 942 54 889 q 42 1047 47 994 q 264 1041 153 1044 q 486 1036 375 1039 q 607 1027 534 1034 q 757 1007 680 1020 q 902 977 834 995 q 1010 938 971 960 q 1060 889 1040 922 q 1091 818 1079 857 q 1109 740 1104 779 q 1115 671 1115 701 m 754 676 q 752 711 754 690 q 747 754 751 732 q 736 794 743 775 q 720 826 729 813 q 705 832 717 830 q 678 836 693 835 q 651 838 664 838 q 633 838 637 838 q 499 830 565 838 q 366 812 432 823 q 381 679 374 746 q 397 546 387 613 q 461 549 413 546 q 562 556 508 552 q 661 566 615 560 q 721 580 708 572 q 749 623 744 595 q 754 676 754 652 m 743 294 q 737 335 743 314 q 716 370 732 356 q 697 377 712 374 q 666 380 682 379 q 634 381 649 381 q 614 382 619 382 q 499 376 556 382 q 385 363 442 370 l 406 191 q 438 192 413 191 q 497 196 463 193 q 567 200 530 198 q 637 207 604 203 q 693 216 670 211 q 721 227 716 221 q 738 259 733 242 q 743 294 743 275 "},"…":{"x_min":55.609375,"x_max":1033.5,"ha":1089,"o":"m 283 50 q 283 32 283 43 q 282 10 283 21 q 278 -10 280 0 q 271 -24 275 -20 q 249 -31 265 -28 q 214 -37 233 -35 q 178 -40 195 -39 q 153 -40 161 -40 q 133 -40 145 -40 q 109 -37 122 -39 q 87 -33 97 -36 q 73 -24 77 -29 q 64 -4 67 -18 q 59 25 61 9 q 56 56 56 42 q 55 80 55 71 q 58 122 55 96 q 73 158 61 147 q 92 164 77 162 q 126 168 108 166 q 162 171 145 170 q 187 172 180 172 q 229 170 202 172 q 268 158 257 168 q 276 137 272 151 q 280 106 279 123 q 282 73 282 89 q 283 50 283 58 m 657 50 q 657 32 657 43 q 656 10 657 21 q 652 -10 654 0 q 645 -24 649 -20 q 623 -31 639 -28 q 588 -37 607 -35 q 552 -40 569 -39 q 527 -40 535 -40 q 507 -40 519 -40 q 483 -37 496 -39 q 461 -33 471 -36 q 447 -24 451 -29 q 438 -4 441 -18 q 433 25 435 9 q 430 56 430 42 q 429 80 429 71 q 432 122 429 96 q 447 158 435 147 q 466 164 451 162 q 500 168 482 166 q 536 171 519 170 q 561 172 554 172 q 603 170 576 172 q 642 158 631 168 q 650 137 646 151 q 654 106 653 123 q 656 73 656 89 q 657 50 657 58 m 1033 50 q 1033 32 1033 43 q 1032 10 1033 21 q 1028 -10 1030 0 q 1021 -24 1025 -20 q 999 -31 1015 -28 q 964 -37 983 -35 q 928 -40 945 -39 q 903 -40 911 -40 q 883 -40 895 -40 q 859 -37 872 -39 q 837 -33 847 -36 q 823 -24 827 -29 q 814 -4 817 -18 q 809 25 811 9 q 806 56 806 42 q 805 80 805 71 q 808 122 805 96 q 823 158 811 147 q 842 164 827 162 q 876 168 858 166 q 912 171 895 170 q 937 172 930 172 q 979 170 952 172 q 1018 158 1007 168 q 1026 137 1022 151 q 1030 106 1029 123 q 1032 73 1032 89 q 1033 50 1033 58 "},"?":{"x_min":13.5625,"x_max":850.484375,"ha":884,"o":"m 850 648 q 850 616 850 638 q 849 568 850 594 q 846 520 847 542 q 841 491 845 499 q 787 438 824 461 q 717 409 750 416 q 682 404 699 405 q 645 401 664 402 q 563 396 604 398 q 481 392 522 394 q 477 311 477 351 q 482 270 477 293 q 495 230 488 248 l 231 225 l 231 558 l 257 557 q 286 556 264 556 q 336 558 307 557 q 396 560 364 558 q 455 564 427 561 q 503 570 482 567 q 529 579 523 573 q 558 620 552 596 q 565 671 565 644 q 516 807 565 759 q 379 854 466 854 q 303 842 348 854 q 212 813 259 830 q 122 777 165 796 q 52 746 78 758 q 32 903 42 824 q 13 1059 23 982 q 197 1064 105 1062 q 382 1067 288 1067 q 449 1067 402 1067 q 548 1065 496 1067 q 647 1060 600 1063 q 712 1051 693 1056 q 781 1015 747 1040 q 830 956 815 990 q 839 900 835 944 q 845 807 843 857 q 849 710 847 756 q 850 648 850 664 m 495 90 q 480 44 495 66 q 442 5 465 23 q 395 -22 420 -12 q 348 -32 370 -32 q 305 -25 328 -32 q 265 -4 283 -17 q 234 27 246 8 q 222 69 222 46 q 238 115 222 94 q 276 151 253 137 q 326 174 299 166 q 377 181 354 181 q 444 164 413 181 q 489 112 474 147 q 495 90 495 103 "},"H":{"x_min":104.453125,"x_max":942.734375,"ha":1054,"o":"m 942 4 l 672 -2 q 668 172 670 85 q 664 347 667 259 l 409 335 q 408 308 408 321 q 408 283 408 295 q 414 132 408 207 q 427 -17 420 56 q 372 -19 400 -18 q 317 -20 344 -20 q 210 -18 264 -20 q 104 -16 157 -16 q 111 233 107 109 q 118 482 115 356 q 121 727 120 606 q 123 969 122 847 l 349 969 q 364 767 360 868 q 377 564 368 666 q 505 565 442 565 q 636 567 569 565 l 649 1006 q 687 1007 668 1007 q 724 1007 705 1007 q 830 1005 778 1007 q 935 992 883 1002 q 941 498 942 744 q 942 4 940 252 "},"î":{"x_min":-47.84375,"x_max":489.3125,"ha":439,"o":"m 355 676 q 344 534 348 604 q 336 393 340 463 q 318 229 330 310 q 288 66 305 147 l 81 44 q 82 130 81 88 q 82 215 82 172 q 78 438 82 326 q 70 660 74 549 q 212 668 142 663 q 355 676 282 674 m 489 851 l 361 846 l 227 996 l 94 839 l -47 835 q 87 982 19 909 q 224 1125 154 1055 q 358 990 293 1059 q 489 851 422 922 "},"c":{"x_min":35.265625,"x_max":944.09375,"ha":979,"o":"m 944 714 q 927 594 944 652 q 871 590 918 592 q 760 585 824 588 q 621 577 695 581 q 484 566 548 572 q 377 555 421 561 q 328 543 333 549 q 295 497 306 524 q 284 443 284 470 q 288 418 284 427 q 299 398 291 409 q 328 392 303 394 q 382 387 352 389 q 438 385 412 386 q 467 385 463 385 q 663 389 565 385 q 858 400 760 393 l 869 166 q 597 145 733 155 q 324 135 461 135 q 304 135 317 135 q 276 136 291 135 q 248 138 261 137 q 229 141 234 139 q 172 159 200 149 q 120 185 145 169 q 78 222 96 200 q 51 275 59 244 q 42 328 46 295 q 37 397 39 362 q 35 466 36 432 q 35 523 35 500 q 36 622 35 576 q 51 707 37 668 q 95 776 65 746 q 183 830 126 807 q 260 847 208 841 q 368 856 311 853 q 476 861 424 859 q 556 862 527 862 q 745 858 651 862 q 934 847 839 854 q 941 780 938 813 q 944 714 944 747 "},"¶":{"x_min":69.171875,"x_max":1190.953125,"ha":1260,"o":"m 1190 1001 q 1169 739 1180 869 q 1151 477 1158 609 q 1138 241 1144 359 q 1123 4 1131 123 l 916 -6 q 917 238 916 116 q 915 482 918 359 q 909 634 912 558 q 900 785 906 709 l 834 788 q 828 657 831 721 q 823 526 826 592 q 815 274 816 398 q 813 21 815 149 q 759 21 786 21 q 705 17 732 20 q 622 9 663 14 q 539 1 581 4 l 531 282 q 487 282 519 282 q 414 282 455 282 q 327 284 373 282 q 242 288 282 286 q 172 297 202 291 q 135 310 143 302 q 102 367 115 330 q 82 446 89 404 q 71 531 74 489 q 69 602 69 573 q 71 657 69 619 q 78 737 73 695 q 90 813 82 778 q 109 864 99 849 q 166 903 126 884 q 255 937 207 922 q 348 961 303 952 q 417 973 393 971 q 804 991 609 990 q 1190 1001 999 992 m 596 796 q 530 798 562 800 q 474 792 503 797 q 428 774 446 788 q 411 750 417 766 q 400 715 404 733 q 396 678 397 697 q 394 647 394 659 q 398 581 393 613 q 427 527 402 550 q 467 510 442 514 q 520 505 493 505 q 585 508 552 505 q 587 556 585 531 q 589 598 588 576 q 590 637 590 621 q 590 684 590 656 q 592 736 591 712 q 596 796 594 765 "},"−":{"x_min":42.046875,"x_max":564.28125,"ha":605,"o":"m 564 431 l 42 431 l 47 541 q 299 545 170 545 l 553 545 l 564 431 "},"•":{"x_min":55.609375,"x_max":337.75,"ha":393,"o":"m 337 462 q 323 409 337 435 q 286 363 309 383 q 236 330 264 343 q 183 317 208 317 q 134 330 157 317 q 93 362 111 343 q 65 407 75 382 q 55 457 55 432 q 69 510 55 486 q 104 552 82 534 q 152 581 126 569 q 204 599 179 592 q 212 600 208 599 q 219 600 215 600 q 265 587 244 600 q 303 553 287 573 q 328 508 318 533 q 337 462 337 484 "},"¥":{"x_min":-55.609375,"x_max":1150.265625,"ha":1081,"o":"m 1150 933 q 1012 828 1085 885 q 884 710 940 770 q 798 616 841 663 q 713 522 755 569 l 709 444 l 902 436 l 906 335 l 713 330 l 717 234 l 849 234 l 845 160 l 717 151 l 727 6 q 569 6 648 6 q 412 2 491 5 l 416 132 l 237 128 l 237 217 l 408 225 l 408 330 l 223 335 l 219 444 l 412 440 l 412 514 q 330 587 371 552 q 245 657 288 622 q 191 706 218 680 q 137 755 164 731 q 40 848 88 801 q -55 942 -8 895 q 74 948 9 945 q 204 950 139 950 q 223 950 212 950 q 244 949 233 949 q 268 948 256 948 q 339 878 306 910 q 392 826 366 851 q 428 794 419 801 q 497 739 462 766 q 565 685 531 712 q 634 741 598 710 q 706 805 671 771 q 773 872 741 838 q 827 942 804 907 l 1150 933 "},"(":{"x_min":82.75,"x_max":462.546875,"ha":476,"o":"m 462 -111 q 326 10 394 -63 q 204 173 259 85 q 116 356 150 261 q 82 539 82 451 q 104 707 82 623 q 163 869 126 790 q 250 1020 200 948 q 355 1152 299 1091 l 389 1051 q 322 956 348 1010 q 280 844 295 903 q 259 725 265 785 q 253 610 253 664 q 266 453 253 541 q 305 279 279 366 q 369 116 330 192 q 458 -4 408 40 l 462 -111 "},"U":{"x_min":104.453125,"x_max":1109.578125,"ha":1207,"o":"m 1109 447 q 1106 294 1109 370 q 1091 141 1102 218 q 1048 110 1070 124 q 1003 80 1026 96 q 962 52 984 67 q 915 21 940 36 q 866 -4 891 6 q 819 -20 841 -16 q 765 -25 798 -25 q 708 -24 731 -24 q 594 -28 651 -27 q 477 -29 537 -29 q 415 -30 450 -29 q 351 -24 379 -31 q 324 -11 343 -23 q 281 16 305 0 q 231 53 257 33 q 182 91 206 73 q 141 124 158 109 q 118 143 124 138 q 107 286 111 215 q 104 430 104 358 q 114 706 104 569 q 137 982 124 843 l 416 988 q 397 805 402 902 q 392 618 392 708 q 393 566 392 603 q 398 486 394 529 q 408 409 402 444 q 424 363 415 374 q 445 356 428 359 q 486 349 462 352 q 537 345 510 347 q 588 343 564 344 q 632 342 613 343 q 659 341 651 341 q 682 341 666 341 q 715 342 698 341 q 747 344 732 343 q 767 349 762 345 q 792 402 784 360 q 804 495 800 444 q 808 591 808 545 q 808 657 808 637 q 809 720 808 689 q 809 782 809 751 q 808 908 809 846 q 804 1033 807 969 q 860 1030 832 1030 q 916 1029 888 1029 q 984 1030 950 1029 q 1049 1039 1017 1032 q 1093 745 1078 893 q 1109 447 1109 596 "},"Ñ":{"x_min":104.453125,"x_max":1154.328125,"ha":1266,"o":"m 1154 436 q 1153 201 1154 317 q 1151 -33 1152 85 q 984 -29 1067 -29 q 902 -33 944 -29 q 820 -44 861 -37 q 717 178 769 67 q 614 401 666 288 q 542 566 576 484 q 474 733 508 649 q 449 369 462 550 q 428 5 436 188 l 135 13 q 123 531 128 274 q 104 1049 118 789 l 634 1052 q 685 916 661 984 q 731 777 709 847 q 801 564 762 670 q 880 354 841 459 q 874 691 878 523 q 866 1030 869 859 l 1140 998 q 1150 717 1146 857 q 1154 436 1154 577 m 967 1276 q 924 1247 952 1266 q 865 1211 895 1229 q 805 1181 834 1194 q 758 1168 776 1168 q 713 1182 738 1168 q 662 1213 688 1196 q 612 1245 636 1230 q 571 1259 589 1259 q 537 1249 556 1259 q 499 1224 518 1238 q 464 1193 480 1209 q 438 1168 448 1177 l 358 1256 q 399 1284 370 1264 q 458 1324 427 1304 q 518 1360 490 1344 q 557 1375 547 1375 q 602 1363 576 1375 q 656 1335 628 1350 q 710 1307 684 1320 q 755 1294 736 1294 q 787 1302 769 1294 q 824 1321 806 1310 q 859 1345 842 1332 q 886 1366 875 1358 l 967 1276 "},"F":{"x_min":97.671875,"x_max":865.40625,"ha":914,"o":"m 865 714 q 632 703 747 708 q 401 689 518 699 l 412 572 l 637 557 l 675 421 q 552 400 614 408 q 430 381 491 393 q 448 178 443 279 q 454 -24 454 77 l 97 -36 q 105 278 104 122 q 107 594 107 435 l 107 714 l 107 987 q 262 990 185 988 q 417 992 339 992 q 629 988 523 992 q 842 978 735 983 q 857 847 850 912 q 865 714 865 781 "},"­":{"x_min":42.046875,"x_max":564.28125,"ha":605,"o":"m 564 431 l 42 431 l 47 541 q 299 545 170 545 l 553 545 l 564 431 "},":":{"x_min":55.609375,"x_max":284.859375,"ha":340,"o":"m 283 436 q 283 419 283 430 q 282 396 283 408 q 278 375 280 385 q 271 362 275 366 q 249 354 265 358 q 214 349 233 351 q 178 347 195 348 q 153 347 161 347 q 133 347 145 347 q 109 348 122 347 q 87 353 97 349 q 73 362 77 356 q 64 383 67 368 q 59 413 61 397 q 56 444 56 428 q 55 467 55 459 q 56 486 55 476 q 58 508 56 497 q 63 529 59 519 q 73 543 66 538 q 92 551 77 548 q 126 556 108 554 q 162 558 145 557 q 187 558 180 558 q 229 556 202 558 q 268 543 257 554 q 276 524 272 538 q 280 493 279 510 q 282 460 282 476 q 283 436 283 444 m 284 59 q 284 42 284 52 q 283 21 284 32 q 279 0 282 9 q 272 -13 276 -9 q 250 -21 267 -17 q 215 -26 234 -24 q 179 -29 196 -28 q 154 -29 162 -29 q 136 -29 147 -29 q 112 -27 124 -29 q 89 -23 100 -25 q 74 -13 78 -20 q 67 6 70 -8 q 61 36 63 20 q 58 68 59 52 q 56 92 56 84 q 57 111 56 100 q 59 132 58 122 q 64 153 61 143 q 74 168 67 162 q 94 174 78 172 q 128 179 109 177 q 165 181 147 180 q 189 181 183 181 q 231 180 204 181 q 269 168 259 179 q 277 148 274 162 q 282 117 280 134 q 284 84 283 100 q 284 59 284 67 "},"Û":{"x_min":104.453125,"x_max":1109.578125,"ha":1207,"o":"m 1109 447 q 1106 294 1109 370 q 1091 141 1102 218 q 1048 110 1070 124 q 1003 80 1026 96 q 962 52 984 67 q 915 21 940 36 q 866 -4 891 6 q 819 -20 841 -16 q 765 -25 798 -25 q 708 -24 731 -24 q 594 -28 651 -27 q 477 -29 537 -29 q 415 -30 450 -29 q 351 -24 379 -31 q 324 -11 343 -23 q 281 16 305 0 q 231 53 257 33 q 182 91 206 73 q 141 124 158 109 q 118 143 124 138 q 107 286 111 215 q 104 430 104 358 q 114 706 104 569 q 137 982 124 843 l 416 988 q 397 805 402 902 q 392 618 392 708 q 393 566 392 603 q 398 486 394 529 q 408 409 402 444 q 424 363 415 374 q 445 356 428 359 q 486 349 462 352 q 537 345 510 347 q 588 343 564 344 q 632 342 613 343 q 659 341 651 341 q 682 341 666 341 q 715 342 698 341 q 747 344 732 343 q 767 349 762 345 q 792 402 784 360 q 804 495 800 444 q 808 591 808 545 q 808 657 808 637 q 809 720 808 689 q 809 782 809 751 q 808 908 809 846 q 804 1033 807 969 q 860 1030 832 1030 q 916 1029 888 1029 q 984 1030 950 1029 q 1049 1039 1017 1032 q 1093 745 1078 893 q 1109 447 1109 596 m 850 1155 l 722 1150 l 588 1300 l 455 1143 l 313 1139 q 448 1286 380 1213 q 585 1429 515 1359 q 719 1294 654 1363 q 850 1155 783 1226 "},"*":{"x_min":42.046875,"x_max":687.71875,"ha":730,"o":"m 687 698 q 552 690 618 691 q 416 686 485 689 q 528 602 476 647 q 634 515 580 558 l 467 412 q 435 480 453 440 q 401 556 417 519 q 363 642 382 598 q 299 572 332 607 q 241 504 272 541 q 187 432 210 467 l 59 556 q 174 617 122 588 q 279 691 226 645 q 162 770 222 733 q 42 842 103 807 l 166 953 q 248 853 206 904 q 345 767 291 803 q 368 836 359 807 q 384 895 378 866 q 396 954 390 923 q 409 1024 401 984 q 497 997 454 1011 q 585 975 541 983 q 539 918 560 944 q 501 868 519 892 q 464 816 482 843 q 424 755 446 789 l 659 850 l 687 698 "},"°":{"x_min":20.34375,"x_max":417.78125,"ha":439,"o":"m 417 841 q 400 772 417 801 q 354 722 382 743 q 290 692 325 702 q 221 682 255 682 q 159 691 193 682 q 94 716 124 699 q 42 758 63 733 q 20 815 20 784 q 21 824 20 822 q 48 890 28 861 q 98 940 69 919 q 162 971 127 960 q 233 982 196 982 q 297 973 264 982 q 356 946 329 964 q 400 902 383 929 q 417 841 417 876 m 325 822 q 322 868 325 850 q 308 895 318 885 q 281 908 298 904 q 236 911 264 911 q 218 910 229 911 q 196 908 207 910 q 174 905 184 907 q 158 900 164 903 q 147 885 151 896 q 141 861 143 874 q 138 835 139 847 q 137 816 137 823 q 150 766 137 775 q 203 756 164 756 q 226 757 210 756 q 259 760 242 758 q 291 765 276 762 q 311 773 306 769 q 324 796 322 781 q 325 822 325 811 "},"V":{"x_min":0,"x_max":944.09375,"ha":966,"o":"m 944 1051 q 832 527 889 786 q 713 6 774 268 l 279 0 q 210 292 245 146 q 132 583 176 438 q 68 800 101 693 q 0 1015 35 907 q 95 1006 47 1010 q 191 1002 143 1002 q 211 1002 202 1002 q 231 1005 221 1002 q 344 669 286 834 q 463 336 402 504 q 543 532 504 434 q 621 729 581 630 q 633 763 623 736 q 655 826 642 790 q 682 902 668 862 q 708 976 697 942 q 727 1032 720 1010 q 735 1055 735 1055 q 764 1052 750 1052 q 793 1052 778 1052 q 869 1051 832 1051 q 944 1051 906 1051 "},"å":{"x_min":42.046875,"x_max":1024.109375,"ha":1100,"o":"m 721 293 l 721 466 q 642 468 682 467 q 564 469 603 469 q 518 468 556 469 q 438 465 481 467 q 360 458 396 462 q 320 446 325 454 q 311 423 313 435 q 309 400 309 412 q 310 374 309 390 q 315 340 311 358 q 322 307 318 322 q 333 286 326 293 q 352 276 339 279 q 379 270 364 272 q 409 267 394 268 q 432 267 424 267 q 502 269 465 267 q 578 276 539 272 q 653 284 617 279 q 721 293 690 288 m 722 1034 q 693 948 722 983 q 619 895 663 914 q 705 889 663 892 q 784 878 747 885 q 859 854 822 872 q 929 811 896 836 q 986 752 961 785 q 1021 680 1010 718 q 1023 667 1022 676 q 1024 646 1024 657 q 1024 625 1024 634 q 1024 611 1024 615 q 1015 385 1024 497 q 999 160 1007 272 q 697 137 847 146 q 394 127 546 127 q 344 128 381 127 q 267 130 307 128 q 189 136 226 132 q 141 146 153 139 q 78 208 96 170 q 61 293 61 245 q 62 336 61 309 q 67 393 63 363 q 78 448 71 423 q 94 486 85 474 q 150 514 107 503 q 254 533 193 526 q 384 543 314 539 q 518 550 454 548 q 632 552 581 552 q 704 552 682 552 q 708 610 708 581 q 708 624 708 613 q 706 638 708 636 q 680 652 702 647 q 627 660 659 657 q 558 665 595 663 q 485 667 520 667 q 423 667 450 667 q 383 667 396 667 q 212 663 298 667 q 42 657 127 660 q 50 762 47 709 q 51 866 54 815 q 236 890 143 883 q 423 899 329 897 q 354 944 383 916 q 325 1009 325 971 q 325 1014 325 1011 q 326 1020 325 1017 q 354 1085 333 1056 q 403 1134 374 1115 q 467 1165 432 1154 q 538 1176 501 1176 q 602 1167 569 1176 q 661 1141 634 1158 q 706 1098 689 1124 q 722 1034 722 1071 m 629 1017 q 626 1063 629 1045 q 613 1089 622 1081 q 586 1102 603 1098 q 541 1105 569 1105 q 523 1104 534 1105 q 501 1103 512 1104 q 479 1100 489 1102 q 463 1094 469 1098 q 453 1079 457 1090 q 446 1055 448 1068 q 442 1030 443 1043 q 442 1010 442 1017 q 455 961 442 971 q 507 950 467 950 q 531 952 515 950 q 564 955 548 953 q 596 961 581 957 q 617 968 611 964 q 628 990 626 975 q 629 1017 629 1006 "}," ":{"x_min":0,"x_max":0,"ha":559},"0":{"x_min":69.171875,"x_max":919.671875,"ha":989,"o":"m 919 640 q 919 574 919 615 q 918 482 919 533 q 914 377 916 431 q 906 276 911 324 q 891 191 900 227 q 870 138 883 154 q 833 96 854 119 q 788 53 812 74 q 738 16 763 32 q 689 -6 713 0 q 628 -17 667 -13 q 548 -23 590 -21 q 467 -26 507 -25 q 404 -27 428 -27 q 369 -27 392 -27 q 322 -25 347 -27 q 276 -20 298 -23 q 245 -10 255 -17 q 190 34 215 8 q 146 92 165 61 q 119 157 128 120 q 103 227 109 193 q 90 311 96 265 q 79 404 84 356 q 71 497 74 451 q 69 584 69 543 q 71 657 69 607 q 80 759 74 706 q 96 859 86 812 q 120 923 105 906 q 166 958 135 942 q 237 986 198 973 q 320 1007 276 998 q 406 1022 364 1015 q 484 1030 448 1028 q 541 1033 519 1033 q 592 1032 564 1033 q 650 1029 621 1032 q 706 1021 679 1026 q 755 1006 733 1015 q 797 981 773 998 q 844 944 822 964 q 885 902 866 923 q 910 864 903 880 q 915 824 914 855 q 918 755 916 792 q 919 685 919 718 q 919 640 919 652 m 653 480 q 652 526 653 495 q 649 598 651 558 q 644 681 647 638 q 636 762 641 724 q 626 828 632 800 q 614 865 621 855 q 581 883 603 880 q 542 887 560 887 q 499 884 527 887 q 442 875 472 881 q 386 861 412 869 q 349 842 360 853 q 324 777 333 826 q 311 672 316 729 q 307 562 307 615 q 306 484 306 510 q 307 438 306 469 q 311 369 309 408 q 316 289 313 330 q 324 212 320 248 q 333 151 328 176 q 344 119 337 126 q 360 111 349 113 q 382 107 370 108 q 405 105 394 105 q 423 105 416 105 q 460 107 438 105 q 506 111 482 108 q 551 118 530 113 q 585 128 572 122 q 610 160 599 135 q 628 218 621 184 q 640 290 636 252 q 648 366 645 329 q 652 433 651 402 q 653 480 653 463 "},"”":{"x_min":55.609375,"x_max":670.078125,"ha":726,"o":"m 670 830 q 647 731 670 778 q 598 641 625 685 l 451 641 q 479 674 465 657 q 505 710 493 691 q 525 748 518 728 q 533 790 533 767 q 531 807 533 801 l 404 809 q 387 859 396 827 q 378 912 378 892 q 392 967 378 940 q 423 1018 406 995 l 638 1014 q 661 924 653 971 q 670 830 670 877 m 347 830 q 324 731 347 778 q 276 641 301 685 l 127 641 q 155 674 141 657 q 183 710 170 691 q 202 748 195 728 q 210 792 210 769 l 210 807 l 81 809 q 64 860 73 828 q 55 914 55 892 q 69 969 55 941 q 101 1018 82 996 l 316 1015 q 339 924 330 971 q 347 830 347 877 "},"¾":{"x_min":69.171875,"x_max":1601.96875,"ha":1643,"o":"m 1601 234 l 1498 233 q 1501 129 1498 180 q 1509 24 1504 78 l 1265 17 q 1263 120 1264 69 q 1260 222 1262 170 l 921 218 q 928 359 925 288 q 937 501 931 430 l 1075 508 q 1101 418 1090 463 q 1123 325 1112 373 l 1254 328 q 1258 370 1257 348 q 1260 412 1260 392 q 1258 465 1260 439 q 1256 519 1257 492 q 1298 520 1276 519 q 1340 520 1319 520 q 1425 519 1383 520 q 1509 516 1467 518 l 1511 336 l 1584 337 q 1596 286 1593 313 q 1601 234 1599 260 m 1120 986 q 1042 832 1081 908 q 967 678 1003 756 q 931 602 948 640 q 899 524 914 564 q 796 258 847 390 q 694 -9 746 126 l 515 -5 l 674 328 q 718 424 697 375 q 759 522 739 473 q 851 754 807 638 q 938 988 895 870 l 1120 986 m 727 648 q 718 595 727 625 q 690 550 709 565 q 630 525 671 535 q 539 509 588 515 q 442 500 491 503 q 364 496 394 497 q 277 493 321 493 q 189 493 233 493 q 132 493 161 493 q 73 495 103 493 l 73 587 q 77 651 73 619 l 176 651 q 202 651 180 651 q 256 651 225 651 q 322 651 287 651 q 388 653 358 652 q 440 655 419 653 q 462 657 461 656 q 468 662 466 660 q 470 671 470 664 q 462 694 470 682 q 446 713 454 706 q 423 717 443 716 q 373 720 402 718 q 310 722 344 721 q 246 725 276 724 q 196 725 217 725 q 170 725 174 725 q 168 738 169 732 q 168 751 168 744 l 168 779 l 451 865 q 263 867 358 865 q 73 869 168 869 q 75 900 74 884 q 75 933 75 916 q 69 988 75 959 q 311 997 191 992 q 553 1002 431 1002 l 649 1002 q 650 959 649 980 q 651 915 651 937 q 647 832 651 873 q 549 803 598 817 q 451 773 500 789 q 497 767 463 771 q 570 758 531 763 q 642 746 609 752 q 686 736 675 740 q 720 699 714 722 q 727 648 727 675 "},"@":{"x_min":27.125,"x_max":1120.421875,"ha":1149,"o":"m 1120 491 q 1102 360 1120 420 q 1050 257 1085 301 q 964 187 1015 212 q 846 162 912 162 q 820 164 830 162 q 798 174 811 165 q 777 199 793 179 q 742 244 760 219 q 708 289 724 268 q 687 317 691 310 q 682 297 686 310 q 673 271 678 284 q 663 245 668 257 q 653 227 657 233 q 623 204 642 214 q 583 189 604 195 q 539 180 561 183 q 503 177 518 177 q 436 187 465 177 q 383 227 406 196 q 344 297 360 259 q 320 376 328 336 q 311 444 311 416 q 314 467 311 455 q 324 489 316 478 q 375 514 333 503 q 468 535 417 526 q 566 548 519 543 q 633 553 614 553 q 653 543 644 553 q 670 521 663 534 q 681 495 676 508 q 687 473 686 481 q 693 531 693 500 q 690 580 693 561 q 677 609 687 599 q 649 621 667 618 q 600 625 630 625 q 482 615 541 625 q 364 591 423 604 l 355 751 q 456 761 405 758 q 558 765 507 765 q 615 763 579 765 q 691 754 652 760 q 765 737 731 748 q 813 708 798 725 q 826 664 822 697 q 834 594 831 632 q 837 522 836 556 q 838 474 838 488 q 836 385 838 430 q 832 295 835 340 l 919 287 q 939 310 929 298 q 957 335 949 322 q 973 379 967 349 q 983 441 979 408 q 988 506 987 474 q 990 558 990 538 q 984 632 990 591 q 967 712 979 672 q 937 788 956 752 q 893 849 919 824 q 775 914 839 900 q 638 929 712 929 q 545 921 587 929 q 463 897 503 912 q 387 859 424 883 q 309 805 349 835 q 204 679 240 752 q 168 518 168 606 q 193 354 168 434 q 267 213 218 275 q 387 114 316 151 q 550 77 458 77 q 590 80 567 77 q 638 87 614 82 q 685 101 663 92 q 718 122 706 109 l 845 58 q 784 0 819 21 q 711 -33 750 -21 q 630 -49 672 -46 q 548 -52 588 -52 q 326 -4 423 -52 q 162 124 229 43 q 61 309 96 204 q 27 530 27 415 q 48 667 27 603 q 107 786 70 731 q 195 889 145 842 q 302 975 245 935 q 423 1027 360 1014 q 557 1040 486 1040 q 675 1031 609 1040 q 807 1003 741 1022 q 926 954 872 984 q 1009 880 980 923 q 1050 797 1030 847 q 1085 692 1070 747 q 1110 583 1101 637 q 1120 491 1120 530 m 629 348 q 605 405 629 381 q 548 430 581 430 q 477 403 504 430 q 450 332 450 377 q 474 268 450 295 q 537 241 499 241 q 575 250 558 241 q 604 275 592 260 q 623 309 617 290 q 629 348 629 328 "},"ö":{"x_min":55.609375,"x_max":1063.453125,"ha":1134,"o":"m 1063 537 q 1063 516 1063 526 q 1062 495 1063 505 q 1055 432 1060 476 q 1040 342 1049 389 q 1017 256 1030 295 q 987 206 1003 217 q 932 196 979 200 q 818 188 885 192 q 672 181 751 184 q 522 177 594 179 q 398 173 451 174 q 326 172 344 172 q 299 172 318 172 q 257 172 279 172 q 217 174 236 173 q 189 179 198 176 q 151 201 170 185 q 116 236 132 217 q 87 277 100 256 q 69 317 74 298 q 62 362 65 332 q 58 426 59 393 q 56 491 56 459 q 55 538 55 522 q 56 609 55 564 q 65 702 58 655 q 84 791 71 750 q 122 849 97 832 q 162 861 132 855 q 233 870 192 866 q 320 876 274 874 q 410 879 366 878 q 492 880 454 880 q 553 878 530 880 q 611 876 573 877 q 696 874 649 876 q 793 870 743 873 q 887 861 843 866 q 963 847 930 855 q 1007 826 996 838 q 1036 769 1025 807 q 1053 688 1047 731 q 1061 604 1059 645 q 1063 537 1063 562 m 775 508 q 774 546 775 524 q 770 590 773 568 q 762 634 767 613 q 748 668 756 655 q 706 695 737 686 q 638 710 675 705 q 564 716 600 714 q 511 717 529 717 q 477 716 501 717 q 426 714 453 716 q 377 710 400 713 q 347 702 354 706 q 328 677 335 694 q 318 640 321 660 q 314 600 314 619 q 313 568 313 580 q 315 524 313 556 q 320 456 317 492 q 329 390 324 420 q 343 352 335 360 q 379 335 352 341 q 436 323 405 328 q 495 316 466 318 q 535 314 523 314 q 587 316 557 314 q 647 322 617 317 q 705 337 678 328 q 748 363 732 347 q 763 392 758 373 q 771 432 769 411 q 775 475 774 454 q 775 508 775 496 m 856 1120 q 846 1071 856 1094 q 818 1032 835 1049 q 778 1006 800 1015 q 730 996 755 996 q 685 1004 707 996 q 646 1027 663 1012 q 617 1061 628 1041 q 606 1105 606 1082 q 616 1158 606 1133 q 645 1203 627 1183 q 688 1234 663 1223 q 743 1244 713 1244 q 789 1234 768 1244 q 825 1205 810 1223 q 848 1165 840 1187 q 856 1120 856 1143 m 529 1122 q 492 1035 529 1071 q 403 1000 454 1000 q 359 1008 381 1000 q 320 1031 338 1016 q 292 1065 302 1045 q 281 1107 281 1084 q 292 1162 281 1136 q 321 1207 302 1187 q 364 1238 339 1227 q 418 1248 389 1248 q 462 1238 442 1248 q 498 1209 483 1227 q 521 1168 513 1191 q 529 1122 529 1145 "},"i":{"x_min":35.265625,"x_max":355.390625,"ha":439,"o":"m 299 907 q 288 856 299 880 q 257 815 276 832 q 212 787 237 797 q 164 777 188 777 q 113 789 137 777 q 71 820 89 801 q 44 864 54 839 q 35 915 35 889 q 45 963 35 941 q 72 1002 55 986 q 111 1028 89 1018 q 160 1037 134 1037 q 210 1027 185 1037 q 255 999 236 1017 q 287 956 275 980 q 299 907 299 933 m 355 676 q 344 534 348 604 q 336 393 340 463 q 318 229 330 310 q 288 66 305 147 l 81 44 q 82 130 81 88 q 82 215 82 172 q 78 438 82 326 q 70 660 74 549 q 212 668 142 663 q 355 676 282 674 "},"Õ":{"x_min":82.75,"x_max":1214.015625,"ha":1297,"o":"m 1214 579 q 1214 544 1214 561 q 1212 511 1214 527 q 1209 463 1211 497 q 1203 385 1207 430 q 1195 292 1200 341 q 1184 202 1190 244 q 1171 131 1178 161 q 1158 94 1165 101 q 1061 34 1117 54 q 944 8 1005 14 q 822 2 883 1 q 708 4 760 4 q 648 4 690 4 q 552 6 606 5 q 440 11 499 8 q 331 21 382 14 q 243 35 280 27 q 196 58 206 44 q 177 90 185 73 q 162 124 169 108 q 130 220 145 169 q 105 324 115 271 q 88 431 94 378 q 82 531 82 484 q 86 598 82 557 q 97 688 90 640 q 113 786 104 736 q 134 880 123 836 q 160 955 146 923 q 189 998 173 987 q 240 1015 203 1007 q 325 1030 276 1024 q 429 1041 374 1036 q 535 1049 485 1045 q 626 1053 585 1052 q 686 1055 667 1055 q 756 1052 712 1055 q 851 1043 800 1049 q 956 1028 903 1037 q 1054 1007 1009 1020 q 1132 980 1100 995 q 1173 948 1165 965 q 1186 905 1180 933 q 1196 842 1192 877 q 1203 767 1200 807 q 1209 692 1207 728 q 1212 626 1211 656 q 1214 579 1214 596 m 971 534 q 968 592 971 561 q 950 645 965 622 q 898 671 940 661 q 807 685 857 680 q 712 689 758 689 q 647 690 666 690 q 594 687 632 690 q 516 678 557 685 q 439 663 474 672 q 396 642 404 655 q 383 607 387 633 q 375 550 378 580 q 370 491 371 519 q 368 451 368 463 q 369 419 368 440 q 373 374 370 397 q 379 330 375 351 q 389 301 382 310 q 413 288 393 294 q 463 278 434 283 q 524 271 492 274 q 588 266 557 268 q 642 263 618 264 q 675 263 666 263 q 731 265 691 263 q 815 274 771 268 q 897 289 859 280 q 945 310 934 298 q 959 350 953 320 q 967 417 964 381 q 970 486 969 453 q 971 534 971 519 m 995 1276 q 952 1247 980 1266 q 893 1211 923 1229 q 833 1181 862 1194 q 786 1168 804 1168 q 741 1182 766 1168 q 690 1213 716 1196 q 640 1245 664 1230 q 599 1259 617 1259 q 565 1249 584 1259 q 527 1224 546 1238 q 492 1193 508 1209 q 466 1168 476 1177 l 386 1256 q 427 1284 398 1264 q 486 1324 455 1304 q 546 1360 518 1344 q 585 1375 575 1375 q 630 1363 604 1375 q 684 1335 656 1350 q 738 1307 712 1320 q 783 1294 764 1294 q 815 1302 797 1294 q 852 1321 834 1310 q 887 1345 870 1332 q 914 1366 903 1358 l 995 1276 "},"þ":{"x_min":69.171875,"x_max":1029.546875,"ha":1092,"o":"m 1029 354 q 1028 312 1029 335 q 1024 267 1028 290 q 1015 223 1021 244 q 998 185 1009 202 q 954 128 975 151 q 910 88 934 104 q 857 63 887 73 q 786 48 827 54 q 666 31 725 39 q 545 24 606 24 q 489 27 518 24 q 436 44 461 31 q 407 63 423 51 q 377 87 392 74 q 347 113 362 100 q 322 135 333 126 l 314 -204 q 238 -206 276 -207 q 161 -206 200 -206 q 117 -206 138 -206 q 73 -208 96 -207 q 83 23 78 -92 q 88 255 88 139 l 88 272 q 80 641 88 458 q 69 1010 73 824 q 203 1020 137 1015 q 337 1029 269 1024 l 347 732 q 535 749 440 741 q 724 756 629 756 q 750 757 736 756 q 777 755 765 758 q 843 738 809 748 q 907 712 877 728 q 960 671 937 695 q 995 611 983 647 q 1010 551 1003 584 q 1021 483 1017 518 q 1027 415 1025 448 q 1029 354 1029 382 m 762 379 q 759 413 762 394 q 746 446 756 432 q 678 493 718 477 q 598 510 637 510 q 527 503 565 510 q 451 487 489 497 q 377 465 413 477 q 310 440 340 453 l 322 257 q 430 230 373 242 q 539 218 488 218 q 581 218 553 218 q 640 219 610 218 q 697 225 671 221 q 732 240 724 230 q 744 266 739 248 q 754 305 750 284 q 760 347 758 326 q 762 379 762 367 "},"]":{"x_min":27.125,"x_max":333.6875,"ha":416,"o":"m 333 412 q 326 169 333 290 q 309 -73 320 48 l 37 -55 l 27 65 l 181 92 q 174 292 179 192 q 169 495 170 393 l 164 976 l 33 998 l 27 1109 q 89 1123 56 1116 q 153 1129 122 1129 q 224 1127 188 1129 q 295 1121 260 1124 q 324 687 311 907 q 330 550 326 618 q 333 412 333 481 "},"m":{"x_min":55.609375,"x_max":1351.015625,"ha":1435,"o":"m 1351 343 q 1348 231 1351 286 q 1341 120 1346 176 q 1232 114 1284 118 q 1123 100 1180 111 q 1139 297 1139 198 q 1136 357 1139 314 q 1129 446 1133 400 q 1117 533 1124 493 q 1100 584 1109 572 q 1079 596 1093 592 q 1051 602 1066 600 q 1021 605 1036 604 q 996 606 1006 606 q 958 604 980 606 q 912 600 935 603 q 868 590 889 596 q 834 573 847 583 q 822 545 827 568 q 815 489 817 522 q 810 419 812 457 q 807 347 808 381 q 805 289 805 314 q 805 257 805 264 q 809 78 805 168 q 733 75 770 77 q 656 74 695 74 q 645 74 652 74 q 632 75 638 74 q 615 77 623 75 l 615 176 q 614 263 615 218 q 611 341 613 307 q 607 401 610 364 q 595 472 604 438 q 567 532 585 507 q 516 557 549 557 q 476 552 501 557 q 425 540 451 548 q 376 522 398 533 q 344 501 354 512 q 338 471 341 499 q 332 403 335 443 q 326 316 329 363 q 320 229 322 269 q 316 159 318 188 q 314 124 314 130 q 259 120 287 122 q 204 118 231 118 q 153 119 179 118 q 103 123 127 120 q 83 463 96 295 q 55 804 70 632 q 130 811 93 808 q 206 815 168 815 q 279 813 242 815 q 354 811 316 812 l 336 694 q 456 769 398 744 q 594 793 514 793 q 649 786 625 793 q 692 765 672 778 q 731 735 712 752 q 771 697 750 717 q 828 757 796 735 q 896 792 859 779 q 973 807 933 804 q 1055 811 1014 811 q 1123 809 1087 811 q 1193 797 1159 807 q 1253 769 1226 788 q 1295 717 1280 750 q 1323 630 1313 678 q 1340 533 1334 583 q 1348 434 1346 482 q 1351 343 1351 385 "},"8":{"x_min":90.875,"x_max":892.546875,"ha":977,"o":"m 892 157 q 890 105 892 135 q 877 56 888 75 q 859 31 870 46 q 832 2 847 16 q 803 -23 817 -12 q 775 -37 788 -33 q 753 -40 770 -39 q 711 -42 736 -42 q 655 -43 686 -43 q 595 -43 625 -43 l 435 -43 q 355 -44 394 -44 q 283 -44 321 -44 q 217 -42 245 -44 q 174 -14 193 -40 q 139 44 154 10 q 114 112 124 78 q 100 165 104 146 q 92 211 93 189 q 90 257 90 233 q 92 305 90 278 q 98 359 93 332 q 112 411 103 386 q 138 450 122 435 q 159 461 145 455 q 189 474 173 467 q 220 485 206 480 q 242 493 234 491 q 215 502 231 496 q 183 516 199 508 q 153 535 166 524 q 135 558 139 546 q 122 603 128 577 q 111 657 116 629 q 103 711 105 685 q 100 758 100 737 q 100 798 100 771 q 102 854 100 826 q 107 907 104 883 q 119 942 111 931 q 163 986 139 969 q 213 1011 187 1002 q 269 1022 240 1020 q 329 1026 298 1025 q 428 1028 379 1028 q 527 1029 477 1029 q 569 1029 542 1029 q 623 1029 595 1029 q 678 1028 652 1029 q 716 1024 704 1026 q 764 992 739 1018 q 811 934 789 967 q 849 868 834 902 q 868 813 865 835 q 873 748 873 781 q 873 682 873 714 q 873 659 873 674 q 872 628 873 644 q 870 598 872 613 q 866 577 869 584 q 847 558 864 572 q 809 530 830 545 q 769 502 788 515 q 747 486 751 489 q 779 469 760 480 q 817 444 798 458 q 851 413 836 430 q 870 381 866 397 q 880 329 876 358 q 887 270 884 301 q 891 210 889 240 q 892 157 892 180 m 629 694 q 628 737 629 706 q 622 802 626 769 q 612 864 618 835 q 596 900 606 892 q 581 906 592 904 q 559 909 571 908 q 536 910 548 910 q 519 911 524 911 q 479 910 510 911 q 415 906 448 908 q 352 899 381 903 q 317 889 324 895 q 303 866 309 883 q 292 828 297 849 q 284 788 287 808 q 282 759 282 769 q 283 722 282 748 q 287 670 284 697 q 295 619 290 642 q 306 588 299 595 q 326 578 313 581 q 354 573 339 575 q 382 571 368 571 q 405 571 396 571 q 455 570 424 571 q 516 571 485 569 q 575 580 548 573 q 615 600 603 587 q 622 619 619 606 q 626 646 625 632 q 628 674 628 660 q 629 694 629 687 m 644 294 q 642 324 644 307 q 637 358 641 341 q 626 388 633 374 q 606 411 618 402 q 573 418 596 417 q 535 419 549 419 q 489 417 522 419 q 421 413 457 416 q 354 404 385 409 q 313 390 322 398 q 299 368 305 383 q 288 334 293 352 q 282 298 284 316 q 279 271 279 280 q 283 233 279 259 q 294 182 287 208 q 310 134 301 155 q 332 108 320 113 q 341 106 335 107 q 356 105 348 105 q 371 105 364 105 q 382 105 378 105 q 425 106 392 105 q 496 108 459 107 q 564 112 533 109 q 600 118 595 115 q 619 147 611 123 q 633 200 628 172 q 641 256 638 229 q 644 294 644 283 "},"ž":{"x_min":-13.5625,"x_max":803.015625,"ha":837,"o":"m 803 170 q 428 169 614 170 q 55 164 242 168 l 46 374 q 181 458 113 416 q 314 543 248 500 q 406 608 362 575 q 495 676 451 641 l -10 722 l -13 900 q 248 911 118 907 q 511 915 379 915 q 639 914 576 915 q 767 911 702 914 q 763 830 765 870 q 760 748 760 789 q 763 666 760 708 q 767 584 765 625 l 337 349 q 402 348 370 348 q 466 348 434 348 q 633 350 550 348 q 800 349 716 352 l 803 170 m 670 1302 q 539 1163 603 1233 q 405 1028 474 1094 q 268 1172 335 1100 q 133 1318 200 1245 l 275 1315 l 408 1158 l 542 1309 l 670 1302 "},"R":{"x_min":97.671875,"x_max":1075.65625,"ha":1138,"o":"m 1075 682 q 1007 507 1075 571 q 828 438 940 443 q 1063 -20 963 214 l 667 -29 q 634 172 656 80 q 573 366 613 264 q 484 359 529 363 q 397 352 440 355 l 404 44 q 249 40 326 40 q 172 42 210 40 q 97 47 135 43 q 115 296 107 172 q 124 543 123 420 q 137 983 128 763 q 391 998 264 990 q 645 1006 518 1006 q 716 1005 678 1006 q 792 997 754 1003 q 867 980 831 991 q 931 952 903 969 q 1038 836 1001 908 q 1075 682 1075 763 m 760 704 q 760 733 760 714 q 756 772 759 752 q 748 809 754 792 q 733 834 743 826 q 710 842 727 839 q 676 847 694 845 q 640 849 657 849 q 617 850 623 850 q 510 845 562 850 q 406 831 458 839 l 443 568 q 505 558 473 561 q 569 556 538 556 q 609 557 583 556 q 663 562 636 558 q 715 574 691 567 q 748 594 739 581 q 755 615 752 599 q 758 647 758 630 q 760 680 759 664 q 760 704 760 697 "},"á":{"x_min":42.046875,"x_max":1024.109375,"ha":1100,"o":"m 1024 611 q 1015 385 1024 497 q 999 160 1007 272 q 697 137 847 146 q 394 127 546 127 q 344 128 381 127 q 267 130 307 128 q 189 136 226 132 q 141 146 153 139 q 78 208 96 170 q 61 293 61 245 q 62 336 61 309 q 67 393 63 363 q 78 448 71 423 q 94 486 85 474 q 150 514 107 503 q 254 533 193 526 q 384 543 314 539 q 518 550 454 548 q 632 552 581 552 q 704 552 682 552 q 708 610 708 581 q 708 624 708 613 q 706 638 708 636 q 680 652 702 647 q 627 660 659 657 q 558 665 595 663 q 485 667 520 667 q 423 667 450 667 q 383 667 396 667 q 212 663 298 667 q 42 657 127 660 q 50 762 47 709 q 51 866 54 815 q 250 891 150 884 q 451 899 349 899 q 531 898 488 899 q 618 895 575 897 q 704 889 661 893 q 784 878 747 885 q 859 854 822 872 q 929 811 896 836 q 986 752 961 785 q 1021 680 1010 718 q 1023 667 1022 676 q 1024 646 1024 657 q 1024 625 1024 634 q 1024 611 1024 615 m 721 293 l 721 466 q 642 468 682 467 q 564 469 603 469 q 518 468 556 469 q 438 465 481 467 q 360 458 396 462 q 320 446 325 454 q 311 423 313 435 q 309 400 309 412 q 310 374 309 390 q 315 340 311 358 q 322 307 318 322 q 333 286 326 293 q 352 276 339 279 q 379 270 364 272 q 409 267 394 268 q 432 267 424 267 q 502 269 465 267 q 578 276 539 272 q 653 284 617 279 q 721 293 690 288 m 764 1161 q 700 1109 730 1132 q 638 1065 669 1085 q 574 1025 607 1044 q 501 984 540 1006 l 451 1060 q 498 1109 475 1085 q 542 1161 520 1134 q 603 1230 570 1197 q 668 1295 635 1263 l 764 1161 "},"×":{"x_min":42.046875,"x_max":584.625,"ha":627,"o":"m 584 328 l 496 238 q 404 345 450 293 q 310 450 358 398 q 219 339 263 396 q 131 223 174 282 l 42 298 q 143 408 93 354 q 244 520 193 463 q 149 640 199 583 q 50 755 99 697 l 143 828 q 229 714 185 773 q 273 662 248 687 q 322 614 298 637 q 401 725 364 671 q 477 838 438 778 l 568 758 q 518 703 541 729 q 473 652 495 678 q 430 599 451 626 q 385 541 409 572 q 482 432 432 484 q 584 328 531 381 "},"o":{"x_min":55.609375,"x_max":1063.453125,"ha":1134,"o":"m 1063 537 q 1063 516 1063 526 q 1062 495 1063 505 q 1055 432 1060 476 q 1040 342 1049 389 q 1017 256 1030 295 q 987 206 1003 217 q 932 196 979 200 q 818 188 885 192 q 672 181 751 184 q 522 177 594 179 q 398 173 451 174 q 326 172 344 172 q 299 172 318 172 q 257 172 279 172 q 217 174 236 173 q 189 179 198 176 q 151 201 170 185 q 116 236 132 217 q 87 277 100 256 q 69 317 74 298 q 62 362 65 332 q 58 426 59 393 q 56 491 56 459 q 55 538 55 522 q 56 609 55 564 q 65 702 58 655 q 84 791 71 750 q 122 849 97 832 q 162 861 132 855 q 233 870 192 866 q 320 876 274 874 q 410 879 366 878 q 492 880 454 880 q 553 878 530 880 q 611 876 573 877 q 696 874 649 876 q 793 870 743 873 q 887 861 843 866 q 963 847 930 855 q 1007 826 996 838 q 1036 769 1025 807 q 1053 688 1047 731 q 1061 604 1059 645 q 1063 537 1063 562 m 775 508 q 774 546 775 524 q 770 590 773 568 q 762 634 767 613 q 748 668 756 655 q 706 695 737 686 q 638 710 675 705 q 564 716 600 714 q 511 717 529 717 q 477 716 501 717 q 426 714 453 716 q 377 710 400 713 q 347 702 354 706 q 328 677 335 694 q 318 640 321 660 q 314 600 314 619 q 313 568 313 580 q 315 524 313 556 q 320 456 317 492 q 329 390 324 420 q 343 352 335 360 q 379 335 352 341 q 436 323 405 328 q 495 316 466 318 q 535 314 523 314 q 587 316 557 314 q 647 322 617 317 q 705 337 678 328 q 748 363 732 347 q 763 392 758 373 q 771 432 769 411 q 775 475 774 454 q 775 508 775 496 "},"5":{"x_min":82.75,"x_max":914.25,"ha":956,"o":"m 914 828 q 643 804 778 816 q 371 773 508 792 l 377 604 q 460 601 406 604 q 571 591 514 598 q 680 573 629 584 q 760 545 732 561 q 833 482 808 516 q 868 409 858 448 q 879 325 878 370 q 880 230 880 280 q 880 208 880 222 q 878 179 880 193 q 876 150 877 164 q 870 128 874 137 q 832 79 859 105 q 773 29 805 52 q 707 -10 740 6 q 648 -33 674 -28 q 589 -42 619 -40 q 529 -46 558 -43 q 426 -50 477 -48 q 324 -52 375 -52 q 299 -52 314 -52 q 268 -52 284 -52 q 238 -50 252 -51 q 215 -46 223 -48 q 145 2 172 -31 q 103 78 118 35 q 95 119 99 90 q 89 180 92 147 q 84 242 86 212 q 82 284 82 272 l 396 293 q 389 222 389 255 q 398 187 389 199 q 423 171 408 176 q 458 166 439 166 q 496 166 477 166 q 549 171 527 166 q 585 188 571 176 q 606 222 599 200 q 613 278 613 244 q 603 333 613 305 q 567 371 594 360 q 497 392 538 385 q 413 404 457 400 q 326 408 368 408 q 253 409 283 409 q 187 408 221 409 q 120 406 154 408 l 97 1001 l 192 1001 q 543 1005 370 1001 q 893 1015 717 1010 l 914 828 "},"õ":{"x_min":55.609375,"x_max":1063.453125,"ha":1134,"o":"m 1063 537 q 1063 516 1063 526 q 1062 495 1063 505 q 1055 432 1060 476 q 1040 342 1049 389 q 1017 256 1030 295 q 987 206 1003 217 q 932 196 979 200 q 818 188 885 192 q 672 181 751 184 q 522 177 594 179 q 398 173 451 174 q 326 172 344 172 q 299 172 318 172 q 257 172 279 172 q 217 174 236 173 q 189 179 198 176 q 151 201 170 185 q 116 236 132 217 q 87 277 100 256 q 69 317 74 298 q 62 362 65 332 q 58 426 59 393 q 56 491 56 459 q 55 538 55 522 q 56 609 55 564 q 65 702 58 655 q 84 791 71 750 q 122 849 97 832 q 162 861 132 855 q 233 870 192 866 q 320 876 274 874 q 410 879 366 878 q 492 880 454 880 q 553 878 530 880 q 611 876 573 877 q 696 874 649 876 q 793 870 743 873 q 887 861 843 866 q 963 847 930 855 q 1007 826 996 838 q 1036 769 1025 807 q 1053 688 1047 731 q 1061 604 1059 645 q 1063 537 1063 562 m 775 508 q 774 546 775 524 q 770 590 773 568 q 762 634 767 613 q 748 668 756 655 q 706 695 737 686 q 638 710 675 705 q 564 716 600 714 q 511 717 529 717 q 477 716 501 717 q 426 714 453 716 q 377 710 400 713 q 347 702 354 706 q 328 677 335 694 q 318 640 321 660 q 314 600 314 619 q 313 568 313 580 q 315 524 313 556 q 320 456 317 492 q 329 390 324 420 q 343 352 335 360 q 379 335 352 341 q 436 323 405 328 q 495 316 466 318 q 535 314 523 314 q 587 316 557 314 q 647 322 617 317 q 705 337 678 328 q 748 363 732 347 q 763 392 758 373 q 771 432 769 411 q 775 475 774 454 q 775 508 775 496 m 899 1080 q 856 1051 884 1070 q 797 1015 827 1033 q 737 985 766 998 q 690 972 708 972 q 645 986 670 972 q 594 1017 620 1000 q 544 1049 568 1034 q 503 1063 521 1063 q 469 1053 488 1063 q 431 1028 450 1042 q 396 997 412 1013 q 370 972 380 981 l 290 1060 q 331 1088 302 1068 q 390 1128 359 1108 q 450 1164 422 1148 q 489 1179 479 1179 q 534 1167 508 1179 q 588 1139 560 1154 q 642 1111 616 1124 q 687 1098 668 1098 q 719 1106 701 1098 q 756 1125 738 1114 q 791 1149 774 1136 q 818 1170 807 1162 l 899 1080 "},"7":{"x_min":62.390625,"x_max":807.078125,"ha":814,"o":"m 807 809 q 600 393 709 596 q 385 -14 492 189 l 77 -14 q 172 124 124 54 q 267 268 219 195 q 322 355 294 311 q 377 444 349 398 q 474 633 428 537 q 564 827 520 729 q 536 828 549 828 q 508 828 523 828 q 421 824 469 828 q 337 807 374 820 l 341 687 l 88 674 q 73 830 77 751 q 62 988 69 908 q 423 1007 244 998 q 786 1022 603 1017 l 807 809 "},"K":{"x_min":75.96875,"x_max":1136.703125,"ha":1081,"o":"m 1136 6 q 1007 -21 1071 -8 q 876 -44 942 -33 q 715 198 794 78 q 550 438 636 318 l 405 297 l 392 -4 q 330 -2 360 -2 q 269 -1 299 -1 q 214 -2 241 -1 q 160 -8 187 -4 q 129 240 143 116 q 104 491 115 364 q 87 742 93 617 q 75 994 81 868 q 277 990 177 991 q 478 987 377 990 l 470 672 q 609 827 543 748 q 743 987 674 906 q 874 996 808 991 q 1006 1006 941 1001 l 1001 906 l 713 606 q 921 305 816 453 q 1136 6 1026 157 "},",":{"x_min":55.609375,"x_max":336.40625,"ha":378,"o":"m 336 2 q 318 -88 336 -44 q 276 -172 299 -131 l 127 -172 q 183 -104 155 -139 q 210 -21 210 -69 l 210 -6 l 81 -4 q 64 46 73 14 q 55 99 55 78 q 69 154 55 126 q 101 204 82 183 l 305 187 q 336 2 336 96 "},"d":{"x_min":20.34375,"x_max":999.703125,"ha":1077,"o":"m 999 754 q 999 641 999 697 q 996 529 999 585 q 986 281 994 404 q 968 35 978 158 q 724 21 845 27 q 480 16 603 16 q 428 16 463 16 q 353 18 393 17 q 278 23 313 20 q 226 33 242 27 q 71 136 122 71 q 20 314 20 200 l 20 336 q 28 425 23 386 q 48 497 33 465 q 87 558 62 530 q 155 614 112 585 q 226 648 185 634 q 311 671 267 661 q 398 685 355 680 q 476 689 440 689 q 605 679 541 689 q 733 651 670 670 q 722 828 727 740 q 708 1003 717 915 q 853 1018 781 1010 q 996 1034 925 1026 q 999 894 998 964 q 999 754 999 824 m 792 344 q 792 406 792 375 q 790 469 792 438 q 619 473 705 473 q 568 472 607 473 q 484 470 529 472 q 402 463 440 467 q 354 451 364 458 q 328 409 333 436 q 324 359 324 382 q 325 330 324 348 q 330 292 326 311 q 339 255 333 272 q 351 230 344 238 q 365 223 355 226 q 387 219 375 221 q 411 218 400 218 q 430 218 423 218 q 583 225 507 218 q 736 242 659 231 q 762 246 747 245 q 789 250 777 246 l 789 253 q 790 256 789 255 q 792 299 793 278 q 792 344 792 321 "},"¨":{"x_min":362.171875,"x_max":937.296875,"ha":1298,"o":"m 937 982 q 927 933 937 956 q 899 894 916 911 q 859 868 881 877 q 811 858 836 858 q 766 866 788 858 q 727 889 744 874 q 698 923 709 903 q 687 967 687 944 q 697 1020 687 995 q 726 1065 708 1045 q 769 1096 744 1085 q 824 1106 794 1106 q 870 1096 849 1106 q 906 1067 891 1085 q 929 1027 921 1049 q 937 982 937 1005 m 610 984 q 573 897 610 933 q 484 862 535 862 q 440 870 462 862 q 401 893 419 878 q 373 927 383 907 q 362 969 362 946 q 373 1024 362 998 q 402 1069 383 1049 q 445 1100 420 1089 q 499 1110 470 1110 q 543 1100 523 1110 q 579 1071 564 1089 q 602 1030 594 1053 q 610 984 610 1007 "},"Ô":{"x_min":82.75,"x_max":1214.015625,"ha":1297,"o":"m 1214 579 q 1214 544 1214 561 q 1212 511 1214 527 q 1209 463 1211 497 q 1203 385 1207 430 q 1195 292 1200 341 q 1184 202 1190 244 q 1171 131 1178 161 q 1158 94 1165 101 q 1061 34 1117 54 q 944 8 1005 14 q 822 2 883 1 q 708 4 760 4 q 648 4 690 4 q 552 6 606 5 q 440 11 499 8 q 331 21 382 14 q 243 35 280 27 q 196 58 206 44 q 177 90 185 73 q 162 124 169 108 q 130 220 145 169 q 105 324 115 271 q 88 431 94 378 q 82 531 82 484 q 86 598 82 557 q 97 688 90 640 q 113 786 104 736 q 134 880 123 836 q 160 955 146 923 q 189 998 173 987 q 240 1015 203 1007 q 325 1030 276 1024 q 429 1041 374 1036 q 535 1049 485 1045 q 626 1053 585 1052 q 686 1055 667 1055 q 756 1052 712 1055 q 851 1043 800 1049 q 956 1028 903 1037 q 1054 1007 1009 1020 q 1132 980 1100 995 q 1173 948 1165 965 q 1186 905 1180 933 q 1196 842 1192 877 q 1203 767 1200 807 q 1209 692 1207 728 q 1212 626 1211 656 q 1214 579 1214 596 m 971 534 q 968 592 971 561 q 950 645 965 622 q 898 671 940 661 q 807 685 857 680 q 712 689 758 689 q 647 690 666 690 q 594 687 632 690 q 516 678 557 685 q 439 663 474 672 q 396 642 404 655 q 383 607 387 633 q 375 550 378 580 q 370 491 371 519 q 368 451 368 463 q 369 419 368 440 q 373 374 370 397 q 379 330 375 351 q 389 301 382 310 q 413 288 393 294 q 463 278 434 283 q 524 271 492 274 q 588 266 557 268 q 642 263 618 264 q 675 263 666 263 q 731 265 691 263 q 815 274 771 268 q 897 289 859 280 q 945 310 934 298 q 959 350 953 320 q 967 417 964 381 q 970 486 969 453 q 971 534 971 519 m 960 1182 l 832 1177 l 698 1327 l 565 1170 l 423 1166 q 558 1313 490 1240 q 695 1456 625 1386 q 829 1321 764 1390 q 960 1182 893 1253 "},"E":{"x_min":82.75,"x_max":862.703125,"ha":890,"o":"m 862 826 q 598 811 729 819 q 335 793 467 804 l 332 686 l 682 706 q 692 615 689 660 q 695 524 695 571 q 695 485 695 505 q 694 446 694 465 l 368 387 l 389 219 q 594 239 492 226 q 801 261 697 252 q 820 125 811 193 q 847 -8 830 56 q 465 -8 655 -6 q 82 -10 275 -10 q 92 305 86 147 q 97 622 97 462 l 97 648 q 94 832 97 740 q 89 1017 92 923 q 303 1016 196 1015 q 518 1017 409 1017 q 682 1013 600 1017 q 847 1006 765 1010 l 862 826 "},"Y":{"x_min":97.671875,"x_max":1028.1875,"ha":1118,"o":"m 1028 337 q 1013 235 1028 288 q 969 134 998 181 q 900 53 941 88 q 807 8 858 18 q 758 1 786 4 q 701 -2 731 -1 q 642 -5 671 -4 q 592 -6 613 -6 q 359 -12 476 -12 q 124 -13 242 -13 q 114 96 119 42 q 101 207 109 150 q 288 216 195 211 q 474 227 381 221 q 520 229 495 229 q 571 230 545 229 q 623 233 598 231 q 667 240 648 236 q 687 244 675 241 q 708 254 698 248 q 724 268 717 260 q 731 288 731 276 q 725 352 731 317 q 716 413 718 386 q 512 395 614 404 q 306 386 409 386 q 193 426 236 386 q 132 531 151 466 q 125 567 128 546 q 120 611 122 588 q 116 655 118 633 q 113 691 115 676 q 103 868 107 781 q 97 1044 100 954 q 228 1032 162 1037 q 359 1022 294 1026 q 362 887 359 959 q 379 755 366 816 q 405 699 386 722 q 451 659 424 675 q 507 636 477 644 q 569 629 538 629 q 642 636 606 629 q 713 655 679 644 q 704 855 708 756 q 691 1055 701 954 q 773 1058 732 1056 q 854 1060 813 1060 q 983 1048 918 1060 q 985 931 983 990 q 990 815 987 873 q 994 760 992 788 q 998 705 996 732 q 1015 521 1003 613 q 1028 337 1028 430 "},"\"":{"x_min":48.828125,"x_max":534.4375,"ha":576,"o":"m 534 1025 q 516 807 523 915 q 501 590 510 699 l 344 598 q 335 803 341 702 q 325 1007 328 904 l 534 1025 m 257 1007 q 248 803 255 904 q 238 598 241 702 l 81 590 q 67 807 74 699 q 48 1025 59 915 l 257 1007 "},"‹":{"x_min":0,"x_max":348.609375,"ha":391,"o":"m 348 59 l 276 -24 l 0 240 l 337 486 l 332 336 l 151 229 l 348 59 "},"˙":{"x_min":524.9375,"x_max":773.171875,"ha":1298,"o":"m 773 984 q 735 897 773 933 q 647 862 698 862 q 603 870 625 862 q 564 893 581 878 q 535 927 546 907 q 524 969 524 946 q 535 1024 524 998 q 564 1068 546 1049 q 608 1099 583 1087 q 661 1110 633 1110 q 707 1100 686 1110 q 742 1071 728 1089 q 765 1030 756 1053 q 773 984 773 1007 "},"ê":{"x_min":34.359375,"x_max":991.5625,"ha":1027,"o":"m 991 503 q 637 487 813 493 q 283 474 461 481 q 282 463 282 469 q 282 453 282 458 q 303 382 282 406 q 355 347 324 358 q 424 336 386 337 q 495 335 462 335 q 676 341 585 335 q 859 354 767 347 l 870 138 q 692 131 781 134 q 514 128 603 128 q 444 129 495 128 q 335 133 393 130 q 227 142 278 137 q 161 157 177 147 q 95 219 119 181 q 59 302 71 257 q 41 394 46 347 q 35 484 36 440 q 34 498 33 491 q 35 512 35 505 q 50 646 35 584 q 108 766 66 708 q 192 834 137 807 q 313 876 248 861 q 443 898 378 892 q 556 904 508 904 q 659 897 598 904 q 780 872 720 889 q 889 826 841 854 q 956 758 938 798 q 962 730 959 750 q 969 685 965 710 q 977 632 973 660 q 983 577 980 603 q 988 531 986 552 q 991 503 990 511 m 807 602 q 776 696 798 661 q 720 748 754 731 q 644 769 687 765 q 553 774 602 774 q 512 773 537 774 q 463 769 488 773 q 417 759 439 766 q 383 740 396 752 q 368 718 374 732 q 358 687 362 704 q 352 655 354 671 q 349 629 349 640 q 354 587 349 607 l 807 602 m 808 1030 l 680 1025 l 546 1175 l 413 1018 l 271 1014 q 406 1161 338 1088 q 543 1304 473 1234 q 677 1169 612 1238 q 808 1030 741 1101 "},"Ï":{"x_min":35.265625,"x_max":633.296875,"ha":707,"o":"m 623 995 q 618 830 617 912 q 617 667 619 748 l 466 672 q 464 579 465 625 q 463 485 463 533 q 464 373 463 428 q 466 261 465 318 l 604 259 q 602 179 602 219 q 602 97 602 138 q 604 29 602 63 q 613 -36 606 -4 l 126 -44 q 124 86 126 21 q 119 217 123 150 l 207 218 q 191 470 200 345 q 173 721 183 595 l 44 737 q 40 851 42 794 q 35 964 37 907 q 328 977 183 969 q 623 995 474 984 m 633 1260 q 623 1211 633 1234 q 595 1172 612 1189 q 555 1146 577 1155 q 507 1136 532 1136 q 462 1144 484 1136 q 423 1167 440 1152 q 394 1201 405 1181 q 383 1245 383 1222 q 393 1298 383 1273 q 422 1343 404 1323 q 465 1374 440 1363 q 520 1384 490 1384 q 566 1374 545 1384 q 602 1345 587 1363 q 625 1305 617 1327 q 633 1260 633 1283 m 306 1262 q 269 1175 306 1211 q 180 1140 231 1140 q 136 1148 158 1140 q 97 1171 115 1156 q 69 1205 79 1185 q 58 1247 58 1224 q 69 1302 58 1276 q 98 1347 79 1327 q 141 1378 116 1367 q 195 1388 166 1388 q 239 1378 219 1388 q 275 1349 260 1367 q 298 1308 290 1331 q 306 1262 306 1285 "},"„":{"x_min":55.609375,"x_max":670.078125,"ha":726,"o":"m 670 39 q 647 -60 670 -13 q 598 -150 625 -107 l 451 -150 q 479 -117 465 -134 q 505 -82 493 -100 q 525 -44 518 -63 q 533 -1 533 -24 q 531 14 533 9 l 404 17 q 395 40 400 27 q 387 68 390 54 q 381 96 383 82 q 378 120 378 111 q 392 176 378 149 q 423 226 406 203 l 638 222 q 661 132 653 179 q 670 39 670 86 m 347 39 q 324 -59 347 -12 q 276 -150 301 -107 l 127 -150 q 155 -117 141 -134 q 183 -82 170 -100 q 202 -43 195 -63 q 210 0 210 -23 l 210 14 l 81 17 q 64 69 73 36 q 55 122 55 101 q 69 177 55 149 q 101 226 82 204 l 316 223 q 339 132 330 179 q 347 39 347 86 "},"Â":{"x_min":104.453125,"x_max":980.703125,"ha":1023,"o":"m 980 4 l 774 -27 q 731 110 752 42 q 689 248 709 179 l 355 236 l 313 55 l 104 55 q 143 514 123 286 q 183 971 164 741 q 377 998 280 987 q 573 1009 474 1009 q 815 1005 694 1009 q 857 723 836 864 q 902 442 878 583 q 937 222 918 330 q 980 4 957 113 m 641 432 q 634 478 640 444 q 622 548 629 511 q 607 616 615 585 q 590 652 598 647 q 577 655 587 653 q 555 657 567 656 q 533 659 543 659 q 518 659 522 659 q 499 659 511 659 q 475 658 488 659 q 451 655 462 657 q 435 648 439 652 q 428 630 432 647 q 418 590 424 614 q 406 539 412 567 q 394 488 400 512 q 385 446 389 463 q 381 425 382 428 l 641 432 m 766 1169 l 638 1164 l 504 1314 l 371 1157 l 229 1153 q 364 1300 296 1227 q 501 1443 431 1373 q 635 1308 570 1377 q 766 1169 699 1240 "},"Í":{"x_min":35.265625,"x_max":623.96875,"ha":707,"o":"m 623 995 q 618 830 617 912 q 617 667 619 748 l 466 672 q 464 579 465 625 q 463 485 463 533 q 464 373 463 428 q 466 261 465 318 l 604 259 q 602 179 602 219 q 602 97 602 138 q 604 29 602 63 q 613 -36 606 -4 l 126 -44 q 124 86 126 21 q 119 217 123 150 l 207 218 q 191 470 200 345 q 173 721 183 595 l 44 737 q 40 851 42 794 q 35 964 37 907 q 328 977 183 969 q 623 995 474 984 m 557 1272 q 493 1220 523 1243 q 431 1176 462 1196 q 367 1136 400 1155 q 294 1095 333 1117 l 244 1171 q 291 1220 268 1196 q 335 1272 313 1245 q 396 1341 363 1308 q 461 1406 428 1374 l 557 1272 "},"´":{"x_min":492.390625,"x_max":805.734375,"ha":1298,"o":"m 805 1036 q 741 984 771 1007 q 679 940 710 960 q 615 900 648 919 q 542 859 581 881 l 492 935 q 539 984 516 960 q 583 1036 561 1009 q 644 1105 611 1072 q 709 1170 676 1138 l 805 1036 "},"ì":{"x_min":-6.609375,"x_max":355.390625,"ha":439,"o":"m 355 676 q 344 534 348 604 q 336 393 340 463 q 318 229 330 310 q 288 66 305 147 l 81 44 q 82 130 81 88 q 82 215 82 172 q 78 438 82 326 q 70 660 74 549 q 212 668 142 663 q 355 676 282 674 m 306 909 l 257 833 q 185 874 218 855 q 120 914 152 893 q 58 958 89 934 q -6 1010 27 981 l 91 1144 q 154 1079 122 1112 q 217 1010 187 1046 q 261 958 238 983 q 306 909 283 934 "},"±":{"x_min":42.046875,"x_max":693.140625,"ha":735,"o":"m 693 561 l 689 462 q 562 453 623 455 q 436 446 500 450 q 438 303 436 374 q 443 160 440 231 l 313 146 l 313 259 q 312 357 313 306 q 309 443 311 408 l 50 443 l 42 548 q 172 550 107 548 q 303 556 238 553 l 298 815 l 415 816 q 424 689 419 751 q 436 561 430 626 q 499 564 467 562 q 562 565 531 565 q 627 564 594 565 q 693 561 660 562 m 693 -40 l 42 -40 l 47 69 q 364 73 206 74 q 683 73 523 73 l 693 -40 "},"Ú":{"x_min":104.453125,"x_max":1109.578125,"ha":1207,"o":"m 1109 447 q 1106 294 1109 370 q 1091 141 1102 218 q 1048 110 1070 124 q 1003 80 1026 96 q 962 52 984 67 q 915 21 940 36 q 866 -4 891 6 q 819 -20 841 -16 q 765 -25 798 -25 q 708 -24 731 -24 q 594 -28 651 -27 q 477 -29 537 -29 q 415 -30 450 -29 q 351 -24 379 -31 q 324 -11 343 -23 q 281 16 305 0 q 231 53 257 33 q 182 91 206 73 q 141 124 158 109 q 118 143 124 138 q 107 286 111 215 q 104 430 104 358 q 114 706 104 569 q 137 982 124 843 l 416 988 q 397 805 402 902 q 392 618 392 708 q 393 566 392 603 q 398 486 394 529 q 408 409 402 444 q 424 363 415 374 q 445 356 428 359 q 486 349 462 352 q 537 345 510 347 q 588 343 564 344 q 632 342 613 343 q 659 341 651 341 q 682 341 666 341 q 715 342 698 341 q 747 344 732 343 q 767 349 762 345 q 792 402 784 360 q 804 495 800 444 q 808 591 808 545 q 808 657 808 637 q 809 720 808 689 q 809 782 809 751 q 808 908 809 846 q 804 1033 807 969 q 860 1030 832 1030 q 916 1029 888 1029 q 984 1030 950 1029 q 1049 1039 1017 1032 q 1093 745 1078 893 q 1109 447 1109 596 m 847 1245 q 783 1193 813 1216 q 721 1149 752 1169 q 657 1109 690 1128 q 584 1068 623 1090 l 534 1144 q 581 1193 558 1169 q 625 1245 603 1218 q 686 1314 653 1281 q 751 1379 718 1347 l 847 1245 "},"|":{"x_min":69.171875,"x_max":234.671875,"ha":304,"o":"m 234 -31 l 69 -36 q 75 237 71 101 q 82 510 78 373 q 84 578 84 545 q 84 647 84 611 q 75 1028 84 836 l 221 1014 q 212 740 215 876 q 208 467 208 604 q 215 217 208 341 q 234 -31 222 93 "},"§":{"x_min":69.171875,"x_max":883.046875,"ha":952,"o":"m 883 93 q 878 51 883 75 q 868 2 874 27 q 850 -44 861 -23 q 826 -78 839 -66 q 771 -101 812 -92 q 683 -117 731 -111 q 592 -126 636 -123 q 530 -128 549 -128 l 438 -130 q 290 -128 364 -131 q 142 -118 217 -124 l 131 71 q 336 67 233 67 l 411 67 q 440 69 419 67 q 489 73 462 70 q 546 80 516 75 q 602 88 576 84 q 644 99 628 93 q 664 113 661 105 q 670 150 670 128 q 668 166 670 160 q 659 180 667 173 q 634 185 657 181 q 577 192 611 188 q 503 201 543 196 q 425 210 462 206 q 361 219 389 215 q 325 223 333 222 q 271 233 306 226 q 201 252 237 241 q 134 277 165 263 q 94 307 104 291 q 82 347 88 320 q 74 405 77 374 q 70 465 71 436 q 69 508 69 493 q 69 538 69 523 q 74 568 70 553 q 94 587 77 576 q 136 611 111 598 q 191 636 161 623 q 247 660 221 649 q 294 678 274 671 q 321 689 314 686 q 282 699 309 691 q 225 718 255 708 q 170 739 196 728 q 135 759 145 750 q 114 796 123 773 q 101 845 105 819 q 93 897 96 872 q 90 940 90 922 q 95 996 90 965 q 118 1045 100 1026 q 197 1083 139 1067 q 323 1107 255 1098 q 456 1120 392 1116 q 554 1124 520 1124 q 701 1120 628 1124 q 847 1109 774 1116 l 819 895 q 673 907 746 902 q 527 912 600 912 q 477 911 515 912 q 398 905 439 910 q 326 891 358 900 q 294 864 294 881 q 310 844 294 851 q 336 834 326 836 q 398 822 360 827 q 480 811 436 816 q 570 799 524 805 q 656 786 615 793 q 729 767 697 778 q 775 743 760 756 q 805 698 789 729 q 833 632 820 667 q 854 562 846 596 q 862 508 862 529 q 862 499 862 503 q 861 489 861 495 q 833 450 857 473 q 779 404 809 427 q 719 364 748 382 q 678 339 690 345 q 721 328 691 336 q 781 307 751 320 q 836 279 812 295 q 864 244 859 263 q 876 168 870 206 q 883 93 883 130 m 604 508 q 590 556 604 537 q 552 590 575 576 q 504 611 530 603 q 455 621 478 618 q 423 607 442 615 q 384 590 404 599 q 346 572 364 581 q 316 554 328 562 q 298 537 302 543 q 294 512 294 530 q 295 476 294 493 q 309 444 297 458 q 351 417 325 428 q 406 398 377 405 q 463 387 435 390 q 512 382 492 383 q 542 404 526 390 q 573 435 558 417 q 596 471 587 453 q 604 508 604 489 "},"Ý":{"x_min":97.671875,"x_max":1028.1875,"ha":1118,"o":"m 1028 337 q 1013 235 1028 288 q 969 134 998 181 q 900 53 941 88 q 807 8 858 18 q 758 1 786 4 q 701 -2 731 -1 q 642 -5 671 -4 q 592 -6 613 -6 q 359 -12 476 -12 q 124 -13 242 -13 q 114 96 119 42 q 101 207 109 150 q 288 216 195 211 q 474 227 381 221 q 520 229 495 229 q 571 230 545 229 q 623 233 598 231 q 667 240 648 236 q 687 244 675 241 q 708 254 698 248 q 724 268 717 260 q 731 288 731 276 q 725 352 731 317 q 716 413 718 386 q 512 395 614 404 q 306 386 409 386 q 193 426 236 386 q 132 531 151 466 q 125 567 128 546 q 120 611 122 588 q 116 655 118 633 q 113 691 115 676 q 103 868 107 781 q 97 1044 100 954 q 228 1032 162 1037 q 359 1022 294 1026 q 362 887 359 959 q 379 755 366 816 q 405 699 386 722 q 451 659 424 675 q 507 636 477 644 q 569 629 538 629 q 642 636 606 629 q 713 655 679 644 q 704 855 708 756 q 691 1055 701 954 q 773 1058 732 1056 q 854 1060 813 1060 q 983 1048 918 1060 q 985 931 983 990 q 990 815 987 873 q 994 760 992 788 q 998 705 996 732 q 1015 521 1003 613 q 1028 337 1028 430 m 751 1314 q 687 1262 717 1285 q 625 1218 656 1238 q 561 1178 594 1197 q 488 1137 527 1159 l 438 1213 q 485 1262 462 1238 q 529 1314 507 1287 q 590 1383 557 1350 q 655 1448 622 1416 l 751 1314 "},"b":{"x_min":62.390625,"x_max":1120.421875,"ha":1169,"o":"m 1120 282 q 1087 149 1120 208 q 982 66 1055 89 q 937 61 971 63 q 864 59 903 59 q 789 58 824 58 q 743 58 754 58 q 551 59 647 58 q 360 63 455 61 l 354 5 q 214 2 284 5 q 73 -4 143 0 q 75 203 74 100 q 75 411 75 306 q 71 707 75 560 q 62 1002 66 854 l 293 992 q 291 956 291 975 q 291 919 291 938 q 295 741 291 830 q 298 562 298 652 q 358 637 320 602 q 438 683 396 672 q 524 701 476 693 q 624 715 573 709 q 725 724 675 721 q 815 727 775 727 q 878 719 843 727 q 946 698 912 712 q 1008 665 980 685 q 1052 619 1036 645 q 1079 551 1066 596 q 1100 455 1091 505 q 1115 356 1109 404 q 1120 282 1120 309 m 835 367 q 832 402 835 381 q 822 446 828 424 q 808 489 816 469 q 789 518 800 508 q 771 525 784 523 q 746 529 759 527 q 720 530 733 530 q 701 530 708 530 q 663 529 689 530 q 604 525 637 527 q 536 520 572 523 q 469 512 500 516 q 415 503 438 508 q 383 493 392 499 l 400 267 q 490 267 435 267 q 604 271 545 268 q 718 282 663 275 q 805 302 773 288 q 832 328 828 311 q 835 367 835 344 "},"q":{"x_min":27.125,"x_max":1015.984375,"ha":1106,"o":"m 1015 546 q 1015 496 1015 522 q 1014 446 1014 470 q 1006 193 1009 318 q 1001 -59 1003 67 l 728 -69 l 728 231 q 691 215 717 221 q 634 207 664 210 q 576 204 604 204 q 534 204 548 204 q 463 205 508 204 q 369 208 417 206 q 277 216 321 211 q 210 229 233 221 q 131 275 165 244 q 73 346 97 306 q 38 432 50 386 q 27 522 27 477 l 27 530 q 37 616 27 571 q 68 704 47 661 q 120 780 89 746 q 191 834 150 815 q 255 851 214 845 q 340 862 295 858 q 426 868 385 866 q 493 869 467 869 q 601 866 548 869 q 709 859 655 864 l 712 929 q 859 910 788 922 q 1003 884 930 899 q 1012 715 1009 798 q 1015 546 1015 632 m 732 725 q 636 736 685 732 q 541 740 588 740 q 507 739 531 740 q 457 734 484 737 q 408 725 431 731 q 378 709 385 718 q 367 687 371 701 q 361 656 363 672 q 358 624 359 640 q 358 598 358 609 q 358 545 358 573 q 366 495 359 518 q 396 465 371 476 q 451 449 420 455 q 511 442 481 443 q 556 440 541 440 q 644 449 599 440 q 731 470 689 458 l 732 725 "},"Ö":{"x_min":82.75,"x_max":1214.015625,"ha":1297,"o":"m 1214 579 q 1214 544 1214 561 q 1212 511 1214 527 q 1209 463 1211 497 q 1203 385 1207 430 q 1195 292 1200 341 q 1184 202 1190 244 q 1171 131 1178 161 q 1158 94 1165 101 q 1061 34 1117 54 q 944 8 1005 14 q 822 2 883 1 q 708 4 760 4 q 648 4 690 4 q 552 6 606 5 q 440 11 499 8 q 331 21 382 14 q 243 35 280 27 q 196 58 206 44 q 177 90 185 73 q 162 124 169 108 q 130 220 145 169 q 105 324 115 271 q 88 431 94 378 q 82 531 82 484 q 86 598 82 557 q 97 688 90 640 q 113 786 104 736 q 134 880 123 836 q 160 955 146 923 q 189 998 173 987 q 240 1015 203 1007 q 325 1030 276 1024 q 429 1041 374 1036 q 535 1049 485 1045 q 626 1053 585 1052 q 686 1055 667 1055 q 756 1052 712 1055 q 851 1043 800 1049 q 956 1028 903 1037 q 1054 1007 1009 1020 q 1132 980 1100 995 q 1173 948 1165 965 q 1186 905 1180 933 q 1196 842 1192 877 q 1203 767 1200 807 q 1209 692 1207 728 q 1212 626 1211 656 q 1214 579 1214 596 m 971 534 q 968 592 971 561 q 950 645 965 622 q 898 671 940 661 q 807 685 857 680 q 712 689 758 689 q 647 690 666 690 q 594 687 632 690 q 516 678 557 685 q 439 663 474 672 q 396 642 404 655 q 383 607 387 633 q 375 550 378 580 q 370 491 371 519 q 368 451 368 463 q 369 419 368 440 q 373 374 370 397 q 379 330 375 351 q 389 301 382 310 q 413 288 393 294 q 463 278 434 283 q 524 271 492 274 q 588 266 557 268 q 642 263 618 264 q 675 263 666 263 q 731 265 691 263 q 815 274 771 268 q 897 289 859 280 q 945 310 934 298 q 959 350 953 320 q 967 417 964 381 q 970 486 969 453 q 971 534 971 519 m 979 1287 q 969 1238 979 1261 q 941 1199 958 1216 q 901 1173 923 1182 q 853 1163 878 1163 q 808 1171 830 1163 q 769 1194 786 1179 q 740 1228 751 1208 q 729 1272 729 1249 q 739 1325 729 1300 q 768 1370 750 1350 q 811 1401 786 1390 q 866 1411 836 1411 q 912 1401 891 1411 q 948 1372 933 1390 q 971 1332 963 1354 q 979 1287 979 1310 m 652 1289 q 615 1202 652 1238 q 526 1167 577 1167 q 482 1175 504 1167 q 443 1198 461 1183 q 415 1232 425 1212 q 404 1274 404 1251 q 415 1329 404 1303 q 444 1374 425 1354 q 487 1405 462 1394 q 541 1415 512 1415 q 585 1405 565 1415 q 621 1376 606 1394 q 644 1335 636 1358 q 652 1289 652 1312 "},"ﬂ":{"x_min":27.125,"x_max":945.4375,"ha":1001,"o":"m 945 1037 q 911 520 926 777 q 880 2 896 263 l 672 -8 q 672 236 672 115 q 671 480 672 356 q 663 644 670 562 q 652 809 657 727 q 597 807 628 809 q 536 799 567 805 q 478 783 505 793 q 432 756 450 773 q 403 714 417 741 q 389 663 389 686 q 390 647 389 652 l 542 640 q 548 595 545 618 q 550 550 550 572 q 549 508 550 529 q 546 467 548 488 l 415 440 q 438 209 425 324 q 457 -21 450 94 q 286 -24 371 -18 q 116 -31 202 -29 l 128 417 l 27 412 l 27 448 q 32 542 27 496 q 40 636 37 588 l 137 638 q 143 752 137 695 q 170 857 150 808 q 228 946 191 907 q 325 1009 265 986 q 384 1020 343 1015 q 480 1028 425 1025 q 594 1033 534 1032 q 710 1036 655 1034 q 807 1037 765 1037 q 869 1037 850 1037 l 945 1037 "},"z":{"x_min":-13.5625,"x_max":803.015625,"ha":837,"o":"m 803 170 q 428 169 614 170 q 55 164 242 168 l 46 374 q 181 458 113 416 q 314 543 248 500 q 406 608 362 575 q 495 676 451 641 l -10 722 l -13 900 q 248 911 118 907 q 511 915 379 915 q 639 914 576 915 q 767 911 702 914 q 763 830 765 870 q 760 748 760 789 q 763 666 760 708 q 767 584 765 625 l 337 349 q 402 348 370 348 q 466 348 434 348 q 633 350 550 348 q 800 349 716 352 l 803 170 "},"ã":{"x_min":42.046875,"x_max":1024.109375,"ha":1100,"o":"m 1024 611 q 1015 385 1024 497 q 999 160 1007 272 q 697 137 847 146 q 394 127 546 127 q 344 128 381 127 q 267 130 307 128 q 189 136 226 132 q 141 146 153 139 q 78 208 96 170 q 61 293 61 245 q 62 336 61 309 q 67 393 63 363 q 78 448 71 423 q 94 486 85 474 q 150 514 107 503 q 254 533 193 526 q 384 543 314 539 q 518 550 454 548 q 632 552 581 552 q 704 552 682 552 q 708 610 708 581 q 708 624 708 613 q 706 638 708 636 q 680 652 702 647 q 627 660 659 657 q 558 665 595 663 q 485 667 520 667 q 423 667 450 667 q 383 667 396 667 q 212 663 298 667 q 42 657 127 660 q 50 762 47 709 q 51 866 54 815 q 250 891 150 884 q 451 899 349 899 q 531 898 488 899 q 618 895 575 897 q 704 889 661 893 q 784 878 747 885 q 859 854 822 872 q 929 811 896 836 q 986 752 961 785 q 1021 680 1010 718 q 1023 667 1022 676 q 1024 646 1024 657 q 1024 625 1024 634 q 1024 611 1024 615 m 721 293 l 721 466 q 642 468 682 467 q 564 469 603 469 q 518 468 556 469 q 438 465 481 467 q 360 458 396 462 q 320 446 325 454 q 311 423 313 435 q 309 400 309 412 q 310 374 309 390 q 315 340 311 358 q 322 307 318 322 q 333 286 326 293 q 352 276 339 279 q 379 270 364 272 q 409 267 394 268 q 432 267 424 267 q 502 269 465 267 q 578 276 539 272 q 653 284 617 279 q 721 293 690 288 m 857 1109 q 814 1080 842 1099 q 755 1044 785 1062 q 695 1014 724 1027 q 648 1001 666 1001 q 603 1015 628 1001 q 552 1046 578 1029 q 502 1078 526 1063 q 461 1092 479 1092 q 427 1082 446 1092 q 389 1057 408 1071 q 354 1026 370 1042 q 328 1001 338 1010 l 248 1089 q 289 1117 260 1097 q 348 1157 317 1137 q 408 1193 380 1177 q 447 1208 437 1208 q 492 1196 466 1208 q 546 1168 518 1183 q 600 1140 574 1153 q 645 1127 626 1127 q 677 1135 659 1127 q 714 1154 696 1143 q 749 1178 732 1165 q 776 1199 765 1191 l 857 1109 "},"æ":{"x_min":42.046875,"x_max":1790.515625,"ha":1839,"o":"m 1790 499 q 1789 439 1790 469 q 1785 381 1787 409 q 1642 375 1713 378 q 1500 370 1572 373 q 1296 358 1398 366 q 1091 343 1193 349 q 1102 296 1091 318 q 1128 255 1112 274 q 1165 224 1144 237 q 1207 204 1185 211 q 1261 196 1227 198 q 1318 193 1295 193 q 1496 206 1407 193 q 1672 236 1584 218 l 1694 0 q 1528 -11 1611 -6 q 1364 -16 1445 -16 q 1310 -15 1345 -16 q 1236 -12 1275 -14 q 1162 -5 1197 -9 q 1109 6 1127 -1 q 1032 49 1067 25 q 976 116 996 73 q 973 124 973 119 q 969 137 972 130 q 965 151 967 143 l 963 120 q 958 57 960 89 q 952 -5 956 25 q 666 -29 808 -18 q 379 -39 523 -39 q 339 -38 366 -39 q 282 -36 311 -37 q 225 -32 252 -35 q 187 -24 199 -29 q 123 6 147 -9 q 83 42 99 21 q 59 92 67 63 q 46 164 51 122 q 42 217 42 188 q 71 340 42 298 q 147 400 100 382 q 254 419 195 417 q 374 420 313 420 q 536 417 455 420 q 698 398 617 415 q 699 411 699 402 q 693 442 699 425 q 676 474 686 459 q 653 503 666 489 q 629 524 641 516 q 605 534 621 530 q 573 539 590 538 q 539 541 556 541 q 515 542 523 542 q 308 522 412 542 q 105 477 204 503 q 88 605 94 543 q 82 735 82 667 q 263 758 173 748 q 446 767 354 767 q 621 754 533 767 q 786 697 709 740 q 834 663 809 683 q 880 620 858 644 q 916 570 902 596 q 937 518 931 543 q 959 582 944 548 q 994 649 973 617 q 1041 708 1015 682 q 1097 750 1067 735 q 1179 772 1124 763 q 1295 786 1234 781 q 1413 794 1356 792 q 1501 796 1470 796 q 1561 796 1524 796 q 1634 792 1597 796 q 1703 776 1671 788 q 1747 743 1734 765 q 1769 687 1760 718 q 1783 623 1778 656 q 1789 557 1787 590 q 1790 499 1790 524 m 1600 519 q 1573 562 1600 548 q 1509 582 1546 576 q 1437 589 1473 588 q 1383 590 1401 590 q 1345 590 1368 590 q 1297 588 1322 590 q 1250 582 1272 585 q 1216 572 1228 579 q 1183 533 1196 561 q 1166 482 1170 504 l 1597 500 q 1600 519 1600 511 m 721 214 q 710 303 721 257 q 659 318 693 316 q 604 320 626 320 q 545 317 587 320 q 457 308 503 314 q 372 294 411 302 q 322 274 333 286 q 307 243 310 260 q 303 211 303 226 q 305 184 303 200 q 311 151 307 168 q 322 120 316 134 q 337 97 328 105 q 356 90 343 93 q 384 86 368 88 q 414 84 400 85 q 435 84 428 84 q 493 86 455 84 q 569 92 530 88 q 644 103 609 96 q 695 122 679 111 q 708 139 704 127 q 716 165 713 151 q 720 192 720 179 q 721 214 721 206 "},"®":{"x_min":42.046875,"x_max":1047.171875,"ha":1089,"o":"m 1047 686 l 1047 572 q 1041 495 1047 542 q 1025 397 1036 447 q 999 303 1014 347 q 964 236 983 259 q 887 189 941 210 q 770 152 834 168 q 643 128 706 137 q 541 120 580 120 q 471 126 514 120 q 379 141 428 131 q 280 166 330 151 q 186 199 229 181 q 113 238 143 217 q 74 282 82 259 q 60 348 66 305 q 50 439 54 392 q 44 531 46 486 q 42 603 42 576 q 42 626 42 615 q 43 648 42 637 q 46 722 44 676 q 55 813 48 767 q 77 897 62 859 q 120 950 92 935 q 152 962 134 957 q 185 971 170 967 q 373 1009 276 994 q 562 1024 469 1024 q 619 1021 580 1024 q 705 1013 657 1018 q 804 1000 752 1007 q 900 982 855 992 q 977 959 945 972 q 1021 931 1010 946 q 1036 883 1030 916 q 1044 813 1041 850 q 1047 740 1047 775 q 1047 686 1047 705 m 935 760 q 935 788 935 773 q 932 817 934 803 q 925 846 930 832 q 912 868 921 859 q 849 895 896 884 q 748 914 803 907 q 641 925 693 921 q 564 931 590 929 q 547 933 556 933 q 530 933 538 933 q 450 926 501 933 q 344 906 398 919 q 243 875 290 893 q 177 835 196 857 q 165 811 169 826 q 159 781 161 797 q 157 749 157 765 q 157 721 157 733 q 158 672 157 704 q 160 600 158 640 q 163 517 161 560 q 169 437 165 474 q 178 372 173 400 q 191 333 183 344 q 226 308 200 320 q 287 286 252 297 q 362 268 322 276 q 442 255 402 260 q 514 246 481 249 q 568 242 548 242 q 631 244 588 242 q 720 252 674 246 q 806 269 766 259 q 861 294 846 279 q 886 349 874 307 q 906 439 897 392 q 918 531 914 486 q 925 596 923 576 q 931 678 927 637 q 935 760 935 720 m 792 367 l 642 352 q 604 435 625 394 q 564 516 584 476 q 500 507 522 510 q 467 503 478 504 l 454 501 q 455 484 455 492 q 455 468 455 477 q 457 454 455 459 l 462 339 l 321 341 q 323 427 322 385 q 324 512 324 469 q 322 569 324 541 q 321 623 321 596 q 312 716 320 671 q 302 809 305 762 q 441 824 371 817 q 583 830 511 830 q 609 829 591 830 q 648 827 628 828 q 687 823 668 826 q 712 816 705 820 q 739 787 728 807 q 758 744 751 767 q 769 695 766 720 q 773 653 773 671 q 742 575 773 602 q 663 542 712 549 q 727 454 694 497 q 792 367 760 411 m 587 640 q 582 680 587 655 q 568 718 577 705 q 536 733 560 731 q 500 735 512 735 q 461 732 481 735 q 423 729 442 729 q 421 725 421 728 q 426 663 421 694 q 438 604 431 633 q 463 604 442 604 q 511 606 485 604 q 558 609 537 607 q 581 615 579 611 q 586 627 585 621 q 587 640 587 633 "},"É":{"x_min":82.75,"x_max":862.703125,"ha":890,"o":"m 862 826 q 598 811 729 819 q 335 793 467 804 l 332 686 l 682 706 q 692 615 689 660 q 695 524 695 571 q 695 485 695 505 q 694 446 694 465 l 368 387 l 389 219 q 594 239 492 226 q 801 261 697 252 q 820 125 811 193 q 847 -8 830 56 q 465 -8 655 -6 q 82 -10 275 -10 q 92 305 86 147 q 97 622 97 462 l 97 648 q 94 832 97 740 q 89 1017 92 923 q 303 1016 196 1015 q 518 1017 409 1017 q 682 1013 600 1017 q 847 1006 765 1010 l 862 826 m 695 1286 q 631 1234 661 1257 q 569 1190 600 1210 q 505 1150 538 1169 q 432 1109 471 1131 l 382 1185 q 429 1234 406 1210 q 473 1286 451 1259 q 534 1355 501 1322 q 599 1420 566 1388 l 695 1286 "},"~":{"x_min":27.125,"x_max":767.75,"ha":796,"o":"m 767 446 q 718 413 752 435 q 647 368 685 390 q 572 328 609 345 q 515 311 535 311 q 459 329 489 311 q 397 368 428 347 q 337 406 366 389 q 286 424 307 424 q 244 411 267 424 q 198 380 221 398 q 154 343 174 362 q 123 311 134 324 l 27 420 q 73 453 39 428 q 146 502 107 477 q 221 547 185 527 q 272 567 257 567 q 323 551 291 567 q 389 516 355 535 q 457 482 424 497 q 511 466 489 466 q 550 476 527 466 q 594 500 572 486 q 636 529 617 514 q 668 554 656 543 l 767 446 "},"³":{"x_min":69.171875,"x_max":727.0625,"ha":754,"o":"m 727 648 q 718 595 727 625 q 690 550 709 565 q 630 525 671 535 q 539 509 588 515 q 442 500 491 503 q 364 496 394 497 q 277 493 321 493 q 189 493 233 493 q 132 493 161 493 q 73 495 103 493 l 73 587 q 77 651 73 619 l 176 651 q 202 651 180 651 q 256 651 225 651 q 322 651 287 651 q 388 653 358 652 q 440 655 419 653 q 462 657 461 656 q 468 662 466 660 q 470 671 470 664 q 462 694 470 682 q 446 713 454 706 q 423 717 443 716 q 373 720 402 718 q 310 722 344 721 q 246 725 276 724 q 196 725 217 725 q 170 725 174 725 q 168 738 169 732 q 168 751 168 744 l 168 779 l 451 865 q 263 867 358 865 q 73 869 168 869 q 75 900 74 884 q 75 933 75 916 q 69 988 75 959 q 311 997 191 992 q 553 1002 431 1002 l 649 1002 q 650 959 649 980 q 651 915 651 937 q 647 832 651 873 q 549 803 598 817 q 451 773 500 789 q 497 767 463 771 q 570 758 531 763 q 642 746 609 752 q 686 736 675 740 q 720 699 714 722 q 727 648 727 675 "},"¡":{"x_min":42.046875,"x_max":356.75,"ha":441,"o":"m 42 -267 q 44 -189 43 -231 q 48 -104 46 -147 q 56 -19 51 -61 q 67 56 61 21 q 109 258 88 158 q 151 458 130 358 l 299 472 l 335 130 q 348 -54 344 37 q 356 -240 352 -146 l 42 -267 m 65 668 q 80 714 65 691 q 116 753 94 736 q 164 781 138 770 q 211 792 189 792 q 254 784 231 792 q 295 763 276 777 q 324 731 313 750 q 336 689 336 712 q 320 641 336 661 q 282 606 305 621 q 231 583 259 591 q 183 576 204 576 q 114 594 145 576 q 69 647 84 611 q 65 668 65 656 "},"[":{"x_min":82.75,"x_max":393.375,"ha":421,"o":"m 393 991 l 238 968 q 244 767 241 866 q 246 565 246 667 l 246 82 l 377 59 l 381 -51 q 318 -64 349 -58 q 255 -70 286 -70 q 183 -67 219 -70 q 112 -61 147 -63 q 92 283 101 112 q 82 628 82 454 q 92 882 82 751 q 112 1136 101 1013 l 385 1112 l 393 991 "},"L":{"x_min":82.75,"x_max":750.109375,"ha":777,"o":"m 750 33 q 429 10 588 21 q 108 -9 269 0 q 97 505 101 249 q 82 1021 93 760 q 261 1026 173 1022 q 439 1037 349 1030 q 411 836 424 937 q 392 633 398 735 q 383 463 386 548 q 377 293 379 378 q 554 290 466 290 q 729 287 641 290 l 750 33 "}," ":{"x_min":0,"x_max":0,"ha":559},"∑":{"x_min":96.578125,"x_max":1345.59375,"ha":1450,"o":"m 1345 295 q 1340 227 1345 264 q 1322 154 1334 189 q 1289 90 1310 119 q 1235 46 1268 61 q 1180 31 1216 36 q 1102 22 1143 25 q 1024 17 1062 18 q 964 16 986 16 q 927 16 949 16 q 882 18 906 17 q 837 23 858 20 q 803 33 816 27 q 773 54 788 39 q 745 88 758 70 q 722 126 732 107 q 708 158 713 145 q 691 124 701 142 q 666 91 680 107 q 635 64 652 75 q 600 48 618 52 q 506 37 554 39 q 411 36 458 36 q 367 36 394 36 q 311 38 340 36 q 256 45 282 40 q 217 58 230 50 q 136 139 161 92 q 103 241 111 187 q 96 354 94 295 q 99 469 99 413 q 100 627 99 549 q 105 784 101 705 l 377 770 q 368 627 371 698 q 364 482 364 556 q 365 450 364 474 q 367 398 366 425 q 372 345 368 370 q 381 314 375 321 q 405 299 389 305 q 439 290 421 294 q 474 286 457 287 q 501 286 491 286 q 576 290 537 286 l 594 739 q 713 743 655 743 q 811 739 762 743 q 812 697 811 729 q 815 619 813 664 q 818 522 816 573 q 824 427 820 472 q 831 350 827 382 q 839 311 835 318 q 865 292 849 299 q 900 280 881 284 q 936 275 918 276 q 968 274 954 274 q 1020 278 992 274 q 1066 302 1047 283 q 1073 330 1070 307 q 1078 381 1077 354 q 1080 432 1079 408 q 1081 462 1081 455 q 1077 616 1081 539 q 1066 770 1072 693 q 1135 768 1101 769 q 1204 767 1169 767 q 1266 768 1235 767 q 1329 770 1298 769 q 1340 533 1336 651 q 1345 295 1345 415 "},"%":{"x_min":13.5625,"x_max":1030.90625,"ha":1058,"o":"m 1030 180 q 1018 90 1030 123 q 978 38 1005 56 q 913 14 952 20 q 823 9 874 9 q 779 10 807 9 q 722 17 751 12 q 667 31 693 23 q 630 54 641 39 q 617 82 622 65 q 608 118 611 100 q 604 155 604 137 q 603 185 603 173 q 604 227 603 202 q 610 278 606 252 q 621 326 614 303 q 638 360 628 348 q 676 381 649 373 q 733 394 702 389 q 792 400 763 398 q 835 401 820 401 q 870 400 849 401 q 914 396 892 400 q 956 386 937 393 q 986 368 976 379 q 1006 330 998 355 q 1020 278 1014 306 q 1028 224 1025 250 q 1030 180 1030 198 m 824 979 q 746 825 785 902 q 671 671 708 748 q 634 595 652 633 q 602 518 617 557 q 499 251 550 383 q 398 -14 448 119 l 219 -12 q 298 154 259 71 q 377 321 337 237 q 421 417 400 368 q 463 515 443 466 q 555 748 511 632 q 642 983 599 864 l 824 979 m 442 775 q 440 742 442 762 q 436 701 439 722 q 427 661 434 680 q 413 632 421 642 q 371 607 401 617 q 305 592 341 598 q 236 583 269 585 q 185 580 203 580 q 158 581 174 580 q 123 584 141 581 q 90 592 105 587 q 67 604 75 596 q 44 647 54 619 q 27 704 33 674 q 16 763 20 733 q 13 811 13 792 q 21 878 13 843 q 55 935 28 912 q 94 955 69 948 q 147 967 119 963 q 202 972 176 971 q 246 973 229 973 q 284 972 261 973 q 331 967 307 971 q 375 956 355 963 q 406 938 396 949 q 424 905 417 926 q 435 860 431 884 q 440 814 439 836 q 442 775 442 792 m 918 181 q 916 208 918 193 q 911 238 915 223 q 901 267 907 253 q 887 288 895 280 q 859 303 876 299 q 828 306 843 306 q 779 299 807 306 q 736 278 751 293 q 716 241 721 263 q 712 200 712 219 q 717 150 712 169 q 735 120 722 131 q 769 106 748 109 q 817 103 789 103 q 862 105 843 103 q 893 114 881 107 q 912 137 906 122 q 918 181 918 153 m 333 777 q 328 822 333 796 q 309 864 324 849 q 275 877 298 874 q 237 880 252 880 q 215 879 230 880 q 185 876 200 878 q 155 868 169 873 q 137 857 142 864 q 128 832 130 846 q 126 805 126 817 q 128 777 126 793 q 134 744 130 760 q 146 712 139 727 q 162 690 153 698 q 186 678 173 680 q 214 676 199 676 q 267 685 237 676 q 313 709 297 693 q 329 741 325 721 q 333 777 333 760 "},"P":{"x_min":124.796875,"x_max":1089.21875,"ha":1165,"o":"m 1089 680 q 1085 609 1089 651 q 1074 523 1082 567 q 1053 442 1067 480 q 1020 382 1040 404 q 967 364 1011 373 q 862 346 923 355 q 729 329 800 337 q 596 315 659 321 q 486 305 533 309 q 428 301 440 301 l 417 18 q 335 18 375 16 q 252 20 294 20 q 198 18 225 20 q 143 14 170 17 q 143 267 143 142 q 138 519 143 392 q 130 748 134 634 q 124 978 127 862 q 406 1001 264 987 q 689 1015 548 1015 q 766 1011 713 1015 q 877 996 819 1006 q 985 971 935 986 q 1051 937 1034 956 q 1069 889 1062 925 q 1081 814 1077 854 q 1087 736 1085 774 q 1089 680 1089 698 m 709 690 q 708 721 709 702 q 703 758 706 740 q 693 792 699 777 q 675 815 686 808 q 653 822 668 819 q 622 826 638 824 q 591 828 606 827 q 569 828 576 828 q 469 823 519 828 q 367 809 419 817 q 372 729 371 769 q 373 651 373 690 q 377 522 373 587 q 438 524 394 522 q 529 531 481 526 q 618 544 576 535 q 675 568 660 553 q 704 624 699 591 q 709 690 709 657 "},"À":{"x_min":104.453125,"x_max":980.703125,"ha":1023,"o":"m 980 4 l 774 -27 q 731 110 752 42 q 689 248 709 179 l 355 236 l 313 55 l 104 55 q 143 514 123 286 q 183 971 164 741 q 377 998 280 987 q 573 1009 474 1009 q 815 1005 694 1009 q 857 723 836 864 q 902 442 878 583 q 937 222 918 330 q 980 4 957 113 m 641 432 q 634 478 640 444 q 622 548 629 511 q 607 616 615 585 q 590 652 598 647 q 577 655 587 653 q 555 657 567 656 q 533 659 543 659 q 518 659 522 659 q 499 659 511 659 q 475 658 488 659 q 451 655 462 657 q 435 648 439 652 q 428 630 432 647 q 418 590 424 614 q 406 539 412 567 q 394 488 400 512 q 385 446 389 463 q 381 425 382 428 l 641 432 m 626 1185 l 577 1109 q 505 1150 538 1131 q 440 1190 472 1169 q 378 1234 409 1210 q 313 1286 347 1257 l 411 1420 q 474 1355 442 1388 q 537 1286 507 1322 q 581 1234 558 1259 q 626 1185 603 1210 "},"_":{"x_min":0,"x_max":786.734375,"ha":787,"o":"m 786 21 q 604 17 694 18 q 423 16 514 16 q 214 10 318 16 q 5 -4 109 4 l 0 172 q 214 177 107 174 q 430 180 322 180 q 604 179 518 180 q 777 176 690 177 l 786 21 "},"ñ":{"x_min":27.125,"x_max":861.34375,"ha":937,"o":"m 861 402 q 861 328 861 366 q 858 255 861 291 l 556 236 q 564 375 561 306 q 568 516 568 444 q 568 539 568 523 q 566 574 568 556 q 564 609 565 592 q 561 632 562 625 q 547 664 554 651 q 529 686 539 678 q 504 697 519 694 q 467 701 489 701 q 426 698 451 701 q 375 690 401 695 q 326 676 349 685 q 294 657 303 668 l 291 257 q 276 263 288 263 q 257 263 263 263 q 173 259 217 263 q 89 250 130 256 q 58 569 71 411 q 27 888 44 728 q 81 890 54 889 q 135 891 108 891 q 206 889 170 891 q 278 885 242 887 l 287 781 q 390 885 325 843 q 530 927 455 927 q 609 923 568 927 q 687 907 649 919 q 757 873 724 895 q 813 817 790 851 q 832 769 824 801 q 845 697 839 737 q 853 613 850 657 q 858 527 857 568 q 860 453 859 486 q 861 402 861 420 m 732 1122 q 689 1093 717 1112 q 630 1057 660 1075 q 570 1027 599 1040 q 523 1014 541 1014 q 478 1028 503 1014 q 427 1059 453 1042 q 377 1091 401 1076 q 336 1105 354 1105 q 302 1095 321 1105 q 264 1070 283 1084 q 229 1039 245 1055 q 203 1014 213 1023 l 123 1102 q 164 1130 135 1110 q 223 1170 192 1150 q 283 1206 255 1190 q 322 1221 312 1221 q 367 1209 341 1221 q 421 1181 393 1196 q 475 1153 449 1166 q 520 1140 501 1140 q 552 1148 534 1140 q 589 1167 571 1156 q 624 1191 607 1178 q 651 1212 640 1204 l 732 1122 "},"+":{"x_min":42.046875,"x_max":693.140625,"ha":735,"o":"m 693 561 l 689 462 q 562 453 623 455 q 436 446 500 450 q 438 303 436 374 q 443 160 440 231 l 322 161 q 315 301 317 231 q 309 443 313 371 l 50 443 l 42 548 q 172 550 107 548 q 303 556 238 553 l 298 815 l 415 816 q 424 689 419 751 q 436 561 430 626 q 499 564 467 562 q 562 565 531 565 q 627 564 594 565 q 693 561 660 562 "},"‚":{"x_min":55.609375,"x_max":347.25,"ha":403,"o":"m 347 39 q 324 -59 347 -12 q 276 -150 301 -107 l 127 -150 q 155 -117 141 -134 q 183 -82 170 -100 q 202 -43 195 -63 q 210 0 210 -23 l 210 14 l 81 17 q 64 69 73 36 q 55 122 55 101 q 69 177 55 149 q 101 226 82 204 l 316 223 q 339 132 330 179 q 347 39 347 86 "},"½":{"x_min":27.125,"x_max":1280.484375,"ha":1336,"o":"m 1280 173 q 1277 95 1277 134 q 1273 17 1276 56 l 698 5 q 685 104 691 55 q 671 203 678 153 q 755 223 709 211 q 848 251 801 236 q 938 286 895 267 q 1015 328 982 305 q 1038 344 1026 335 q 1049 368 1049 354 q 1039 401 1049 385 q 1014 423 1029 417 q 983 426 1005 425 q 950 427 961 427 q 924 427 942 427 q 886 426 906 427 q 849 422 866 425 q 826 413 832 419 q 819 400 820 409 q 817 386 817 392 q 818 375 817 381 q 820 363 819 370 l 649 349 q 645 379 647 364 q 644 408 644 393 q 653 461 644 430 q 686 501 661 492 q 749 513 706 508 q 841 520 792 518 q 934 524 889 523 q 1002 526 979 526 q 1085 525 1043 526 q 1163 513 1128 524 q 1219 474 1197 501 q 1241 392 1241 446 q 1239 354 1241 377 q 1227 321 1237 332 q 1201 300 1220 311 q 1158 277 1181 288 q 1113 256 1135 265 q 1081 242 1091 246 q 967 204 1024 223 q 854 166 911 184 q 1066 169 960 168 q 1280 173 1173 170 m 845 968 q 775 834 809 900 q 708 698 741 767 q 663 603 685 651 q 622 507 641 556 q 520 240 571 373 q 417 -25 469 108 l 238 -23 q 317 143 278 61 q 396 309 356 226 q 441 406 419 358 q 482 504 463 455 q 574 736 530 619 q 661 972 618 853 l 845 968 m 349 505 l 84 512 l 115 859 l 27 865 q 51 926 44 896 q 67 990 58 956 l 302 994 q 318 849 309 931 q 333 689 326 766 q 349 505 341 599 "},"Æ":{"x_min":-42.046875,"x_max":1345.59375,"ha":1401,"o":"m 1345 797 q 1216 788 1280 793 q 1086 773 1151 782 q 976 760 1032 766 q 866 748 921 754 l 881 556 q 1055 548 969 553 q 1227 535 1140 543 l 1227 368 q 1060 337 1143 354 q 892 306 978 321 l 897 184 l 1121 161 q 1201 151 1162 155 q 1272 141 1241 146 q 1340 130 1307 135 q 1338 93 1338 109 q 1337 63 1337 78 q 1337 40 1337 48 l 1337 -13 q 978 -21 1157 -17 q 618 -32 800 -25 l 621 269 l 360 275 l 204 -12 l -42 -33 q 41 189 -1 78 q 128 411 84 301 q 364 1005 248 708 q 519 1007 442 1007 q 674 1007 596 1007 q 998 1019 836 1007 q 1322 1043 1159 1030 q 1337 921 1332 982 q 1345 797 1342 859 m 629 590 q 628 659 629 625 q 626 727 626 693 l 545 731 q 490 611 515 671 q 440 488 465 550 l 625 493 q 629 590 629 539 "},"Ë":{"x_min":82.75,"x_max":862.703125,"ha":890,"o":"m 862 826 q 598 811 729 819 q 335 793 467 804 l 332 686 l 682 706 q 692 615 689 660 q 695 524 695 571 q 695 485 695 505 q 694 446 694 465 l 368 387 l 389 219 q 594 239 492 226 q 801 261 697 252 q 820 125 811 193 q 847 -8 830 56 q 465 -8 655 -6 q 82 -10 275 -10 q 92 305 86 147 q 97 622 97 462 l 97 648 q 94 832 97 740 q 89 1017 92 923 q 303 1016 196 1015 q 518 1017 409 1017 q 682 1013 600 1017 q 847 1006 765 1010 l 862 826 m 758 1260 q 748 1211 758 1234 q 720 1172 737 1189 q 680 1146 702 1155 q 632 1136 657 1136 q 587 1144 609 1136 q 548 1167 565 1152 q 519 1201 530 1181 q 508 1245 508 1222 q 518 1298 508 1273 q 547 1343 529 1323 q 590 1374 565 1363 q 645 1384 615 1384 q 691 1374 670 1384 q 727 1345 712 1363 q 750 1305 742 1327 q 758 1260 758 1283 m 431 1262 q 394 1175 431 1211 q 305 1140 356 1140 q 261 1148 283 1140 q 222 1171 240 1156 q 194 1205 204 1185 q 183 1247 183 1224 q 194 1302 183 1276 q 223 1347 204 1327 q 266 1378 241 1367 q 320 1388 291 1388 q 364 1378 344 1388 q 400 1349 385 1367 q 423 1308 415 1331 q 431 1262 431 1285 "},"'":{"x_min":48.828125,"x_max":257.71875,"ha":300,"o":"m 257 1007 q 248 803 255 904 q 238 598 241 702 l 81 590 q 67 807 74 699 q 48 1025 59 915 l 257 1007 "},"Š":{"x_min":82.75,"x_max":1117.71875,"ha":1160,"o":"m 1117 238 q 1086 133 1117 173 q 998 69 1055 93 q 878 37 950 48 q 729 21 807 25 q 577 14 652 16 q 453 13 503 13 q 284 16 367 13 q 115 24 200 18 q 107 298 119 162 q 309 293 208 295 q 512 288 411 291 q 592 286 552 287 q 672 284 632 284 q 693 284 679 284 q 721 286 706 284 q 749 290 736 287 q 769 298 762 293 q 775 314 774 303 q 777 332 777 324 q 773 368 777 347 q 760 402 769 389 q 752 405 759 404 q 735 407 744 406 q 717 408 725 408 q 708 409 709 409 q 535 419 621 416 q 362 428 448 421 q 281 436 322 432 q 204 451 240 440 q 147 494 170 461 q 109 570 123 527 q 88 656 94 613 q 82 729 82 699 q 92 822 82 778 q 122 904 101 866 q 176 971 143 942 q 256 1020 208 1001 q 430 1063 337 1051 q 609 1075 523 1075 q 807 1063 709 1075 q 1002 1032 904 1051 q 1000 954 1001 992 q 999 876 999 915 q 1003 796 999 836 q 1011 717 1007 756 q 754 712 883 714 q 496 705 626 710 q 452 704 480 705 q 398 700 424 702 q 354 697 373 698 q 335 695 335 695 q 326 665 328 680 q 325 633 325 649 q 326 613 325 625 q 332 594 326 600 q 355 590 333 592 q 403 584 377 587 q 453 579 430 581 q 482 576 477 576 q 588 566 527 572 q 711 554 648 561 q 832 537 774 548 q 934 514 891 527 q 1007 471 973 500 q 1064 403 1040 442 q 1103 322 1089 364 q 1117 238 1117 279 m 850 1440 q 719 1301 783 1371 q 585 1166 654 1232 q 448 1310 515 1238 q 313 1456 380 1383 l 455 1453 l 588 1296 l 722 1447 l 850 1440 "},"ª":{"x_min":27.125,"x_max":493.75,"ha":534,"o":"m 493 782 q 490 675 493 728 q 484 569 486 622 l 367 548 l 341 630 q 327 590 337 617 q 306 553 317 564 q 276 533 295 541 q 233 520 256 524 q 187 512 210 515 q 151 510 165 510 q 56 533 86 510 q 27 625 27 556 q 29 661 27 638 q 37 706 32 683 q 51 749 43 729 q 70 779 59 769 q 111 802 82 792 q 172 818 139 812 q 236 828 204 824 q 286 831 267 831 q 306 824 297 831 q 322 806 316 816 q 334 784 329 796 q 341 763 339 773 q 345 788 344 775 q 347 813 347 801 q 344 847 347 827 q 333 880 341 868 q 322 887 330 884 q 303 891 313 889 q 285 893 294 892 q 272 893 276 893 q 185 885 229 893 q 101 866 142 877 l 88 1003 q 166 1012 127 1009 q 246 1015 206 1015 q 297 1013 264 1015 q 362 1006 329 1011 q 425 991 396 1001 q 470 967 455 982 q 482 932 478 959 q 489 876 486 906 q 493 819 492 846 q 493 782 493 792 m 265 670 q 259 712 265 685 q 242 750 253 739 q 231 756 238 755 q 218 758 225 758 q 172 748 199 758 q 134 720 145 737 q 130 705 131 713 q 130 690 130 697 q 131 671 130 683 q 136 646 132 659 q 144 622 139 633 q 157 609 149 611 q 174 604 165 604 q 217 613 192 604 q 255 634 242 621 q 263 650 261 641 q 265 670 265 659 "},"Œ":{"x_min":82.75,"x_max":1688.78125,"ha":1744,"o":"m 1688 794 q 1424 779 1554 788 q 1161 759 1294 770 l 1157 652 l 1508 675 q 1517 584 1515 629 q 1520 493 1520 539 q 1520 452 1520 472 q 1519 412 1520 432 l 1195 355 l 1214 185 q 1420 207 1318 193 q 1626 227 1523 221 q 1646 92 1635 160 q 1672 -42 1656 24 q 1559 -40 1615 -40 q 1447 -40 1504 -40 q 1178 -42 1311 -40 q 908 -43 1044 -43 l 911 73 q 889 47 904 65 q 855 12 873 29 q 820 -20 838 -5 q 792 -36 803 -35 q 704 -47 751 -43 q 609 -53 657 -51 q 514 -56 561 -55 q 425 -58 466 -58 q 398 -58 415 -58 q 364 -56 382 -58 q 331 -53 347 -55 q 306 -48 316 -51 q 231 4 264 -33 q 174 92 199 42 q 132 201 150 142 q 103 318 115 260 q 87 429 92 375 q 82 522 82 482 q 98 632 82 571 q 139 756 113 694 q 198 872 165 817 q 267 961 231 926 q 325 991 286 980 q 408 1008 364 1002 q 495 1015 453 1014 q 562 1017 537 1017 q 623 1015 583 1017 q 708 1010 664 1014 q 790 998 751 1006 q 845 978 828 990 q 864 957 854 969 q 885 931 874 945 q 904 902 895 916 q 918 877 912 888 l 915 984 q 1129 984 1022 983 q 1345 984 1237 984 q 1509 982 1426 984 q 1672 975 1591 979 l 1688 794 m 859 450 q 857 505 859 466 q 851 588 855 545 q 840 666 847 630 q 822 714 832 702 q 781 731 812 725 q 716 739 751 736 q 647 742 680 741 q 600 743 614 743 q 560 742 590 743 q 497 740 530 741 q 435 736 463 739 q 398 729 406 733 q 381 699 387 722 q 373 649 375 676 q 369 596 370 622 q 368 560 368 571 q 370 516 368 548 q 374 444 371 485 q 381 358 377 402 q 393 275 386 313 q 409 210 400 237 q 432 181 419 184 q 473 177 451 176 q 514 177 495 177 q 581 179 534 177 q 680 187 629 181 q 773 204 731 193 q 826 234 815 215 q 843 280 836 252 q 853 339 850 309 q 858 400 857 370 q 859 450 859 430 "},"˛":{"x_min":548,"x_max":1024.109375,"ha":1298,"o":"m 1024 -191 q 956 -233 992 -215 q 883 -262 925 -249 q 797 -275 842 -275 q 613 -219 678 -275 q 548 -77 548 -164 q 572 16 548 -35 l 724 16 q 690 -58 690 -21 q 721 -131 690 -101 q 801 -161 752 -161 q 857 -153 828 -161 q 910 -135 885 -146 q 967 -108 938 -123 l 1024 -191 "},"ð":{"x_min":55.609375,"x_max":1064.359375,"ha":1119,"o":"m 775 345 q 774 383 775 362 q 770 428 773 405 q 762 472 767 451 q 748 507 756 492 q 706 534 737 524 q 638 548 675 543 q 564 554 600 553 q 511 556 529 556 q 477 555 501 556 q 426 552 453 554 q 377 547 400 550 q 347 539 354 543 q 328 516 335 533 q 318 478 321 499 q 314 438 314 458 q 313 405 313 419 q 315 361 313 393 q 320 293 317 329 q 329 227 324 257 q 343 189 335 198 q 379 173 352 180 q 436 162 405 166 q 495 155 466 157 q 535 153 523 153 q 587 154 557 153 q 647 161 617 155 q 705 175 678 166 q 748 200 732 184 q 763 229 758 210 q 771 269 769 248 q 775 312 774 291 q 775 345 775 333 m 1022 843 l 940 832 q 995 729 969 788 q 1039 596 1021 671 q 1063 382 1063 492 q 1064 358 1064 370 q 1062 333 1063 345 q 1055 271 1060 314 q 1040 181 1049 227 q 1017 94 1030 134 q 987 44 1003 55 q 932 34 979 39 q 818 25 885 29 q 672 18 751 21 q 522 14 594 16 q 398 10 451 12 q 326 9 344 9 q 299 9 318 9 q 257 10 279 9 q 217 12 236 10 q 189 16 198 13 q 151 38 170 23 q 116 73 132 54 q 87 115 100 93 q 69 155 74 137 q 62 200 65 169 q 58 264 59 230 q 56 329 56 298 q 55 377 55 360 q 56 448 55 402 q 65 541 58 493 q 84 629 71 588 q 122 686 97 670 q 162 698 132 693 q 233 708 192 704 q 320 714 274 712 q 410 716 366 716 q 492 717 454 717 q 553 716 530 717 q 594 715 568 716 q 652 713 621 714 q 621 751 637 732 q 587 790 606 770 l 411 769 l 402 877 l 484 889 q 427 935 459 914 l 773 999 q 796 984 782 992 q 853 937 816 972 l 998 956 l 1022 843 "},"T":{"x_min":55.609375,"x_max":873.546875,"ha":929,"o":"m 873 789 l 873 694 l 611 680 q 603 524 606 602 q 600 370 600 447 q 596 181 600 275 q 584 -6 591 86 q 486 -11 535 -9 q 389 -13 438 -13 q 354 -12 371 -13 q 321 -12 337 -12 q 326 152 324 70 q 328 316 328 234 q 324 479 328 397 q 314 644 320 561 q 235 641 275 642 q 154 640 195 640 q 109 640 131 640 q 63 641 86 640 q 58 840 59 741 q 55 1039 56 940 q 459 1027 259 1034 q 862 1014 660 1020 q 870 901 868 956 q 873 789 873 846 "},"š":{"x_min":42.046875,"x_max":822,"ha":884,"o":"m 822 941 l 813 765 q 729 769 771 767 q 645 770 687 770 q 595 769 628 770 q 522 767 562 769 q 440 763 482 766 q 363 758 398 760 q 303 751 328 755 q 274 743 279 747 q 256 702 256 725 q 264 678 256 687 q 294 671 267 674 q 360 666 321 668 q 446 663 400 664 q 536 662 493 663 q 612 660 579 661 q 659 657 645 659 q 741 628 710 651 q 788 570 771 604 q 809 492 804 535 q 813 404 813 448 q 810 352 813 382 q 800 292 807 322 q 780 237 793 263 q 750 196 767 211 q 684 169 729 180 q 586 151 638 158 q 485 142 534 145 q 411 139 436 139 q 231 149 321 139 q 54 172 142 160 l 54 431 q 225 411 139 413 q 398 401 311 408 q 452 399 416 400 q 524 400 488 398 q 591 409 561 402 q 628 428 621 416 q 630 438 630 432 q 630 447 630 443 q 628 475 630 458 q 619 501 626 492 q 610 503 618 503 q 600 504 602 504 q 448 509 524 508 q 295 516 373 510 q 232 522 264 519 q 169 533 200 526 q 122 545 143 538 q 86 562 101 552 q 59 590 70 573 q 44 636 48 607 q 42 654 42 645 q 42 674 42 663 q 44 729 42 698 q 54 792 47 760 q 73 851 62 823 q 104 896 85 878 q 147 916 116 908 q 219 931 179 925 q 306 941 260 937 q 395 947 352 945 q 472 950 438 949 q 524 950 507 950 q 674 948 600 950 q 822 941 748 945 m 697 1315 q 566 1176 630 1246 q 432 1041 501 1107 q 295 1185 362 1113 q 160 1331 227 1258 l 302 1328 l 435 1171 l 569 1322 l 697 1315 "},"Þ":{"x_min":124.796875,"x_max":1093.296875,"ha":1169,"o":"m 1093 493 q 1083 385 1093 434 q 1048 299 1072 336 q 982 238 1024 263 q 876 204 940 214 q 788 194 832 198 q 698 191 743 191 q 542 199 621 191 q 386 219 463 207 l 378 -63 q 301 -66 339 -66 q 225 -66 264 -66 q 181 -66 202 -66 q 137 -69 160 -66 q 146 162 141 47 q 151 396 151 278 l 151 411 q 147 542 151 477 q 141 674 143 607 q 133 896 138 785 q 124 1117 128 1007 q 243 1126 185 1123 q 360 1131 301 1129 l 381 865 q 586 885 482 876 q 794 895 690 895 q 872 887 831 895 q 951 861 914 878 q 1018 816 988 843 q 1059 751 1047 789 q 1074 691 1068 724 q 1085 623 1081 657 q 1091 555 1089 588 q 1093 493 1093 522 m 824 518 q 822 552 824 533 q 808 584 819 571 q 741 632 781 615 q 660 648 701 648 q 518 637 594 648 q 378 613 443 626 l 385 397 q 493 369 436 382 q 603 356 550 356 q 645 356 617 356 q 704 358 674 356 q 760 364 735 359 q 794 379 786 368 q 808 407 803 389 q 817 446 813 425 q 822 486 820 466 q 824 518 824 505 "},"j":{"x_min":-146.5,"x_max":337.75,"ha":427,"o":"m 309 907 q 297 857 309 880 q 265 815 284 834 q 222 787 246 797 q 172 777 198 777 q 121 789 145 777 q 80 820 97 801 q 52 864 62 839 q 43 916 43 889 q 80 1003 43 968 q 169 1039 118 1039 q 220 1028 195 1039 q 265 1000 245 1018 q 297 958 284 982 q 309 907 309 934 m 337 504 q 337 290 337 396 q 336 75 337 184 q 335 5 336 40 q 333 -65 333 -29 q 330 -132 333 -96 q 319 -204 328 -169 q 290 -265 310 -238 q 236 -303 271 -293 q 184 -310 223 -307 q 100 -314 145 -313 q 15 -316 55 -316 q -37 -316 -24 -316 q -78 -315 -58 -316 q -118 -314 -99 -314 q -129 -216 -120 -263 q -146 -118 -138 -169 l -12 -105 q 29 -103 6 -104 q 70 -95 51 -101 q 101 -75 89 -89 q 113 -33 113 -61 q 108 90 113 28 q 99 215 103 153 q 84 419 92 317 q 67 625 75 520 q 96 623 82 623 q 124 623 109 623 q 231 627 177 623 q 337 633 284 630 l 337 504 "},"1":{"x_min":75.96875,"x_max":473.40625,"ha":578,"o":"m 473 4 q 309 14 390 10 q 147 18 229 17 l 184 743 l 75 754 q 105 884 97 819 q 124 1015 113 949 l 416 1024 q 445 514 432 767 q 473 4 458 260 "},"›":{"x_min":42.046875,"x_max":405.578125,"ha":406,"o":"m 405 215 l 107 -81 l 82 90 l 252 212 l 42 363 l 107 454 l 405 215 "},"ı":{"x_min":70.53125,"x_max":355.390625,"ha":439,"o":"m 355 676 q 344 534 348 604 q 336 393 340 463 q 318 229 330 310 q 288 66 305 147 l 81 44 q 82 130 81 88 q 82 215 82 172 q 78 438 82 326 q 70 660 74 549 q 212 668 142 663 q 355 676 282 674 "},"ä":{"x_min":42.046875,"x_max":1024.109375,"ha":1100,"o":"m 1024 611 q 1015 385 1024 497 q 999 160 1007 272 q 697 137 847 146 q 394 127 546 127 q 344 128 381 127 q 267 130 307 128 q 189 136 226 132 q 141 146 153 139 q 78 208 96 170 q 61 293 61 245 q 62 336 61 309 q 67 393 63 363 q 78 448 71 423 q 94 486 85 474 q 150 514 107 503 q 254 533 193 526 q 384 543 314 539 q 518 550 454 548 q 632 552 581 552 q 704 552 682 552 q 708 610 708 581 q 708 624 708 613 q 706 638 708 636 q 680 652 702 647 q 627 660 659 657 q 558 665 595 663 q 485 667 520 667 q 423 667 450 667 q 383 667 396 667 q 212 663 298 667 q 42 657 127 660 q 50 762 47 709 q 51 866 54 815 q 250 891 150 884 q 451 899 349 899 q 531 898 488 899 q 618 895 575 897 q 704 889 661 893 q 784 878 747 885 q 859 854 822 872 q 929 811 896 836 q 986 752 961 785 q 1021 680 1010 718 q 1023 667 1022 676 q 1024 646 1024 657 q 1024 625 1024 634 q 1024 611 1024 615 m 721 293 l 721 466 q 642 468 682 467 q 564 469 603 469 q 518 468 556 469 q 438 465 481 467 q 360 458 396 462 q 320 446 325 454 q 311 423 313 435 q 309 400 309 412 q 310 374 309 390 q 315 340 311 358 q 322 307 318 322 q 333 286 326 293 q 352 276 339 279 q 379 270 364 272 q 409 267 394 268 q 432 267 424 267 q 502 269 465 267 q 578 276 539 272 q 653 284 617 279 q 721 293 690 288 m 841 1120 q 831 1071 841 1094 q 803 1032 820 1049 q 763 1006 785 1015 q 715 996 740 996 q 670 1004 692 996 q 631 1027 648 1012 q 602 1061 613 1041 q 591 1105 591 1082 q 601 1158 591 1133 q 630 1203 612 1183 q 673 1234 648 1223 q 728 1244 698 1244 q 774 1234 753 1244 q 810 1205 795 1223 q 833 1165 825 1187 q 841 1120 841 1143 m 514 1122 q 477 1035 514 1071 q 388 1000 439 1000 q 344 1008 366 1000 q 305 1031 323 1016 q 277 1065 287 1045 q 266 1107 266 1084 q 277 1162 266 1136 q 306 1207 287 1187 q 349 1238 324 1227 q 403 1248 374 1248 q 447 1238 427 1248 q 483 1209 468 1227 q 506 1168 498 1191 q 514 1122 514 1145 "},"<":{"x_min":13.5625,"x_max":440.84375,"ha":482,"o":"m 440 139 l 417 1 q 217 185 318 94 q 13 370 115 275 q 111 448 61 409 q 206 531 161 488 q 311 636 259 584 q 417 740 364 689 l 417 583 q 298 464 360 522 q 179 344 236 406 q 239 297 208 320 q 301 252 269 274 q 373 199 337 229 q 440 139 408 169 "},"£":{"x_min":42.046875,"x_max":968.5,"ha":1009,"o":"m 968 -27 q 727 -11 847 -17 q 486 -5 607 -5 q 295 -8 390 -5 q 103 -18 199 -12 l 84 142 q 96 140 90 141 q 109 139 103 139 q 162 151 134 139 q 208 181 189 162 q 223 208 217 191 q 231 244 229 225 q 236 280 234 263 q 237 310 237 298 q 229 404 237 356 l 90 379 q 67 471 78 425 q 42 562 55 516 l 203 579 q 190 706 195 642 q 185 832 185 769 q 210 939 185 893 q 295 1003 234 984 q 324 1009 307 1007 q 357 1013 340 1011 q 390 1014 374 1014 q 419 1014 406 1014 q 523 1011 455 1014 q 663 1001 591 1007 q 801 986 736 995 q 899 964 866 976 q 931 927 919 956 q 951 862 944 897 q 961 791 959 826 q 964 739 964 756 l 964 718 q 814 714 887 724 q 667 693 741 704 q 661 734 666 702 q 649 801 656 766 q 632 866 642 836 q 610 899 622 895 q 582 904 595 903 q 554 906 569 906 q 514 904 539 906 q 462 897 489 902 q 411 885 435 892 q 378 868 387 877 q 374 857 375 865 q 371 838 373 849 q 370 819 370 828 q 370 808 370 811 q 378 693 370 751 q 396 579 386 636 l 561 583 l 567 430 l 421 425 q 424 351 423 389 q 425 274 425 313 q 415 214 425 245 q 392 160 405 183 q 531 177 461 168 q 671 193 600 185 q 727 198 698 198 q 782 198 755 198 q 956 193 868 198 l 968 -27 "},"¹":{"x_min":27.125,"x_max":348.609375,"ha":377,"o":"m 348 501 l 84 508 l 115 855 l 27 861 q 50 922 43 892 q 66 986 56 952 l 302 990 q 309 922 305 959 q 317 845 313 885 q 324 764 321 805 q 332 685 328 722 q 348 501 340 595 "},"t":{"x_min":42.046875,"x_max":729.765625,"ha":667,"o":"m 729 240 l 706 1 q 619 -3 663 -1 q 533 -5 576 -5 q 472 -4 510 -5 q 393 0 434 -2 q 316 10 352 4 q 257 25 279 16 q 204 65 225 40 q 169 118 183 89 q 147 181 155 147 q 135 246 139 214 q 129 314 131 278 q 126 387 127 349 q 126 461 126 425 q 126 529 126 497 l 126 569 l 42 569 q 48 690 47 630 q 54 811 48 750 l 135 808 l 135 1009 q 289 993 212 994 q 443 987 366 992 l 440 779 l 554 773 q 555 755 554 763 q 556 737 556 747 q 550 663 556 699 q 534 591 543 628 l 435 591 q 431 466 432 529 q 430 341 430 404 q 432 288 430 311 q 442 248 434 264 q 472 223 451 231 q 529 215 492 215 q 629 222 579 215 q 729 240 679 229 "},"¬":{"x_min":42.046875,"x_max":773.171875,"ha":829,"o":"m 773 250 l 629 245 q 617 326 622 286 q 600 406 611 366 q 324 399 461 406 q 48 379 188 392 q 50 413 50 396 q 51 447 51 430 q 48 489 51 467 q 42 530 46 510 q 113 529 78 529 q 185 529 149 529 q 434 533 310 529 q 683 538 557 538 l 746 538 q 759 395 752 466 q 773 250 766 324 "},"ù":{"x_min":62.390625,"x_max":984.78125,"ha":1062,"o":"m 984 69 l 755 59 l 739 196 q 677 137 713 161 q 600 97 641 112 q 514 76 558 82 q 428 70 470 70 q 347 75 396 70 q 250 91 299 81 q 158 118 200 101 q 97 155 116 134 q 75 208 82 172 q 65 284 67 244 q 62 363 62 325 q 62 424 62 401 q 70 625 62 526 q 93 822 78 724 q 174 826 131 826 q 245 821 210 826 q 316 809 280 816 q 317 770 316 803 q 320 693 318 737 q 325 597 322 648 q 331 503 328 546 q 339 429 335 459 q 349 396 344 398 q 394 382 370 383 q 442 381 419 381 q 493 383 458 381 q 564 389 527 385 q 632 402 600 394 q 674 420 663 409 q 680 446 678 424 q 682 493 682 467 q 684 541 683 519 q 685 568 685 564 q 682 689 685 629 q 676 809 679 748 l 940 822 q 954 632 948 727 q 972 443 961 538 q 977 379 976 412 q 979 314 978 347 q 982 192 982 253 q 984 69 983 131 m 597 949 l 548 873 q 476 914 509 895 q 411 954 443 933 q 349 998 380 974 q 284 1050 318 1021 l 382 1184 q 445 1119 413 1152 q 508 1050 478 1086 q 552 998 529 1023 q 597 949 574 974 "},"W":{"x_min":0,"x_max":1261.5,"ha":1310,"o":"m 1261 988 q 1190 495 1233 735 q 1091 6 1148 256 q 1060 5 1077 5 q 1029 5 1044 5 q 959 6 994 5 q 889 14 925 8 q 798 194 846 105 q 709 377 751 283 q 666 287 690 330 q 615 200 642 244 q 548 93 580 147 q 484 -16 515 39 l 263 -10 q 204 230 231 111 q 149 472 176 349 q 76 772 113 623 q 0 1071 39 921 l 393 1071 q 402 982 398 1026 q 411 893 406 937 q 435 659 421 775 q 462 425 448 543 q 509 590 485 508 q 561 752 533 671 q 609 897 585 826 q 653 1041 632 968 l 720 1041 q 820 719 765 877 q 941 404 876 561 q 1000 701 975 552 q 1052 999 1025 850 l 1261 988 "},"ï":{"x_min":-66.828125,"x_max":508.296875,"ha":439,"o":"m 355 676 q 344 534 348 604 q 336 393 340 463 q 318 229 330 310 q 288 66 305 147 l 81 44 q 82 130 81 88 q 82 215 82 172 q 78 438 82 326 q 70 660 74 549 q 212 668 142 663 q 355 676 282 674 m 508 956 q 498 907 508 930 q 470 868 487 885 q 430 842 452 851 q 382 832 407 832 q 337 840 359 832 q 298 863 315 848 q 269 897 280 877 q 258 941 258 918 q 268 994 258 969 q 297 1039 279 1019 q 340 1070 315 1059 q 395 1080 365 1080 q 441 1070 420 1080 q 477 1041 462 1059 q 500 1001 492 1023 q 508 956 508 979 m 181 958 q 144 871 181 907 q 55 836 106 836 q 11 844 33 836 q -27 867 -9 852 q -55 901 -45 881 q -66 943 -66 920 q -55 998 -66 972 q -26 1043 -45 1023 q 16 1074 -8 1063 q 70 1084 41 1084 q 114 1074 94 1084 q 150 1045 135 1063 q 173 1004 165 1027 q 181 958 181 981 "},">":{"x_min":42.046875,"x_max":467.96875,"ha":482,"o":"m 467 370 q 265 185 367 275 q 63 1 162 94 l 42 139 q 108 199 73 169 q 180 252 143 229 q 243 297 212 274 q 302 344 274 320 q 183 464 245 406 q 63 583 120 522 l 63 740 q 170 636 116 689 q 276 531 223 584 q 370 448 320 488 q 467 370 420 409 "},"v":{"x_min":-20.34375,"x_max":903.390625,"ha":882,"o":"m 903 765 q 804 583 853 671 q 704 411 755 496 q 599 242 653 326 q 484 71 545 158 l 248 62 l -20 771 l 280 779 q 333 528 307 653 q 385 275 358 402 q 484 512 436 394 q 572 755 533 630 q 737 756 656 755 q 903 765 819 758 "},"û":{"x_min":62.390625,"x_max":984.78125,"ha":1062,"o":"m 984 69 l 755 59 l 739 196 q 677 137 713 161 q 600 97 641 112 q 514 76 558 82 q 428 70 470 70 q 347 75 396 70 q 250 91 299 81 q 158 118 200 101 q 97 155 116 134 q 75 208 82 172 q 65 284 67 244 q 62 363 62 325 q 62 424 62 401 q 70 625 62 526 q 93 822 78 724 q 174 826 131 826 q 245 821 210 826 q 316 809 280 816 q 317 770 316 803 q 320 693 318 737 q 325 597 322 648 q 331 503 328 546 q 339 429 335 459 q 349 396 344 398 q 394 382 370 383 q 442 381 419 381 q 493 383 458 381 q 564 389 527 385 q 632 402 600 394 q 674 420 663 409 q 680 446 678 424 q 682 493 682 467 q 684 541 683 519 q 685 568 685 564 q 682 689 685 629 q 676 809 679 748 l 940 822 q 954 632 948 727 q 972 443 961 538 q 977 379 976 412 q 979 314 978 347 q 982 192 982 253 q 984 69 983 131 m 766 1002 l 638 997 l 504 1147 l 371 990 l 229 986 q 364 1133 296 1060 q 501 1276 431 1206 q 635 1141 570 1210 q 766 1002 699 1073 "},"Ò":{"x_min":82.75,"x_max":1214.015625,"ha":1297,"o":"m 1214 579 q 1214 544 1214 561 q 1212 511 1214 527 q 1209 463 1211 497 q 1203 385 1207 430 q 1195 292 1200 341 q 1184 202 1190 244 q 1171 131 1178 161 q 1158 94 1165 101 q 1061 34 1117 54 q 944 8 1005 14 q 822 2 883 1 q 708 4 760 4 q 648 4 690 4 q 552 6 606 5 q 440 11 499 8 q 331 21 382 14 q 243 35 280 27 q 196 58 206 44 q 177 90 185 73 q 162 124 169 108 q 130 220 145 169 q 105 324 115 271 q 88 431 94 378 q 82 531 82 484 q 86 598 82 557 q 97 688 90 640 q 113 786 104 736 q 134 880 123 836 q 160 955 146 923 q 189 998 173 987 q 240 1015 203 1007 q 325 1030 276 1024 q 429 1041 374 1036 q 535 1049 485 1045 q 626 1053 585 1052 q 686 1055 667 1055 q 756 1052 712 1055 q 851 1043 800 1049 q 956 1028 903 1037 q 1054 1007 1009 1020 q 1132 980 1100 995 q 1173 948 1165 965 q 1186 905 1180 933 q 1196 842 1192 877 q 1203 767 1200 807 q 1209 692 1207 728 q 1212 626 1211 656 q 1214 579 1214 596 m 971 534 q 968 592 971 561 q 950 645 965 622 q 898 671 940 661 q 807 685 857 680 q 712 689 758 689 q 647 690 666 690 q 594 687 632 690 q 516 678 557 685 q 439 663 474 672 q 396 642 404 655 q 383 607 387 633 q 375 550 378 580 q 370 491 371 519 q 368 451 368 463 q 369 419 368 440 q 373 374 370 397 q 379 330 375 351 q 389 301 382 310 q 413 288 393 294 q 463 278 434 283 q 524 271 492 274 q 588 266 557 268 q 642 263 618 264 q 675 263 666 263 q 731 265 691 263 q 815 274 771 268 q 897 289 859 280 q 945 310 934 298 q 959 350 953 320 q 967 417 964 381 q 970 486 969 453 q 971 534 971 519 m 832 1213 l 783 1137 q 711 1178 744 1159 q 646 1218 678 1197 q 584 1262 615 1238 q 519 1314 553 1285 l 617 1448 q 680 1383 648 1416 q 743 1314 713 1350 q 787 1262 764 1287 q 832 1213 809 1238 "},"&":{"x_min":42.046875,"x_max":1165.1875,"ha":1165,"o":"m 1165 14 l 1026 -89 l 828 51 q 777 21 803 36 q 725 -6 751 6 q 563 -73 644 -50 q 389 -97 482 -97 q 299 -92 344 -97 q 208 -75 253 -86 q 162 -63 181 -70 q 128 -45 143 -55 q 98 -20 112 -35 q 67 14 84 -5 q 46 67 50 37 q 42 124 42 97 q 47 204 42 164 q 63 282 52 244 q 97 347 70 307 q 158 429 124 387 q 224 507 192 470 q 274 562 256 543 q 240 590 263 571 q 191 631 217 609 q 143 674 165 653 q 116 706 122 695 q 105 756 105 727 q 111 815 105 779 q 128 889 118 851 q 153 960 139 927 q 185 1007 168 992 q 248 1034 204 1025 q 341 1047 291 1043 q 436 1052 390 1051 q 510 1055 482 1053 q 533 1056 520 1056 q 557 1056 545 1056 q 633 1051 591 1056 q 717 1035 675 1047 q 797 1005 759 1024 q 859 960 835 987 q 868 937 866 953 q 869 914 869 922 q 861 842 869 880 q 842 771 853 804 l 588 758 q 590 798 590 778 q 591 836 591 817 q 590 853 591 839 q 589 884 590 868 q 586 914 588 900 q 580 929 584 927 q 559 933 569 933 q 537 934 549 934 q 510 933 529 934 q 469 931 491 933 q 429 926 447 929 q 405 921 411 923 q 389 893 392 914 q 386 861 386 873 q 387 836 386 849 q 392 811 389 823 q 418 747 397 784 q 465 674 439 710 q 520 604 492 637 q 567 553 548 572 q 636 488 598 520 q 714 424 674 455 q 794 363 754 393 q 872 307 835 333 q 921 339 892 320 q 964 379 949 359 q 983 403 973 392 q 1003 425 992 415 l 1148 295 q 1084 224 1117 256 q 1011 160 1051 192 l 1165 14 m 706 204 q 554 324 629 264 q 401 444 478 383 q 371 409 390 432 q 334 361 352 386 q 302 310 316 336 q 288 267 288 284 q 314 203 288 234 q 374 147 339 172 q 448 106 409 122 q 516 90 488 90 q 528 91 523 90 q 539 94 533 92 q 578 114 554 100 q 626 145 602 128 q 672 178 651 162 q 706 204 694 193 "},"˝":{"x_min":360.8125,"x_max":938.65625,"ha":1298,"o":"m 674 1036 q 609 984 640 1007 q 548 940 579 960 q 483 900 516 919 q 411 859 450 881 l 360 935 q 406 984 383 960 q 450 1036 430 1009 q 512 1105 480 1072 q 576 1170 545 1138 l 674 1036 m 938 1036 q 872 984 903 1007 q 811 940 842 960 q 746 900 779 919 q 674 859 713 881 l 623 935 q 670 984 648 960 q 714 1036 693 1009 q 775 1105 743 1072 q 841 1170 808 1138 l 938 1036 "},"Ð":{"x_min":55.609375,"x_max":1090.578125,"ha":1180,"o":"m 158 473 l 55 473 l 61 583 q 105 584 84 584 q 150 585 127 584 q 135 786 142 686 q 124 987 128 885 q 352 978 240 983 q 579 965 463 973 q 666 959 609 963 q 787 947 724 954 q 905 929 850 940 q 983 902 960 918 q 1039 839 1014 878 q 1075 762 1064 800 q 1083 707 1081 744 q 1087 628 1086 670 q 1089 546 1089 585 q 1090 486 1090 507 q 1089 404 1090 447 q 1081 321 1089 360 q 1066 269 1074 291 q 1045 228 1058 246 q 1015 194 1033 210 q 972 164 998 179 q 929 149 964 158 q 841 128 893 141 q 725 103 789 116 q 592 76 660 89 q 459 50 524 63 q 340 27 394 37 q 248 10 286 17 q 199 1 211 2 q 178 237 188 120 q 158 473 168 354 m 577 473 l 390 473 q 396 390 393 431 q 401 307 398 349 q 475 315 427 309 q 574 331 523 321 q 668 357 625 341 q 731 394 712 373 q 748 429 746 411 q 751 469 751 447 q 750 501 751 484 q 748 533 750 518 q 741 578 746 554 q 729 624 737 602 q 709 666 721 647 q 679 701 697 686 q 632 714 670 709 q 552 720 595 718 q 472 723 510 722 q 421 724 434 724 l 366 724 q 374 655 370 689 q 381 587 378 622 l 567 587 l 577 473 "},"I":{"x_min":35.265625,"x_max":623.96875,"ha":707,"o":"m 623 995 q 618 830 617 912 q 617 667 619 748 l 466 672 q 464 579 465 625 q 463 485 463 533 q 464 373 463 428 q 466 261 465 318 l 604 259 q 602 179 602 219 q 602 97 602 138 q 604 29 602 63 q 613 -36 606 -4 l 126 -44 q 124 86 126 21 q 119 217 123 150 l 207 218 q 191 470 200 345 q 173 721 183 595 l 44 737 q 40 851 42 794 q 35 964 37 907 q 328 977 183 969 q 623 995 474 984 "},"G":{"x_min":75.96875,"x_max":982.0625,"ha":1073,"o":"m 982 -21 q 646 -13 817 -18 q 310 10 474 -8 q 267 15 291 13 q 225 24 244 17 q 163 57 185 39 q 128 99 141 75 q 111 152 116 123 q 101 218 105 181 q 82 408 89 313 q 75 600 75 504 q 76 643 75 618 q 79 695 77 668 q 85 747 81 722 q 96 788 89 771 q 191 901 128 858 q 330 967 255 944 q 487 999 406 991 q 636 1006 568 1006 q 926 978 781 1006 l 937 687 q 651 731 798 731 q 579 728 623 731 q 487 718 534 725 q 400 696 440 710 q 343 657 359 682 q 328 623 335 645 q 319 578 322 602 q 314 531 316 554 q 313 493 313 508 q 318 419 313 462 q 329 332 322 377 q 345 246 336 287 q 366 180 355 206 l 606 180 l 594 442 q 781 436 687 435 q 969 436 876 436 q 980 207 979 321 q 982 -21 982 93 "},"`":{"x_min":492.390625,"x_max":805.734375,"ha":1298,"o":"m 805 935 l 756 859 q 684 900 717 881 q 619 940 651 919 q 557 984 588 960 q 492 1036 526 1007 l 590 1170 q 653 1105 621 1138 q 716 1036 686 1072 q 760 984 737 1009 q 805 935 782 960 "},"·":{"x_min":42.046875,"x_max":269.9375,"ha":311,"o":"m 269 480 q 269 462 269 473 q 268 440 269 451 q 264 419 267 430 q 256 405 261 409 q 235 398 250 401 q 200 394 219 396 q 164 391 181 392 q 138 390 146 390 q 120 390 131 390 q 96 392 108 390 q 73 396 84 393 q 59 405 63 400 q 50 426 54 412 q 45 456 47 440 q 42 487 43 472 q 42 511 42 503 q 44 552 42 526 q 59 588 47 577 q 79 594 63 592 q 113 598 94 596 q 149 601 131 600 q 173 602 166 602 q 191 601 180 602 q 215 599 203 600 q 238 595 227 598 q 253 588 249 592 q 261 568 259 583 q 266 536 264 553 q 269 503 268 519 q 269 480 269 488 "},"r":{"x_min":35.265625,"x_max":854.5625,"ha":861,"o":"m 854 572 l 854 541 l 592 529 q 596 569 596 546 q 587 613 596 603 q 545 623 577 623 q 443 607 499 623 q 345 576 387 591 q 335 457 339 516 q 330 337 330 397 q 331 205 330 271 q 333 73 332 139 l 100 58 q 86 231 93 145 q 74 404 80 317 q 56 634 67 519 q 35 865 46 748 q 189 849 112 859 q 343 824 265 839 l 336 710 q 414 767 377 743 q 490 807 451 790 q 572 830 529 823 q 668 838 615 838 q 741 830 704 838 q 807 796 779 823 q 830 751 820 781 q 845 688 839 721 q 852 623 850 655 q 854 572 854 591 "},"¿":{"x_min":35.265625,"x_max":870.84375,"ha":884,"o":"m 35 109 q 35 141 35 119 q 35 189 35 164 q 38 237 36 215 q 44 267 40 259 q 96 319 59 297 q 166 348 134 341 q 202 354 184 352 q 238 356 221 355 q 320 361 279 359 q 402 366 362 363 q 406 446 406 406 q 401 487 406 465 q 390 527 396 510 l 652 533 l 652 199 l 626 200 q 575 201 615 202 q 489 198 534 200 q 404 190 443 195 q 355 179 364 185 q 326 137 333 161 q 320 88 320 113 q 369 -48 320 -1 q 505 -96 419 -96 q 580 -84 535 -96 q 672 -54 625 -71 q 761 -18 718 -37 q 831 12 804 0 q 852 -144 843 -66 q 870 -301 861 -222 q 687 -306 778 -303 q 503 -309 595 -309 q 435 -309 482 -309 q 335 -307 387 -309 q 237 -302 283 -305 q 172 -293 191 -299 q 103 -257 137 -282 q 54 -196 70 -231 q 44 -141 48 -184 q 38 -48 40 -99 q 35 47 36 1 q 35 109 35 93 m 390 668 q 405 714 390 691 q 442 753 420 736 q 489 780 463 770 q 535 790 514 790 q 578 783 556 790 q 619 763 600 775 q 649 731 637 750 q 661 689 661 712 q 646 641 661 661 q 607 606 630 621 q 557 583 584 591 q 508 576 530 576 q 440 593 470 576 q 394 645 409 610 q 390 668 390 655 "},"ý":{"x_min":48.828125,"x_max":998.34375,"ha":1082,"o":"m 998 267 q 998 223 998 252 q 996 159 998 195 q 993 84 995 123 q 988 11 991 46 q 981 -49 986 -23 q 971 -86 976 -75 q 928 -143 948 -123 q 885 -170 908 -162 q 833 -179 862 -179 q 765 -180 804 -180 q 505 -170 634 -180 q 248 -146 377 -160 l 248 39 q 301 40 260 39 q 398 42 343 40 q 516 46 454 43 q 633 52 579 48 q 727 62 687 56 q 775 75 766 67 q 795 105 788 85 q 806 146 803 124 q 811 189 809 168 q 812 225 812 211 q 812 250 812 238 q 811 278 812 263 q 756 208 790 231 q 680 176 722 185 q 592 166 638 166 q 504 165 546 165 q 334 172 416 165 q 189 211 252 180 q 87 305 126 242 q 48 480 48 368 q 63 699 48 590 q 101 915 78 808 l 387 912 q 347 739 364 827 q 329 561 329 651 q 336 484 329 514 q 360 436 343 454 q 409 411 378 417 q 488 404 440 404 q 535 406 507 404 q 592 414 562 409 q 647 427 621 419 q 689 447 674 435 q 698 474 694 451 q 705 529 702 497 q 709 598 708 561 q 711 667 710 634 q 712 723 712 699 q 712 754 712 747 q 712 845 712 800 q 709 937 712 891 q 840 925 775 930 q 971 918 904 921 q 982 657 976 786 q 995 397 988 529 q 998 331 998 364 q 998 267 998 298 m 779 1189 q 715 1137 745 1160 q 653 1093 684 1113 q 589 1053 622 1072 q 516 1012 555 1034 l 466 1088 q 513 1137 490 1113 q 557 1189 535 1162 q 618 1258 585 1225 q 683 1323 650 1291 l 779 1189 "},"x":{"x_min":-82.75,"x_max":915.59375,"ha":860,"o":"m 915 900 q 750 718 830 809 q 661 626 706 671 q 571 537 615 580 q 720 325 647 431 q 872 116 793 219 l 609 109 q 501 246 553 179 q 389 375 450 314 l 132 131 q 26 137 80 134 q -82 141 -27 141 q -70 155 -82 142 q -40 189 -58 169 q 0 232 -21 208 q 43 277 23 256 q 79 314 63 298 q 100 336 94 330 q 181 427 141 381 q 263 520 222 474 l -54 885 l 265 893 l 401 672 q 451 729 430 704 q 491 778 472 754 q 529 829 510 803 q 571 891 548 855 l 915 900 "},"è":{"x_min":34.359375,"x_max":991.5625,"ha":1027,"o":"m 991 503 q 637 487 813 493 q 283 474 461 481 q 282 463 282 469 q 282 453 282 458 q 303 382 282 406 q 355 347 324 358 q 424 336 386 337 q 495 335 462 335 q 676 341 585 335 q 859 354 767 347 l 870 138 q 692 131 781 134 q 514 128 603 128 q 444 129 495 128 q 335 133 393 130 q 227 142 278 137 q 161 157 177 147 q 95 219 119 181 q 59 302 71 257 q 41 394 46 347 q 35 484 36 440 q 34 498 33 491 q 35 512 35 505 q 50 646 35 584 q 108 766 66 708 q 192 834 137 807 q 313 876 248 861 q 443 898 378 892 q 556 904 508 904 q 659 897 598 904 q 780 872 720 889 q 889 826 841 854 q 956 758 938 798 q 962 730 959 750 q 969 685 965 710 q 977 632 973 660 q 983 577 980 603 q 988 531 986 552 q 991 503 990 511 m 807 602 q 776 696 798 661 q 720 748 754 731 q 644 769 687 765 q 553 774 602 774 q 512 773 537 774 q 463 769 488 773 q 417 759 439 766 q 383 740 396 752 q 368 718 374 732 q 358 687 362 704 q 352 655 354 671 q 349 629 349 640 q 354 587 349 607 l 807 602 m 682 1060 l 633 984 q 561 1025 594 1006 q 496 1065 528 1044 q 434 1109 465 1085 q 369 1161 403 1132 l 467 1295 q 530 1230 498 1263 q 593 1161 563 1197 q 637 1109 614 1134 q 682 1060 659 1085 "},"º":{"x_min":27.125,"x_max":626.671875,"ha":654,"o":"m 626 725 q 621 680 626 702 q 598 644 617 659 q 535 611 579 626 q 440 583 491 595 q 343 564 390 571 q 268 557 295 557 q 219 559 250 557 q 153 568 187 561 q 93 586 120 575 q 58 617 66 598 q 46 653 51 630 q 36 701 40 676 q 29 750 32 727 q 27 790 27 774 q 29 818 27 804 q 40 845 31 832 q 89 879 54 861 q 166 913 124 897 q 246 938 207 929 q 305 948 284 948 q 347 947 320 948 q 408 943 375 946 q 474 934 440 940 q 537 919 508 929 q 585 895 565 910 q 609 862 604 881 q 620 794 614 828 q 626 725 626 759 m 484 767 q 468 810 484 793 q 429 836 453 827 q 381 848 406 845 q 336 851 356 851 q 283 846 313 851 q 227 828 253 841 q 182 796 200 816 q 164 748 164 777 q 179 705 164 722 q 216 676 193 687 q 263 659 238 664 q 309 653 288 653 q 364 660 333 653 q 421 680 394 667 q 465 716 447 694 q 484 767 484 737 "},"Ø":{"x_min":-42.046875,"x_max":1037.6875,"ha":996,"o":"m 1037 1014 l 906 868 q 914 682 912 774 q 916 496 916 590 q 915 423 916 469 q 909 328 914 377 q 894 238 904 280 q 868 174 884 195 q 764 73 813 107 q 661 24 714 39 q 545 8 607 9 q 401 8 482 8 q 366 8 389 8 q 320 10 344 8 q 274 14 295 12 q 242 24 253 17 q 205 60 223 36 q 180 104 187 84 l 33 -43 q 8 -20 18 -31 q -11 1 -2 -9 q -27 25 -20 12 q -42 56 -33 39 l 137 238 q 124 323 130 278 q 114 415 119 368 q 107 507 109 462 q 104 594 104 553 q 107 662 104 618 q 115 754 109 706 q 131 843 122 801 q 155 904 141 884 q 233 977 189 950 q 326 1017 276 1003 q 429 1034 375 1030 q 537 1037 482 1037 q 598 1035 561 1037 q 674 1027 636 1033 q 747 1011 713 1021 q 797 984 781 1001 l 919 1113 q 986 1072 961 1096 q 1037 1014 1010 1049 m 644 807 q 636 847 644 832 q 613 870 628 862 q 581 878 599 877 q 541 880 562 880 q 501 878 523 880 q 456 873 478 877 q 413 862 434 869 q 377 843 392 855 q 360 804 366 835 q 351 737 354 773 q 347 669 348 701 q 345 626 345 637 q 347 535 345 580 q 352 444 349 489 l 644 807 m 670 615 l 360 241 q 361 226 360 237 q 364 204 362 215 q 372 183 367 192 q 383 170 377 173 q 404 166 390 168 q 435 164 419 165 q 466 162 451 162 q 489 162 481 162 q 516 162 500 162 q 547 164 531 162 q 577 169 562 166 q 600 179 592 172 q 623 219 613 188 q 640 293 633 250 q 653 385 648 336 q 662 479 659 434 q 668 561 666 524 q 670 615 670 598 "},"÷":{"x_min":42.046875,"x_max":571.0625,"ha":613,"o":"m 420 725 q 410 687 420 706 q 383 653 400 668 q 347 630 367 638 q 310 621 328 621 q 276 630 293 621 q 247 653 260 638 q 227 685 234 667 q 219 720 219 702 q 230 758 219 740 q 259 791 241 777 q 297 814 276 805 q 336 823 317 823 q 368 813 354 823 q 395 790 383 804 q 413 758 406 775 q 420 725 420 740 m 571 462 q 310 455 439 459 q 50 439 181 450 l 42 558 q 94 557 67 557 q 147 557 120 557 q 352 564 250 557 q 558 579 454 572 l 571 462 m 416 291 q 406 253 416 272 q 380 219 396 234 q 345 196 364 204 q 306 187 325 187 q 271 196 287 187 q 242 219 255 204 q 223 250 230 233 q 215 286 215 268 q 226 325 215 306 q 255 358 237 344 q 293 381 272 373 q 333 390 314 390 q 366 381 351 390 q 392 356 381 371 q 409 324 402 341 q 416 291 416 307 "},"h":{"x_min":42.046875,"x_max":980.703125,"ha":1036,"o":"m 980 529 q 974 427 980 478 q 961 326 968 377 q 937 152 950 238 q 910 -21 923 66 q 779 -27 843 -23 q 651 -36 716 -31 q 651 159 651 62 q 647 354 651 256 q 646 402 647 373 q 640 451 645 432 q 619 494 632 482 q 572 505 607 505 q 515 500 548 505 q 448 486 482 495 q 384 468 415 478 q 333 447 354 458 q 307 229 322 337 q 287 9 291 120 l 96 18 q 67 505 81 263 q 42 991 54 747 l 340 1010 q 335 832 337 921 q 329 653 332 743 q 387 687 355 675 q 455 702 420 698 q 524 706 489 706 q 592 706 560 706 q 703 703 641 706 q 821 684 765 699 q 921 634 877 668 q 979 539 964 600 q 980 534 980 537 q 980 529 980 531 "},".":{"x_min":55.609375,"x_max":283.5,"ha":339,"o":"m 283 50 q 283 32 283 43 q 282 10 283 21 q 278 -10 280 0 q 271 -24 275 -20 q 249 -31 265 -28 q 214 -37 233 -35 q 178 -40 195 -39 q 153 -40 161 -40 q 133 -40 145 -40 q 109 -37 122 -39 q 87 -33 97 -36 q 73 -24 77 -29 q 64 -4 67 -18 q 59 25 61 9 q 56 56 56 42 q 55 80 55 71 q 58 122 55 96 q 73 158 61 147 q 92 164 77 162 q 126 168 108 166 q 162 171 145 170 q 187 172 180 172 q 229 170 202 172 q 268 158 257 168 q 276 137 272 151 q 280 106 279 123 q 282 73 282 89 q 283 50 283 58 "},";":{"x_min":55.609375,"x_max":339.109375,"ha":395,"o":"m 283 443 q 282 404 283 430 q 271 368 280 378 q 249 361 265 364 q 214 356 233 358 q 178 354 195 355 q 153 354 161 354 q 133 354 145 354 q 109 355 122 354 q 87 360 97 356 q 73 368 77 363 q 64 389 67 375 q 59 419 61 404 q 56 451 56 435 q 55 474 55 466 q 58 516 55 491 q 73 552 61 541 q 92 558 77 556 q 126 562 108 561 q 162 564 145 564 q 187 565 180 565 q 205 565 193 565 q 229 564 217 565 q 252 560 241 562 q 268 552 263 557 q 276 531 272 546 q 280 499 279 516 q 282 467 282 482 q 283 443 283 451 m 339 2 q 320 -88 339 -44 q 278 -172 301 -131 l 130 -172 q 158 -139 143 -155 q 185 -103 173 -122 q 205 -65 198 -85 q 212 -21 212 -44 q 212 -14 212 -18 q 211 -6 211 -10 l 82 -4 q 65 46 74 14 q 56 99 56 78 q 70 154 56 126 q 103 204 84 183 l 306 187 q 330 96 321 142 q 339 2 339 50 "},"f":{"x_min":27.125,"x_max":637.53125,"ha":638,"o":"m 637 961 q 634 885 637 922 q 625 808 630 847 q 603 809 618 809 q 560 807 584 809 q 513 798 537 804 q 467 781 489 792 q 432 756 446 771 q 403 713 417 739 q 389 663 389 687 q 390 647 389 652 l 542 640 q 548 595 545 618 q 550 550 550 572 q 549 508 550 529 q 546 467 548 488 l 415 440 q 438 209 425 324 q 457 -21 450 94 q 424 -21 440 -21 q 393 -20 408 -20 q 254 -25 322 -20 q 116 -31 185 -29 l 128 417 l 27 412 l 27 448 q 32 542 27 496 q 40 636 37 588 q 104 639 84 637 q 131 644 124 641 q 137 651 139 647 q 145 739 139 697 q 155 811 149 774 q 173 868 162 847 q 252 967 207 933 q 352 1018 298 1002 q 465 1035 405 1033 q 591 1037 526 1037 q 612 1037 602 1037 q 633 1036 622 1037 q 637 961 637 996 "},"“":{"x_min":55.609375,"x_max":671.4375,"ha":699,"o":"m 671 754 q 657 699 671 727 q 626 649 642 671 l 411 649 q 387 743 396 695 q 378 838 378 790 q 400 935 378 888 q 447 1024 423 983 l 594 1026 q 540 957 567 992 q 514 877 514 922 q 514 868 514 872 q 515 859 515 864 l 642 858 q 651 835 647 849 q 661 807 656 822 q 668 777 666 792 q 671 754 671 763 m 348 751 q 335 696 348 724 q 303 647 321 668 l 89 647 q 55 835 55 741 q 78 932 55 885 q 124 1021 101 979 l 272 1024 q 244 990 259 1007 q 218 954 230 972 q 198 916 206 935 q 191 873 191 896 q 192 857 191 862 l 321 855 q 330 832 325 846 q 339 804 335 819 q 345 775 343 789 q 348 751 348 760 "},"A":{"x_min":104.453125,"x_max":980.703125,"ha":1023,"o":"m 980 4 l 774 -27 q 731 110 752 42 q 689 248 709 179 l 355 236 l 313 55 l 104 55 q 143 514 123 286 q 183 971 164 741 q 377 998 280 987 q 573 1009 474 1009 q 815 1005 694 1009 q 857 723 836 864 q 902 442 878 583 q 937 222 918 330 q 980 4 957 113 m 641 432 q 634 478 640 444 q 622 548 629 511 q 607 616 615 585 q 590 652 598 647 q 577 655 587 653 q 555 657 567 656 q 533 659 543 659 q 518 659 522 659 q 499 659 511 659 q 475 658 488 659 q 451 655 462 657 q 435 648 439 652 q 428 630 432 647 q 418 590 424 614 q 406 539 412 567 q 394 488 400 512 q 385 446 389 463 q 381 425 382 428 l 641 432 "},"6":{"x_min":75.96875,"x_max":914.25,"ha":963,"o":"m 914 634 l 581 610 q 583 660 583 634 q 584 710 584 686 q 584 729 584 713 q 583 763 584 744 q 580 796 581 781 q 576 813 579 811 q 560 818 571 816 q 539 821 550 820 q 518 822 529 822 q 503 822 508 822 q 416 816 451 822 q 360 793 381 811 q 329 742 339 775 q 320 655 320 709 q 322 547 320 600 q 328 440 325 493 q 379 470 345 458 q 449 488 412 481 q 523 497 486 495 q 587 500 560 500 q 642 498 604 500 q 719 490 679 496 q 792 472 759 484 q 834 440 826 461 q 848 388 842 423 q 858 315 854 354 q 865 240 862 276 q 868 185 868 204 q 866 140 868 165 q 857 96 864 115 q 787 -2 835 39 q 682 -59 739 -44 q 614 -68 651 -67 q 545 -69 577 -69 q 474 -67 516 -69 q 385 -61 431 -66 q 299 -48 340 -56 q 234 -27 259 -40 q 125 63 162 10 q 78 195 88 115 q 75 233 75 214 q 75 271 75 252 q 77 348 75 301 q 81 452 78 396 q 88 569 84 508 q 99 685 93 630 q 114 783 105 739 q 135 851 123 827 q 198 942 164 910 q 274 989 231 975 q 365 1006 316 1003 q 476 1009 415 1009 q 562 1008 505 1009 q 678 1004 618 1007 q 789 992 737 1001 q 861 968 841 984 q 878 935 870 960 q 891 878 885 911 q 900 806 896 845 q 908 733 904 767 q 912 672 911 698 q 914 634 914 645 m 647 248 q 640 303 647 282 q 621 335 634 324 q 586 349 609 345 q 531 354 564 354 q 483 350 518 354 q 411 341 448 347 q 341 328 374 336 q 298 311 307 321 q 283 276 286 301 q 280 236 280 250 q 281 215 280 227 q 283 188 282 202 q 287 162 284 174 q 294 142 290 150 q 333 128 299 134 q 408 118 367 122 q 485 113 448 115 q 534 112 522 112 q 550 112 539 112 q 572 113 560 112 q 594 115 584 113 q 610 119 604 116 q 627 141 619 124 q 638 179 634 158 q 644 219 642 199 q 647 248 647 238 "},"‘":{"x_min":55.609375,"x_max":348.609375,"ha":377,"o":"m 348 751 q 335 696 348 724 q 303 647 321 668 l 89 647 q 55 835 55 741 q 78 932 55 885 q 124 1021 101 979 l 272 1024 q 244 990 259 1007 q 218 954 230 972 q 198 916 206 935 q 191 873 191 896 q 192 857 191 862 l 321 855 q 330 832 325 846 q 339 804 335 819 q 345 775 343 789 q 348 751 348 760 "},"O":{"x_min":82.75,"x_max":1214.015625,"ha":1297,"o":"m 1214 579 q 1214 544 1214 561 q 1212 511 1214 527 q 1209 463 1211 497 q 1203 385 1207 430 q 1195 292 1200 341 q 1184 202 1190 244 q 1171 131 1178 161 q 1158 94 1165 101 q 1061 34 1117 54 q 944 8 1005 14 q 822 2 883 1 q 708 4 760 4 q 648 4 690 4 q 552 6 606 5 q 440 11 499 8 q 331 21 382 14 q 243 35 280 27 q 196 58 206 44 q 177 90 185 73 q 162 124 169 108 q 130 220 145 169 q 105 324 115 271 q 88 431 94 378 q 82 531 82 484 q 86 598 82 557 q 97 688 90 640 q 113 786 104 736 q 134 880 123 836 q 160 955 146 923 q 189 998 173 987 q 240 1015 203 1007 q 325 1030 276 1024 q 429 1041 374 1036 q 535 1049 485 1045 q 626 1053 585 1052 q 686 1055 667 1055 q 756 1052 712 1055 q 851 1043 800 1049 q 956 1028 903 1037 q 1054 1007 1009 1020 q 1132 980 1100 995 q 1173 948 1165 965 q 1186 905 1180 933 q 1196 842 1192 877 q 1203 767 1200 807 q 1209 692 1207 728 q 1212 626 1211 656 q 1214 579 1214 596 m 971 534 q 968 592 971 561 q 950 645 965 622 q 898 671 940 661 q 807 685 857 680 q 712 689 758 689 q 647 690 666 690 q 594 687 632 690 q 516 678 557 685 q 439 663 474 672 q 396 642 404 655 q 383 607 387 633 q 375 550 378 580 q 370 491 371 519 q 368 451 368 463 q 369 419 368 440 q 373 374 370 397 q 379 330 375 351 q 389 301 382 310 q 413 288 393 294 q 463 278 434 283 q 524 271 492 274 q 588 266 557 268 q 642 263 618 264 q 675 263 666 263 q 731 265 691 263 q 815 274 771 268 q 897 289 859 280 q 945 310 934 298 q 959 350 953 320 q 967 417 964 381 q 970 486 969 453 q 971 534 971 519 "},"n":{"x_min":27.125,"x_max":861.34375,"ha":937,"o":"m 861 402 q 861 328 861 366 q 858 255 861 291 l 556 236 q 564 375 561 306 q 568 516 568 444 q 568 539 568 523 q 566 574 568 556 q 564 609 565 592 q 561 632 562 625 q 547 664 554 651 q 529 686 539 678 q 504 697 519 694 q 467 701 489 701 q 426 698 451 701 q 375 690 401 695 q 326 676 349 685 q 294 657 303 668 l 291 257 q 276 263 288 263 q 257 263 263 263 q 173 259 217 263 q 89 250 130 256 q 58 569 71 411 q 27 888 44 728 q 81 890 54 889 q 135 891 108 891 q 206 889 170 891 q 278 885 242 887 l 287 781 q 390 885 325 843 q 530 927 455 927 q 609 923 568 927 q 687 907 649 919 q 757 873 724 895 q 813 817 790 851 q 832 769 824 801 q 845 697 839 737 q 853 613 850 657 q 858 527 857 568 q 860 453 859 486 q 861 402 861 420 "},"3":{"x_min":75.96875,"x_max":885.765625,"ha":928,"o":"m 885 278 q 883 229 885 257 q 876 171 881 200 q 864 115 872 142 q 843 71 855 88 q 787 35 828 52 q 697 5 746 18 q 604 -16 649 -8 q 535 -29 558 -25 q 381 -43 462 -40 q 225 -46 299 -46 q 153 -45 189 -46 q 81 -43 118 -44 l 81 154 q 85 284 81 219 q 139 284 99 284 q 230 284 179 284 q 339 285 282 284 q 444 288 396 286 q 524 292 492 290 q 561 298 557 294 q 569 309 568 305 q 571 325 571 314 q 562 372 571 345 q 539 416 553 398 q 512 423 537 420 q 451 429 486 427 q 375 434 416 432 q 297 436 333 435 q 234 437 260 436 q 203 438 208 438 q 198 495 198 463 l 198 556 l 548 731 q 315 737 431 733 q 81 740 199 740 q 83 807 82 774 q 84 872 84 839 q 81 930 84 902 q 75 988 78 959 q 393 1009 236 999 q 710 1018 550 1018 l 792 1018 q 793 926 793 972 q 793 834 793 880 q 792 748 793 790 q 790 663 792 706 q 548 539 667 604 q 580 532 557 537 q 632 520 603 527 q 694 505 661 514 q 756 489 727 497 q 807 474 785 481 q 836 461 828 466 q 866 424 855 446 q 880 377 876 402 q 885 325 884 351 q 885 278 885 299 "},"9":{"x_min":62.390625,"x_max":887.109375,"ha":971,"o":"m 887 533 q 887 480 887 518 q 885 392 887 442 q 882 289 884 343 q 876 188 880 236 q 865 107 872 141 q 849 63 858 73 q 772 21 822 37 q 666 -6 722 4 q 554 -22 609 -17 q 462 -27 499 -27 q 312 -22 386 -27 q 164 -9 238 -17 q 151 126 151 56 l 151 252 q 309 236 229 244 q 469 229 389 229 q 520 230 491 229 q 575 239 549 231 q 618 263 600 246 q 636 307 636 279 q 633 358 636 333 q 626 408 630 382 q 548 387 588 393 q 469 381 508 381 q 429 381 457 381 q 365 384 401 382 q 290 389 329 386 q 218 396 252 392 q 160 405 184 400 q 130 417 137 411 q 103 471 115 435 q 82 548 90 507 q 67 626 73 588 q 62 685 62 664 q 66 754 62 706 q 77 855 70 803 q 96 950 85 907 q 123 1007 108 994 q 163 1025 134 1017 q 232 1041 192 1033 q 318 1053 272 1048 q 404 1063 363 1059 q 480 1069 446 1067 q 530 1071 514 1071 q 573 1070 545 1071 q 636 1064 602 1068 q 708 1054 671 1060 q 777 1040 744 1048 q 833 1020 809 1032 q 865 994 857 1009 q 872 952 869 986 q 878 872 876 919 q 883 772 881 826 q 885 670 884 718 q 886 583 885 621 q 887 533 887 546 m 689 660 q 686 712 689 676 q 678 785 683 747 q 664 855 672 823 q 645 900 656 888 q 625 912 638 908 q 596 918 611 916 q 564 921 580 921 q 539 922 549 922 q 497 920 526 922 q 438 914 469 918 q 381 903 408 910 q 345 887 355 896 q 333 859 337 878 q 326 820 328 841 q 323 780 324 800 q 322 750 322 760 q 324 700 322 735 q 330 629 325 666 q 345 562 336 592 q 368 526 354 533 q 395 521 379 522 q 421 520 411 520 q 475 523 439 520 q 549 531 511 526 q 620 543 587 535 q 667 560 653 550 q 679 578 675 565 q 685 607 683 591 q 688 637 687 622 q 689 660 689 652 "},"l":{"x_min":55.609375,"x_max":358.109375,"ha":414,"o":"m 358 1043 q 337 781 347 911 q 320 519 326 651 q 305 282 313 400 q 291 46 298 165 l 84 35 q 84 280 84 158 q 82 524 85 401 q 71 769 80 648 q 55 1014 63 891 l 358 1043 "}}}
